Topmarks-Bold-Condensed.ufo
<glyph name="quotedbl" format="1">
  <advance width="1268"/>
  <unicode hex="0022"/>
  <outline>
    <contour>
      <point x="243" y="1742" type="line"/>
      <point x="200" y="2284" type="line"/>
      <point x="396" y="2284" type="line"/>
      <point x="396" y="1742" type="line"/>
    </contour>
    <contour>
      <point x="582" y="1742" type="line"/>
      <point x="540" y="2284" type="line"/>
      <point x="734" y="2284" type="line"/>
      <point x="734" y="1742" type="line"/>
    </contour>
  </outline>
</glyph>
<glyph name="numbersign" format="1">
  <advance width="2136"/>
  <unicode hex="0023"/>
  <outline>
    <contour>
      <point x="271" y="106" type="line"/>
      <point x="366.986" y="605" type="line"/>
      <point x="74" y="605" type="line"/>
      <point x="87" y="752" type="line"/>
      <point x="393.306" y="752" type="line"/>
      <point x="411.166" y="863"/>
      <point x="429.966" y="967"/>
      <point x="448.766" y="1076" type="curve"/>
      <point x="150" y="1076" type="line"/>
      <point x="166" y="1221" type="line"/>
      <point x="472.266" y="1221" type="line"/>
      <point x="559.686" y="1703" type="line"/>
      <point x="721.366" y="1703" type="line"/>
      <point x="635.826" y="1221" type="line"/>
      <point x="923.466" y="1221" type="line"/>
      <point x="1008.07" y="1703" type="line"/>
      <point x="1173.03" y="1703" type="line"/>
      <point x="1083.27" y="1221" type="line"/>
      <point x="1364.03" y="1221" type="line"/>
      <point x="1347.03" y="1076" type="line"/>
      <point x="1057.89" y="1076" type="line"/>
      <point x="1001.49" y="752" type="line"/>
      <point x="1290.03" y="752" type="line"/>
      <point x="1273.03" y="605" type="line"/>
      <point x="977.046" y="605" type="line"/>
      <point x="885.866" y="106" type="line"/>
      <point x="726.066" y="106" type="line"/>
      <point x="813.486" y="605" type="line"/>
      <point x="525.846" y="605" type="line"/>
      <point x="435.606" y="106" type="line"/>
    </contour>
    <contour>
      <point x="550.286" y="752" type="line"/>
      <point x="841.686" y="752" type="line"/>
      <point x="898.086" y="1076" type="line"/>
      <point x="610.446" y="1076" type="line"/>
    </contour>
  </outline>
</glyph>
<glyph name="dollar" format="1">
  <advance width="2030"/>
  <unicode hex="0024"/>
  <outline>
    <contour>
      <point x="688.393" y="-303" type="line"/>
      <point x="819.296" y="-303" type="line"/>
      <point x="815.685" y="-114" type="line"/>
      <point x="876.171" y="-107"/>
      <point x="933.948" y="-95"/>
      <point x="988.119" y="-73" type="curve" smooth="yes"/>
      <point x="1140.69" y="-14"/>
      <point x="1284.69" y="106"/>
      <point x="1284.69" y="322" type="curve" smooth="yes"/>
      <point x="1284.69" y="459"/>
      <point x="1235.69" y="541"/>
      <point x="1158.69" y="608" type="curve" smooth="yes"/>
      <point x="1061.24" y="694"/>
      <point x="945.684" y="747"/>
      <point x="815.685" y="803" type="curve"/>
      <point x="817.49" y="1424" type="line"/>
      <point x="947.49" y="1420"/>
      <point x="1050.41" y="1380"/>
      <point x="1130.69" y="1306" type="curve"/>
      <point x="1187.69" y="1456" type="line"/>
      <point x="1093.69" y="1536"/>
      <point x="965.546" y="1585"/>
      <point x="816.588" y="1588" type="curve"/>
      <point x="812.976" y="1748" type="line"/>
      <point x="682.074" y="1748" type="line"/>
      <point x="686.588" y="1587" type="line"/>
      <point x="566.519" y="1577"/>
      <point x="462" y="1516"/>
      <point x="384" y="1443" type="curve" smooth="yes"/>
      <point x="309" y="1372"/>
      <point x="242" y="1266"/>
      <point x="242" y="1128" type="curve" smooth="yes"/>
      <point x="242" y="1063"/>
      <point x="255" y="1007"/>
      <point x="279" y="961" type="curve" smooth="yes"/>
      <point x="363" y="806"/>
      <point x="534.019" y="736"/>
      <point x="686.588" y="660" type="curve"/>
      <point x="682.074" y="48" type="line"/>
      <point x="565.616" y="54"/>
      <point x="463" y="103"/>
      <point x="375" y="161" type="curve"/>
      <point x="318" y="3" type="line"/>
      <point x="422" y="-72"/>
      <point x="536.727" y="-117"/>
      <point x="683.879" y="-120" type="curve"/>
    </contour>
    <contour>
      <point x="812.976" y="52" type="curve"/>
      <point x="817.49" y="610" type="line"/>
      <point x="931.24" y="556"/>
      <point x="1075.69" y="494"/>
      <point x="1075.69" y="319" type="curve" smooth="yes"/>
      <point x="1075.69" y="281"/>
      <point x="1067.56" y="247"/>
      <point x="1054.02" y="216" type="curve" smooth="yes"/>
      <point x="1012.49" y="125"/>
      <point x="923.115" y="69"/>
    </contour>
    <contour>
      <point x="683.879" y="859" type="line"/>
      <point x="570.13" y="906"/>
      <point x="464" y="971"/>
      <point x="464" y="1143" type="curve" smooth="yes"/>
      <point x="464" y="1300"/>
      <point x="559.296" y="1399"/>
      <point x="686.588" y="1417" type="curve"/>
    </contour>
  </outline>
</glyph>
<glyph name="percent" format="1">
  <advance width="3445"/>
  <unicode hex="0025"/>
  <outline>
    <contour>
      <point x="710" y="789" type="curve" smooth="yes"/>
      <point x="774" y="789"/>
      <point x="831" y="802"/>
      <point x="883" y="825" type="curve" smooth="yes"/>
      <point x="1027" y="891"/>
      <point x="1128" y="1032"/>
      <point x="1128" y="1238" type="curve" smooth="yes"/>
      <point x="1128" y="1503"/>
      <point x="983" y="1683"/>
      <point x="716" y="1683" type="curve" smooth="yes"/>
      <point x="652" y="1683"/>
      <point x="593" y="1672"/>
      <point x="541" y="1649" type="curve" smooth="yes"/>
      <point x="396" y="1584"/>
      <point x="296" y="1440"/>
      <point x="296" y="1233" type="curve" smooth="yes"/>
      <point x="296" y="1171"/>
      <point x="305" y="1113"/>
      <point x="324" y="1059" type="curve" smooth="yes"/>
      <point x="376" y="904"/>
      <point x="504" y="789"/>
    </contour>
    <contour>
      <point x="1776.28" y="-47" type="curve" smooth="yes"/>
      <point x="1834.06" y="-47"/>
      <point x="1886.42" y="-36"/>
      <point x="1933.36" y="-12" type="curve"/>
      <point x="2069.97" y="53"/>
      <point x="2171.97" y="196"/>
      <point x="2171.97" y="402" type="curve" smooth="yes"/>
      <point x="2171.97" y="667"/>
      <point x="2025.97" y="847"/>
      <point x="1782.6" y="847" type="curve" smooth="yes"/>
      <point x="1724.82" y="847"/>
      <point x="1671.56" y="836"/>
      <point x="1624.61" y="812" type="curve"/>
      <point x="1487" y="747"/>
      <point x="1387" y="603"/>
      <point x="1387" y="396" type="curve" smooth="yes"/>
      <point x="1387" y="333"/>
      <point x="1396" y="275"/>
      <point x="1415" y="222" type="curve" smooth="yes"/>
      <point x="1469" y="66"/>
      <point x="1590.31" y="-47"/>
    </contour>
    <contour>
      <point x="714" y="922" type="curve" smooth="yes"/>
      <point x="540" y="922"/>
      <point x="465" y="1061"/>
      <point x="465" y="1235" type="curve" smooth="yes"/>
      <point x="465" y="1407"/>
      <point x="541" y="1551"/>
      <point x="715" y="1551" type="curve" smooth="yes"/>
      <point x="756" y="1551"/>
      <point x="794" y="1543"/>
      <point x="825" y="1527" type="curve" smooth="yes"/>
      <point x="914" y="1479"/>
      <point x="961" y="1377"/>
      <point x="961" y="1239" type="curve" smooth="yes"/>
      <point x="961" y="1068"/>
      <point x="885" y="922"/>
    </contour>
    <contour>
      <point x="1778.99" y="85" type="curve" smooth="yes"/>
      <point x="1741.07" y="85"/>
      <point x="1706.76" y="93"/>
      <point x="1679.68" y="110" type="curve"/>
      <point x="1597.53" y="158"/>
      <point x="1556" y="259"/>
      <point x="1556" y="396" type="curve" smooth="yes"/>
      <point x="1556" y="568"/>
      <point x="1624.61" y="715"/>
      <point x="1781.69" y="715" type="curve" smooth="yes"/>
      <point x="1936.07" y="715"/>
      <point x="2001.97" y="576"/>
      <point x="2001.97" y="403" type="curve" smooth="yes"/>
      <point x="2001.97" y="232"/>
      <point x="1935.17" y="85"/>
    </contour>
    <contour>
      <point x="615" y="-22" type="line"/>
      <point x="796" y="-22" type="line"/>
      <point x="1828.64" y="1670" type="line"/>
      <point x="1665.24" y="1670" type="line"/>
    </contour>
  </outline>
</glyph>
<glyph name="ampersand" format="1">
  <advance width="2784"/>
  <unicode hex="0026"/>
  <outline>
    <contour>
      <point x="802.194" y="-47" type="curve" smooth="yes"/>
      <point x="1048.65" y="-47"/>
      <point x="1211.15" y="66"/>
      <point x="1337.54" y="203" type="curve"/>
      <point x="1432.33" y="102"/>
      <point x="1523.76" y="-4"/>
      <point x="1697.76" y="-30" type="curve"/>
      <point x="1853.76" y="85" type="line"/>
      <point x="1804.76" y="96"/>
      <point x="1760.76" y="107"/>
      <point x="1723.76" y="118" type="curve"/>
      <point x="1596.76" y="160"/>
      <point x="1519.76" y="229"/>
      <point x="1436.85" y="318" type="curve"/>
      <point x="1563.76" y="485"/>
      <point x="1660.76" y="718"/>
      <point x="1670.76" y="998" type="curve"/>
      <point x="1474.76" y="1022" type="line"/>
      <point x="1474.76" y="973"/>
      <point x="1471.15" y="924"/>
      <point x="1463.03" y="872" type="curve" smooth="yes"/>
      <point x="1438.65" y="710"/>
      <point x="1384.48" y="564"/>
      <point x="1314.07" y="452" type="curve"/>
      <point x="874.416" y="949" type="line"/>
      <point x="957.471" y="998"/>
      <point x="1039.62" y="1059"/>
      <point x="1100.11" y="1132" type="curve"/>
      <point x="1151.57" y="1192"/>
      <point x="1199.42" y="1271"/>
      <point x="1199.42" y="1379" type="curve" smooth="yes"/>
      <point x="1199.42" y="1436"/>
      <point x="1188.58" y="1484"/>
      <point x="1165.11" y="1527" type="curve" smooth="yes"/>
      <point x="1101.01" y="1644"/>
      <point x="971.013" y="1714"/>
      <point x="802.194" y="1714" type="curve" smooth="yes"/>
      <point x="590.944" y="1714"/>
      <point x="418.514" y="1606"/>
      <point x="418.514" y="1373" type="curve" smooth="yes"/>
      <point x="418.514" y="1332"/>
      <point x="423.931" y="1293"/>
      <point x="435.667" y="1259" type="curve" smooth="yes"/>
      <point x="473.583" y="1144"/>
      <point x="552.125" y="1066"/>
      <point x="625.25" y="985" type="curve"/>
      <point x="525.944" y="926"/>
      <point x="423.028" y="858"/>
      <point x="341" y="773" type="curve" smooth="yes"/>
      <point x="265" y="696"/>
      <point x="203" y="599"/>
      <point x="203" y="456" type="curve" smooth="yes"/>
      <point x="203" y="377"/>
      <point x="217" y="305"/>
      <point x="250" y="243" type="curve" smooth="yes"/>
      <point x="348" y="57"/>
      <point x="547.611" y="-47"/>
    </contour>
    <contour>
      <point x="798.583" y="120" type="curve" smooth="yes"/>
      <point x="742.61" y="120"/>
      <point x="691.152" y="129"/>
      <point x="644.208" y="146" type="curve" smooth="yes"/>
      <point x="523.236" y="191"/>
      <point x="414" y="288"/>
      <point x="414" y="461" type="curve" smooth="yes"/>
      <point x="414" y="512"/>
      <point x="423.028" y="557"/>
      <point x="440.181" y="597" type="curve" smooth="yes"/>
      <point x="497.958" y="726"/>
      <point x="615.319" y="799"/>
      <point x="730.874" y="865" type="curve"/>
      <point x="974.624" y="599" type="line" smooth="yes"/>
      <point x="1047.75" y="518"/>
      <point x="1126.29" y="425"/>
      <point x="1197.61" y="349" type="curve" smooth="yes"/>
      <point x="1211.15" y="334"/>
      <point x="1221.08" y="326"/>
      <point x="1222.89" y="326" type="curve"/>
      <point x="1119.97" y="215"/>
      <point x="1000.8" y="120"/>
    </contour>
    <contour>
      <point x="764.277" y="1062" type="curve"/>
      <point x="739.902" y="1087"/>
      <point x="717.333" y="1110"/>
      <point x="697.472" y="1133" type="curve" smooth="yes"/>
      <point x="649.625" y="1191"/>
      <point x="601.777" y="1260"/>
      <point x="601.777" y="1367" type="curve" smooth="yes"/>
      <point x="601.777" y="1496"/>
      <point x="693.861" y="1557"/>
      <point x="810.319" y="1557" type="curve" smooth="yes"/>
      <point x="924.068" y="1557"/>
      <point x="1018.86" y="1495"/>
      <point x="1018.86" y="1367" type="curve" smooth="yes"/>
      <point x="1018.86" y="1334"/>
      <point x="1010.73" y="1304"/>
      <point x="996.291" y="1275" type="curve" smooth="yes"/>
      <point x="948.443" y="1179"/>
      <point x="854.555" y="1114"/>
    </contour>
  </outline>
</glyph>
<glyph name="quotesingle" format="1">
  <advance width="976"/>
  <unicode hex="0027"/>
  <outline>
    <contour>
      <point x="352" y="1742" type="line"/>
      <point x="310" y="2284" type="line"/>
      <point x="505" y="2284" type="line"/>
      <point x="505" y="1742" type="line"/>
    </contour>
  </outline>
</glyph>
<glyph name="asterisk" format="1">
  <advance width="1854"/>
  <unicode hex="002A"/>
  <outline>
    <contour>
      <point x="894.811" y="1298" type="line"/>
      <point x="719.426" y="1610" type="line"/>
      <point x="550" y="1307" type="line"/>
      <point x="404" y="1395" type="line"/>
      <point x="624.486" y="1675" type="line"/>
      <point x="308" y="1766" type="line"/>
      <point x="333" y="1925" type="line"/>
      <point x="659.266" y="1780" type="line"/>
      <point x="645.166" y="1898"/>
      <point x="628.246" y="2019"/>
      <point x="614.146" y="2136" type="curve"/>
      <point x="771.126" y="2136" type="line"/>
      <point x="771.126" y="1786" type="line"/>
      <point x="1039.81" y="1928" type="line"/>
      <point x="1115.81" y="1782" type="line"/>
      <point x="810.606" y="1679" type="line"/>
      <point x="1042.81" y="1384" type="line"/>
    </contour>
  </outline>
</glyph>
<glyph name="plus" format="1">
  <advance width="1683"/>
  <unicode hex="002B"/>
  <outline>
    <contour>
      <point x="757.586" y="109" type="line"/>
      <point x="757.586" y="605" type="line"/>
      <point x="286" y="605" type="line"/>
      <point x="286" y="769" type="line"/>
      <point x="760.406" y="769" type="line"/>
      <point x="760.406" y="1266" type="line"/>
      <point x="923.966" y="1266" type="line"/>
      <point x="923.966" y="769" type="line"/>
      <point x="1397.43" y="769" type="line"/>
      <point x="1397.43" y="605" type="line"/>
      <point x="922.086" y="605" type="line"/>
      <point x="922.086" y="109" type="line"/>
    </contour>
  </outline>
</glyph>
<glyph name="slash" format="1">
  <advance width="1131"/>
  <unicode hex="002F"/>
  <outline>
    <contour>
      <point x="166" y="0" type="line"/>
      <point x="779.351" y="1448" type="line"/>
      <point x="965.351" y="1448" type="line"/>
      <point x="348" y="0" type="line"/>
    </contour>
  </outline>
</glyph>
<glyph name="zero" format="1">
  <advance width="1304"/>
  <unicode hex="0030"/>
  <outline>
    <contour>
      <point x="650.668" y="224" type="curve" smooth="yes"/>
      <point x="831.876" y="224"/>
      <point x="910.264" y="429"/>
      <point x="910.264" y="735" type="curve" smooth="yes"/>
      <point x="910.264" y="1047"/>
      <point x="831.876" y="1255"/>
      <point x="650.668" y="1255" type="curve" smooth="yes"/>
      <point x="467.424" y="1255"/>
      <point x="387" y="1047"/>
      <point x="387" y="735" type="curve" smooth="yes"/>
      <point x="387" y="429"/>
      <point x="467.424" y="224"/>
    </contour>
    <contour>
      <point x="650.668" y="6" type="curve" smooth="yes"/>
      <point x="304" y="6"/>
      <point x="118" y="297"/>
      <point x="118" y="735" type="curve" smooth="yes"/>
      <point x="118" y="1179"/>
      <point x="304" y="1474"/>
      <point x="650.668" y="1474" type="curve" smooth="yes"/>
      <point x="1000.26" y="1474"/>
      <point x="1187.26" y="1179"/>
      <point x="1187.26" y="735" type="curve" smooth="yes"/>
      <point x="1187.26" y="297"/>
      <point x="1000.26" y="6"/>
    </contour>
  </outline>
</glyph>
<glyph name="one" format="1">
  <advance width="989"/>
  <unicode hex="0031"/>
  <outline>
    <contour>
      <point x="443" y="0" type="line"/>
      <point x="711" y="0" type="line"/>
      <point x="711" y="1448" type="line"/>
      <point x="449" y="1448" type="line"/>
      <point x="382" y="1397"/>
      <point x="241" y="1314"/>
      <point x="125" y="1262" type="curve"/>
      <point x="185" y="1091" type="line"/>
      <point x="291" y="1135"/>
      <point x="377" y="1182"/>
      <point x="443" y="1233" type="curve"/>
    </contour>
  </outline>
</glyph>
<glyph name="two" format="1">
  <advance width="1249"/>
  <unicode hex="0032"/>
  <outline>
    <contour>
      <point x="566.782" y="1469" type="curve" smooth="yes"/>
      <point x="798.258" y="1469"/>
      <point x="1040.26" y="1311"/>
      <point x="1040.26" y="1002" type="curve" smooth="yes"/>
      <point x="1040.26" y="838"/>
      <point x="966.258" y="677"/>
      <point x="805.258" y="529" type="curve"/>
      <point x="466.574" y="200" type="line"/>
      <point x="1024.26" y="200" type="line"/>
      <point x="1024.26" y="0" type="line"/>
      <point x="191" y="0" type="line"/>
      <point x="191" y="192" type="line"/>
      <point x="553.241" y="575" type="line"/>
      <point x="693.171" y="739"/>
      <point x="778.032" y="858"/>
      <point x="778.032" y="994" type="curve" smooth="yes"/>
      <point x="778.032" y="1144"/>
      <point x="692.268" y="1249"/>
      <point x="555.949" y="1249" type="curve" smooth="yes"/>
      <point x="463.866" y="1249"/>
      <point x="379.908" y="1198"/>
      <point x="290" y="1095" type="curve"/>
      <point x="124" y="1232" type="line"/>
      <point x="238" y="1390"/>
      <point x="401.574" y="1469"/>
    </contour>
  </outline>
</glyph>
<glyph name="three" format="1">
  <advance width="1246"/>
  <unicode hex="0033"/>
  <outline>
    <contour>
      <point x="597.907" y="-22" type="curve" smooth="yes"/>
      <point x="437.213" y="-22"/>
      <point x="262" y="44"/>
      <point x="163" y="179" type="curve"/>
      <point x="256" y="359" type="line"/>
      <point x="388" y="239"/>
      <point x="507.63" y="200"/>
      <point x="606.032" y="200" type="curve" smooth="yes"/>
      <point x="739.643" y="200"/>
      <point x="835.337" y="280"/>
      <point x="835.337" y="389" type="curve" smooth="yes"/>
      <point x="835.337" y="608"/>
      <point x="689.99" y="637"/>
      <point x="513.046" y="637" type="curve"/>
      <point x="443.533" y="635" type="line"/>
      <point x="441.727" y="843" type="line"/>
      <point x="498.602" y="843" type="line" smooth="yes"/>
      <point x="617.768" y="843"/>
      <point x="795.615" y="859"/>
      <point x="795.615" y="1047" type="curve" smooth="yes"/>
      <point x="795.615" y="1194"/>
      <point x="685.476" y="1248"/>
      <point x="569.921" y="1248" type="curve" smooth="yes"/>
      <point x="470.616" y="1248"/>
      <point x="359" y="1210"/>
      <point x="284" y="1119" type="curve"/>
      <point x="147" y="1272" type="line"/>
      <point x="262" y="1406"/>
      <point x="439.921" y="1470"/>
      <point x="595.199" y="1470" type="curve" smooth="yes"/>
      <point x="809.157" y="1470"/>
      <point x="1033.34" y="1345"/>
      <point x="1033.34" y="1077" type="curve" smooth="yes"/>
      <point x="1033.34" y="881"/>
      <point x="889.337" y="794"/>
      <point x="817.282" y="758" type="curve"/>
      <point x="894.337" y="732"/>
      <point x="1071.34" y="637"/>
      <point x="1071.34" y="386" type="curve" smooth="yes"/>
      <point x="1071.34" y="111"/>
      <point x="822.698" y="-22"/>
    </contour>
  </outline>
</glyph>
<glyph name="four" format="1">
  <advance width="1277"/>
  <unicode hex="0034"/>
  <outline>
    <contour>
      <point x="689.206" y="0" type="line"/>
      <point x="689.206" y="322" type="line"/>
      <point x="149" y="322" type="line"/>
      <point x="149" y="513" type="line"/>
      <point x="665.706" y="1448" type="line"/>
      <point x="928.791" y="1448" type="line"/>
      <point x="928.791" y="520" type="line"/>
      <point x="1113.79" y="520" type="line"/>
      <point x="1125.21" y="322" type="line"/>
      <point x="940.206" y="322" type="line"/>
      <point x="940.206" y="0" type="line"/>
    </contour>
    <contour>
      <point x="379" y="520" type="line"/>
      <point x="689.206" y="520" type="line"/>
      <point x="689.206" y="1111" type="line"/>
      <point x="570.766" y="874" type="line"/>
    </contour>
  </outline>
</glyph>
<glyph name="five" format="1">
  <advance width="1268"/>
  <unicode hex="0035"/>
  <outline>
    <contour>
      <point x="609.766" y="-32" type="curve"/>
      <point x="458.426" y="-32"/>
      <point x="300" y="27"/>
      <point x="188" y="158" type="curve"/>
      <point x="278" y="353" type="line"/>
      <point x="395" y="235"/>
      <point x="509.186" y="188"/>
      <point x="604.126" y="187" type="curve"/>
      <point x="786.486" y="187"/>
      <point x="859.806" y="310"/>
      <point x="859.806" y="459" type="curve" smooth="yes"/>
      <point x="859.806" y="639"/>
      <point x="749.826" y="731"/>
      <point x="632.326" y="733" type="curve"/>
      <point x="556.186" y="733"/>
      <point x="488.506" y="717"/>
      <point x="419" y="644" type="curve"/>
      <point x="244" y="644" type="line"/>
      <point x="244" y="1404" type="line"/>
      <point x="992.806" y="1404" type="line"/>
      <point x="992.806" y="1205" type="line"/>
      <point x="473.466" y="1205" type="line"/>
      <point x="459.366" y="851" type="line"/>
      <point x="502.606" y="885"/>
      <point x="552.426" y="929"/>
      <point x="680.266" y="929" type="curve" smooth="yes"/>
      <point x="876.806" y="929"/>
      <point x="1101.81" y="773"/>
      <point x="1101.81" y="433" type="curve" smooth="yes"/>
      <point x="1101.81" y="144"/>
      <point x="858.866" y="-29"/>
    </contour>
  </outline>
</glyph>
<glyph name="six" format="1">
  <advance width="1242"/>
  <unicode hex="0036"/>
  <outline>
    <contour>
      <point x="623.12" y="-35" type="curve" smooth="yes"/>
      <point x="853.328" y="-35"/>
      <point x="1103.77" y="127"/>
      <point x="1103.77" y="455" type="curve" smooth="yes"/>
      <point x="1103.77" y="722"/>
      <point x="900.773" y="933"/>
      <point x="654.718" y="933" type="curve" smooth="yes"/>
      <point x="559.927" y="933"/>
      <point x="447.981" y="889"/>
      <point x="408.26" y="844" type="curve"/>
      <point x="488.606" y="1118"/>
      <point x="652.911" y="1292"/>
      <point x="933.773" y="1378" type="curve"/>
      <point x="857.843" y="1571" type="line"/>
      <point x="264.013" y="1394"/>
      <point x="117.013" y="838"/>
      <point x="139.013" y="459" type="curve" smooth="yes"/>
      <point x="158.013" y="130"/>
      <point x="392.01" y="-35"/>
    </contour>
    <contour>
      <point x="613.19" y="168" type="curve" smooth="yes"/>
      <point x="484.996" y="168"/>
      <point x="359.013" y="260"/>
      <point x="359.013" y="442" type="curve" smooth="yes"/>
      <point x="359.013" y="640"/>
      <point x="493.121" y="736"/>
      <point x="619.51" y="736" type="curve" smooth="yes"/>
      <point x="748.606" y="736"/>
      <point x="867.773" y="636"/>
      <point x="867.773" y="440" type="curve" smooth="yes"/>
      <point x="867.773" y="259"/>
      <point x="740.48" y="168"/>
    </contour>
  </outline>
</glyph>
<glyph name="seven" format="1">
  <advance width="1283"/>
  <unicode hex="0037"/>
  <outline>
    <contour>
      <point x="330" y="0" type="line"/>
      <point x="763.667" y="1214" type="line"/>
      <point x="163" y="1214" type="line"/>
      <point x="163" y="1413" type="line"/>
      <point x="1055.21" y="1413" type="line"/>
      <point x="1055.21" y="1232" type="line"/>
      <point x="609" y="0" type="line"/>
    </contour>
  </outline>
</glyph>
<glyph name="eight" format="1">
  <advance width="1266"/>
  <unicode hex="0038"/>
  <outline>
    <contour>
      <point x="634.6" y="-22" type="curve" smooth="yes"/>
      <point x="346" y="-22"/>
      <point x="145" y="125"/>
      <point x="145" y="374" type="curve" smooth="yes"/>
      <point x="145" y="589"/>
      <point x="273" y="706"/>
      <point x="410.88" y="759" type="curve"/>
      <point x="285" y="808"/>
      <point x="178" y="912"/>
      <point x="178" y="1098" type="curve" smooth="yes"/>
      <point x="178" y="1343"/>
      <point x="374" y="1470"/>
      <point x="634.6" y="1470" type="curve" smooth="yes"/>
      <point x="933.72" y="1470"/>
      <point x="1091.72" y="1296"/>
      <point x="1091.72" y="1098" type="curve" smooth="yes"/>
      <point x="1091.72" y="922"/>
      <point x="981.72" y="808"/>
      <point x="856.44" y="759" type="curve"/>
      <point x="995.72" y="706"/>
      <point x="1122.72" y="589"/>
      <point x="1122.72" y="374" type="curve" smooth="yes"/>
      <point x="1122.72" y="92"/>
      <point x="910.72" y="-22"/>
    </contour>
    <contour>
      <point x="639.3" y="186" type="curve" smooth="yes"/>
      <point x="782.18" y="186"/>
      <point x="867.72" y="255"/>
      <point x="867.72" y="381" type="curve" smooth="yes"/>
      <point x="867.72" y="521"/>
      <point x="756.8" y="611"/>
      <point x="639.3" y="635" type="curve"/>
      <point x="509.58" y="609"/>
      <point x="409" y="510"/>
      <point x="409" y="381" type="curve" smooth="yes"/>
      <point x="409" y="247"/>
      <point x="503.94" y="186"/>
    </contour>
    <contour>
      <point x="639.3" y="863" type="curve"/>
      <point x="756.8" y="885"/>
      <point x="847.98" y="969"/>
      <point x="847.98" y="1094" type="curve" smooth="yes"/>
      <point x="847.98" y="1211"/>
      <point x="756.8" y="1262"/>
      <point x="639.3" y="1262" type="curve" smooth="yes"/>
      <point x="512.4" y="1262"/>
      <point x="427.8" y="1203"/>
      <point x="427.8" y="1094" type="curve" smooth="yes"/>
      <point x="427.8" y="969"/>
      <point x="519.92" y="885"/>
    </contour>
  </outline>
</glyph>
<glyph name="nine" format="1">
  <advance width="1263"/>
  <unicode hex="0039"/>
  <outline>
    <contour>
      <point x="577.666" y="-132" type="line"/>
      <point x="944.571" y="498" type="line"/>
      <point x="1027.57" y="636"/>
      <point x="1122.57" y="854"/>
      <point x="1122.57" y="979" type="curve" smooth="yes"/>
      <point x="1122.57" y="1308"/>
      <point x="866.246" y="1470"/>
      <point x="625.606" y="1470" type="curve" smooth="yes"/>
      <point x="385.906" y="1470"/>
      <point x="123" y="1313"/>
      <point x="123" y="984" type="curve" smooth="yes"/>
      <point x="123" y="718"/>
      <point x="339" y="506"/>
      <point x="603.986" y="506" type="curve" smooth="yes"/>
      <point x="658.506" y="506"/>
      <point x="682.946" y="510"/>
      <point x="694.226" y="516" type="curve"/>
      <point x="383.086" y="-19" type="line"/>
    </contour>
    <contour>
      <point x="638.766" y="701" type="curve" smooth="yes"/>
      <point x="504.346" y="701"/>
      <point x="360" y="802"/>
      <point x="360" y="998" type="curve" smooth="yes"/>
      <point x="360" y="1180"/>
      <point x="501.526" y="1271"/>
      <point x="634.066" y="1271" type="curve" smooth="yes"/>
      <point x="767.546" y="1271"/>
      <point x="903.571" y="1178"/>
      <point x="903.571" y="996" type="curve" smooth="yes"/>
      <point x="903.571" y="799"/>
      <point x="769.426" y="701"/>
    </contour>
  </outline>
</glyph>
<glyph name="less" format="1">
  <advance width="2536"/>
  <unicode hex="003C"/>
  <outline>
    <contour>
      <point x="1354.31" y="84" type="line"/>
      <point x="386" y="542" type="line"/>
      <point x="386" y="629" type="line"/>
      <point x="1358.31" y="1098" type="line"/>
      <point x="1358.31" y="947" type="line"/>
      <point x="604" y="586" type="line"/>
      <point x="1354.31" y="236" type="line"/>
    </contour>
  </outline>
</glyph>
<glyph name="equal" format="1">
  <advance width="1273"/>
  <unicode hex="003D"/>
  <outline>
    <contour>
      <point x="218" y="450" type="line"/>
      <point x="218" y="590" type="line"/>
      <point x="1056.77" y="590" type="line"/>
      <point x="1056.77" y="450" type="line"/>
    </contour>
    <contour>
      <point x="217" y="853" type="line"/>
      <point x="217" y="996" type="line"/>
      <point x="1056.77" y="996" type="line"/>
      <point x="1056.77" y="853" type="line"/>
    </contour>
  </outline>
</glyph>
<glyph name="greater" format="1">
  <advance width="1423"/>
  <unicode hex="003E"/>
  <outline>
    <contour>
      <point x="282" y="102" type="line"/>
      <point x="282" y="255" type="line"/>
      <point x="1037.13" y="597" type="line"/>
      <point x="288" y="966" type="line"/>
      <point x="288" y="1118" type="line"/>
      <point x="1257.13" y="636" type="line"/>
      <point x="1257.13" y="547" type="line"/>
    </contour>
  </outline>
</glyph>
<glyph name="question" format="1">
  <advance width="947"/>
  <unicode hex="003F"/>
  <outline>
    <contour>
      <point x="309" y="399" type="curve"/>
      <point x="423" y="399" type="line"/>
      <point x="479.738" y="752"/>
      <point x="850.255" y="771"/>
      <point x="850.255" y="1127" type="curve" smooth="yes"/>
      <point x="850.255" y="1367"/>
      <point x="666.255" y="1470"/>
      <point x="452.916" y="1470" type="curve" smooth="yes"/>
      <point x="353" y="1470"/>
      <point x="240" y="1449"/>
      <point x="137" y="1406" type="curve"/>
      <point x="168" y="1195" type="line"/>
      <point x="242" y="1223"/>
      <point x="333" y="1242"/>
      <point x="399.274" y="1242" type="curve" smooth="yes"/>
      <point x="493.148" y="1242"/>
      <point x="572.653" y="1202"/>
      <point x="572.653" y="1099" type="curve" smooth="yes"/>
      <point x="572.653" y="953.171"/>
      <point x="309" y="863"/>
    </contour>
    <contour>
      <point x="361" y="0" type="curve" smooth="yes"/>
      <point x="450" y="0"/>
      <point x="514" y="63"/>
      <point x="514" y="148" type="curve" smooth="yes"/>
      <point x="514" y="235"/>
      <point x="451" y="298"/>
      <point x="363" y="298" type="curve" smooth="yes"/>
      <point x="274" y="298"/>
      <point x="209" y="235"/>
      <point x="209" y="150" type="curve" smooth="yes"/>
      <point x="209" y="63"/>
      <point x="272" y="0"/>
    </contour>
  </outline>
</glyph>
<glyph name="at" format="1">
  <advance width="1908"/>
  <unicode hex="0040"/>
  <outline>
    <contour>
      <point x="1001.52" y="-111" type="curve" smooth="yes"/>
      <point x="1180.48" y="-111"/>
      <point x="1369.84" y="-65"/>
      <point x="1534.34" y="30" type="curve"/>
      <point x="1449.74" y="169" type="line"/>
      <point x="1321.9" y="98"/>
      <point x="1172.48" y="62"/>
      <point x="1030.66" y="62" type="curve" smooth="yes"/>
      <point x="696.82" y="62"/>
      <point x="380" y="264"/>
      <point x="380" y="679" type="curve" smooth="yes"/>
      <point x="380" y="1093"/>
      <point x="706.82" y="1295"/>
      <point x="1012.8" y="1295" type="curve" smooth="yes"/>
      <point x="1298.4" y="1295"/>
      <point x="1563.48" y="1125"/>
      <point x="1563.48" y="790" type="curve" smooth="yes"/>
      <point x="1563.48" y="497"/>
      <point x="1450.68" y="384"/>
      <point x="1367.02" y="384" type="curve" smooth="yes"/>
      <point x="1319.08" y="384"/>
      <point x="1281.48" y="421"/>
      <point x="1281.48" y="481" type="curve" smooth="yes"/>
      <point x="1281.48" y="498"/>
      <point x="1332.24" y="745"/>
      <point x="1408.38" y="1099" type="curve"/>
      <point x="1232.48" y="1099" type="line"/>
      <point x="1193.48" y="1014" type="line"/>
      <point x="1125.6" y="1096"/>
      <point x="1047.58" y="1130"/>
      <point x="965.8" y="1130" type="curve" smooth="yes"/>
      <point x="758.82" y="1130"/>
      <point x="523.82" y="903"/>
      <point x="523.82" y="625" type="curve" smooth="yes"/>
      <point x="523.82" y="389"/>
      <point x="674.82" y="252"/>
      <point x="834.2" y="252" type="curve" smooth="yes"/>
      <point x="932.9" y="252"/>
      <point x="1035.36" y="308"/>
      <point x="1108.68" y="429" type="curve"/>
      <point x="1109.62" y="305"/>
      <point x="1220.48" y="251"/>
      <point x="1330.36" y="251" type="curve" smooth="yes"/>
      <point x="1585.48" y="251"/>
      <point x="1764.48" y="464"/>
      <point x="1764.48" y="785" type="curve" smooth="yes"/>
      <point x="1764.48" y="1243"/>
      <point x="1396.16" y="1467"/>
      <point x="1014.68" y="1467" type="curve" smooth="yes"/>
      <point x="592.82" y="1467"/>
      <point x="144" y="1237"/>
      <point x="144" y="674" type="curve" smooth="yes"/>
      <point x="144" y="167"/>
      <point x="554.82" y="-111"/>
    </contour>
    <contour>
      <point x="891.54" y="418" type="curve" smooth="yes"/>
      <point x="821.04" y="418"/>
      <point x="761.82" y="479"/>
      <point x="761.82" y="604" type="curve" smooth="yes"/>
      <point x="761.82" y="836"/>
      <point x="906.58" y="976"/>
      <point x="1014.68" y="976" type="curve" smooth="yes"/>
      <point x="1076.72" y="976"/>
      <point x="1127.48" y="928"/>
      <point x="1127.48" y="821" type="curve" smooth="yes"/>
      <point x="1127.48" y="554"/>
      <point x="995.88" y="418"/>
    </contour>
  </outline>
</glyph>
<glyph name="A" format="1">
  <advance width="1437"/>
  <unicode hex="0041"/>
  <outline>
    <contour>
      <point x="72" y="0" type="line"/>
      <point x="346" y="0" type="line"/>
      <point x="458.847" y="335" type="line"/>
      <point x="971.624" y="335" type="line"/>
      <point x="1080.86" y="0" type="line"/>
      <point x="1365.86" y="0" type="line"/>
      <point x="830.791" y="1448" type="line"/>
      <point x="611.416" y="1448" type="line"/>
    </contour>
    <contour>
      <point x="525.652" y="533" type="line"/>
      <point x="598.777" y="750" type="line"/>
      <point x="715.235" y="1121" type="line"/>
      <point x="836.207" y="750" type="line"/>
      <point x="906.624" y="533" type="line"/>
    </contour>
  </outline>
</glyph>
<glyph name="B" format="1">
  <advance width="1443"/>
  <unicode hex="0042"/>
  <outline>
    <contour>
      <point x="194" y="0" type="line"/>
      <point x="194" y="1448" type="line"/>
      <point x="675" y="1448" type="line" smooth="yes"/>
      <point x="1070.3" y="1448"/>
      <point x="1248.3" y="1345"/>
      <point x="1248.3" y="1100" type="curve" smooth="yes"/>
      <point x="1248.3" y="920"/>
      <point x="1177.3" y="823"/>
      <point x="1011.72" y="775" type="curve"/>
      <point x="1220.3" y="740"/>
      <point x="1311.3" y="633"/>
      <point x="1311.3" y="420" type="curve" smooth="yes"/>
      <point x="1311.3" y="127"/>
      <point x="1134.3" y="0"/>
      <point x="741" y="0" type="curve" smooth="yes"/>
    </contour>
    <contour>
      <point x="444" y="201" type="line"/>
      <point x="734" y="201" type="line" smooth="yes"/>
      <point x="966.6" y="201"/>
      <point x="1065.3" y="268"/>
      <point x="1065.3" y="433" type="curve" smooth="yes"/>
      <point x="1065.3" y="590"/>
      <point x="961.9" y="657"/>
      <point x="719" y="657" type="curve" smooth="yes"/>
      <point x="444" y="657" type="line"/>
    </contour>
    <contour>
      <point x="444" y="841" type="line"/>
      <point x="689" y="841" type="line" smooth="yes"/>
      <point x="912.08" y="841"/>
      <point x="1006.08" y="907"/>
      <point x="1006.08" y="1062" type="curve" smooth="yes"/>
      <point x="1006.08" y="1195"/>
      <point x="908.32" y="1248"/>
      <point x="675" y="1248" type="curve" smooth="yes"/>
      <point x="444" y="1248" type="line"/>
    </contour>
  </outline>
</glyph>
<glyph name="C" format="1">
  <advance width="1430"/>
  <unicode hex="0043"/>
  <outline>
    <contour>
      <point x="866" y="-22" type="curve" smooth="yes"/>
      <point x="430.78" y="-22"/>
      <point x="140" y="274"/>
      <point x="140" y="720" type="curve" smooth="yes"/>
      <point x="140" y="1172"/>
      <point x="449.58" y="1470"/>
      <point x="885.74" y="1470" type="curve" smooth="yes"/>
      <point x="1040.84" y="1470"/>
      <point x="1203.29" y="1409"/>
      <point x="1326.29" y="1314" type="curve"/>
      <point x="1239.29" y="1122" type="line"/>
      <point x="1164.29" y="1183"/>
      <point x="1014.52" y="1252"/>
      <point x="876.34" y="1252" type="curve" smooth="yes"/>
      <point x="574.6" y="1252"/>
      <point x="396" y="1032"/>
      <point x="396" y="719" type="curve" smooth="yes"/>
      <point x="396" y="405"/>
      <point x="572.72" y="196"/>
      <point x="890.44" y="196" type="curve" smooth="yes"/>
      <point x="1016.4" y="196"/>
      <point x="1165.29" y="248"/>
      <point x="1264.29" y="327" type="curve"/>
      <point x="1342.29" y="125" type="line"/>
      <point x="1233.29" y="36"/>
      <point x="1030.5" y="-22"/>
    </contour>
  </outline>
</glyph>
<glyph name="D" format="1">
  <advance width="1612"/>
  <unicode hex="0044"/>
  <outline>
    <contour>
      <point x="444" y="200" type="line"/>
      <point x="646" y="200" type="line" smooth="yes"/>
      <point x="1042" y="200"/>
      <point x="1216" y="368"/>
      <point x="1216" y="735" type="curve" smooth="yes"/>
      <point x="1216" y="1088"/>
      <point x="1030" y="1248"/>
      <point x="605" y="1248" type="curve" smooth="yes"/>
      <point x="444" y="1248" type="line"/>
    </contour>
    <contour>
      <point x="194" y="0" type="line"/>
      <point x="194" y="1448" type="line"/>
      <point x="572" y="1448" type="line" smooth="yes"/>
      <point x="1208" y="1448"/>
      <point x="1472" y="1236"/>
      <point x="1472" y="738" type="curve" smooth="yes"/>
      <point x="1472" y="221"/>
      <point x="1225" y="0"/>
      <point x="630" y="0" type="curve" smooth="yes"/>
    </contour>
  </outline>
</glyph>
<glyph name="E" format="1">
  <advance width="1234"/>
  <unicode hex="0045"/>
  <outline>
    <contour>
      <point x="194" y="0" type="line"/>
      <point x="194" y="1448" type="line"/>
      <point x="1064.61" y="1448" type="line"/>
      <point x="1064.61" y="1248" type="line"/>
      <point x="443.746" y="1248" type="line"/>
      <point x="443.746" y="835" type="line"/>
      <point x="1026.61" y="835" type="line"/>
      <point x="1026.61" y="642" type="line"/>
      <point x="443.746" y="642" type="line"/>
      <point x="443.746" y="200" type="line"/>
      <point x="1114.61" y="200" type="line"/>
      <point x="1114.61" y="0" type="line"/>
    </contour>
  </outline>
</glyph>
<glyph name="F" format="1">
  <advance width="1175"/>
  <unicode hex="0046"/>
  <outline>
    <contour>
      <point x="194" y="0" type="line"/>
      <point x="194" y="1448" type="line"/>
      <point x="1049.75" y="1448" type="line"/>
      <point x="1049.75" y="1248" type="line"/>
      <point x="443.746" y="1248" type="line"/>
      <point x="443.746" y="857" type="line"/>
      <point x="1016.75" y="857" type="line"/>
      <point x="1016.75" y="664" type="line"/>
      <point x="443.746" y="664" type="line"/>
      <point x="443.746" y="0" type="line"/>
    </contour>
  </outline>
</glyph>
<glyph name="G" format="1">
  <advance width="1524"/>
  <unicode hex="0047"/>
  <outline>
    <contour>
      <point x="860.027" y="-22" type="curve" smooth="yes"/>
      <point x="432.111" y="-22"/>
      <point x="140" y="256"/>
      <point x="140" y="687" type="curve" smooth="yes"/>
      <point x="140" y="1159"/>
      <point x="445.653" y="1470"/>
      <point x="881.693" y="1470" type="curve" smooth="yes"/>
      <point x="1031.55" y="1470"/>
      <point x="1207.17" y="1416"/>
      <point x="1340.17" y="1334" type="curve"/>
      <point x="1258.17" y="1145" type="line"/>
      <point x="1142.17" y="1206"/>
      <point x="998.152" y="1252"/>
      <point x="890.721" y="1252" type="curve" smooth="yes"/>
      <point x="587.389" y="1252"/>
      <point x="396" y="1033"/>
      <point x="396" y="701" type="curve" smooth="yes"/>
      <point x="396" y="391"/>
      <point x="585.583" y="196"/>
      <point x="871.763" y="196" type="curve" smooth="yes"/>
      <point x="966.554" y="196"/>
      <point x="1056.83" y="214"/>
      <point x="1120.17" y="243" type="curve"/>
      <point x="1120.17" y="595" type="line"/>
      <point x="832.041" y="595" type="line"/>
      <point x="832.041" y="773" type="line"/>
      <point x="1364.17" y="773" type="line"/>
      <point x="1364.17" y="78" type="line"/>
      <point x="1232.17" y="16"/>
      <point x="1028.85" y="-22"/>
    </contour>
  </outline>
</glyph>
<glyph name="H" format="1">
  <advance width="1582"/>
  <unicode hex="0048"/>
  <outline>
    <contour>
      <point x="194" y="0" type="line"/>
      <point x="194" y="1448" type="line"/>
      <point x="444" y="1448" type="line"/>
      <point x="444" y="850" type="line"/>
      <point x="1140.54" y="850" type="line"/>
      <point x="1140.54" y="1448" type="line"/>
      <point x="1390.54" y="1448" type="line"/>
      <point x="1390.54" y="0" type="line"/>
      <point x="1140.54" y="0" type="line"/>
      <point x="1140.54" y="635" type="line"/>
      <point x="444" y="635" type="line"/>
      <point x="444" y="0" type="line"/>
    </contour>
  </outline>
</glyph>
<glyph name="I" format="1">
  <advance width="640"/>
  <unicode hex="0049"/>
  <outline>
    <contour>
      <point x="195" y="0" type="line"/>
      <point x="195" y="1448" type="line"/>
      <point x="445" y="1448" type="line"/>
      <point x="445" y="0" type="line"/>
    </contour>
  </outline>
</glyph>
<glyph name="J" format="1">
  <advance width="1142"/>
  <unicode hex="004A"/>
  <outline>
    <contour>
      <point x="82" y="-114" type="line"/>
      <point x="187" y="-178"/>
      <point x="303" y="-212"/>
      <point x="403.81" y="-212" type="curve" smooth="yes"/>
      <point x="621.998" y="-212"/>
      <point x="820.305" y="-55"/>
      <point x="820.305" y="293" type="curve" smooth="yes"/>
      <point x="815.438" y="1248" type="line"/>
      <point x="1083.08" y="1248" type="line"/>
      <point x="1083.08" y="1448" type="line"/>
      <point x="213" y="1448" type="line"/>
      <point x="213" y="1248" type="line"/>
      <point x="576.918" y="1248" type="line"/>
      <point x="576.918" y="292" type="line" smooth="yes"/>
      <point x="576.918" y="109"/>
      <point x="506.727" y="22"/>
      <point x="391.171" y="22" type="curve" smooth="yes"/>
      <point x="332.491" y="22"/>
      <point x="244" y="45"/>
      <point x="154" y="90" type="curve"/>
    </contour>
  </outline>
</glyph>
<glyph name="K" format="1">
  <advance width="1312"/>
  <unicode hex="004B"/>
  <outline>
    <contour>
      <point x="194" y="0" type="line"/>
      <point x="194" y="1448" type="line"/>
      <point x="444" y="1448" type="line"/>
      <point x="444" y="822" type="line"/>
      <point x="961.94" y="1448" type="line"/>
      <point x="1272.1" y="1448" type="line"/>
      <point x="681.82" y="773" type="line"/>
      <point x="1306.1" y="0" type="line"/>
      <point x="975.1" y="0" type="line"/>
      <point x="444" y="681" type="line"/>
      <point x="444" y="0" type="line"/>
    </contour>
  </outline>
</glyph>
<glyph name="L" format="1">
  <advance width="1100"/>
  <unicode hex="004C"/>
  <outline>
    <contour>
      <point x="194" y="0" type="line"/>
      <point x="194" y="1448" type="line"/>
      <point x="443.746" y="1448" type="line"/>
      <point x="443.746" y="200" type="line"/>
      <point x="1064.79" y="200" type="line"/>
      <point x="1064.79" y="0" type="line"/>
    </contour>
  </outline>
</glyph>
<glyph name="M" format="1">
  <advance width="1934"/>
  <unicode hex="004D"/>
  <outline>
    <contour>
      <point x="194" y="0" type="line"/>
      <point x="194" y="1448" type="line"/>
      <point x="489.12" y="1448" type="line"/>
      <point x="886.74" y="733" type="line"/>
      <point x="967.58" y="569" type="line"/>
      <point x="1046.54" y="735" type="line"/>
      <point x="1446.98" y="1448" type="line"/>
      <point x="1740.22" y="1448" type="line"/>
      <point x="1740.22" y="0" type="line"/>
      <point x="1490.22" y="0" type="line"/>
      <point x="1490.22" y="1077" type="line"/>
      <point x="1389.64" y="863" type="line"/>
      <point x="1023.98" y="229" type="line"/>
      <point x="906.48" y="229" type="line"/>
      <point x="543.64" y="875" type="line"/>
      <point x="444" y="1094" type="line"/>
      <point x="444" y="0" type="line"/>
    </contour>
  </outline>
</glyph>
<glyph name="N" format="1">
  <advance width="1619"/>
  <unicode hex="004E"/>
  <outline>
    <contour>
      <point x="194" y="0" type="line"/>
      <point x="194" y="1448" type="line"/>
      <point x="454.694" y="1448" type="line"/>
      <point x="1080.32" y="500" type="line"/>
      <point x="1197.1" y="313" type="line"/>
      <point x="1197.1" y="1448" type="line"/>
      <point x="1427.1" y="1448" type="line"/>
      <point x="1427.1" y="0" type="line"/>
      <point x="1161.57" y="0" type="line"/>
      <point x="533.236" y="949" type="line"/>
      <point x="424" y="1111" type="line"/>
      <point x="424" y="0" type="line"/>
    </contour>
  </outline>
</glyph>
<glyph name="O" format="1">
  <advance width="1631"/>
  <unicode hex="004F"/>
  <outline>
    <contour>
      <point x="813.083" y="196" type="curve" smooth="yes"/>
      <point x="1061.35" y="196"/>
      <point x="1236.4" y="408"/>
      <point x="1236.4" y="724" type="curve" smooth="yes"/>
      <point x="1236.4" y="1046"/>
      <point x="1061.35" y="1252"/>
      <point x="813.083" y="1252" type="curve" smooth="yes"/>
      <point x="564.819" y="1252"/>
      <point x="396" y="1046"/>
      <point x="396" y="724" type="curve" smooth="yes"/>
      <point x="396" y="408"/>
      <point x="564.819" y="196"/>
    </contour>
    <contour>
      <point x="813.083" y="-22" type="curve" smooth="yes"/>
      <point x="416.764" y="-22"/>
      <point x="140" y="276"/>
      <point x="140" y="726" type="curve" smooth="yes"/>
      <point x="140" y="1172"/>
      <point x="416.764" y="1470"/>
      <point x="813.083" y="1470" type="curve" smooth="yes"/>
      <point x="1213.35" y="1470"/>
      <point x="1492.19" y="1172"/>
      <point x="1492.19" y="726" type="curve" smooth="yes"/>
      <point x="1492.19" y="276"/>
      <point x="1213.35" y="-22"/>
    </contour>
  </outline>
</glyph>
<glyph name="P" format="1">
  <advance width="1280"/>
  <unicode hex="0050"/>
  <outline>
    <contour>
      <point x="194" y="0" type="line"/>
      <point x="194" y="1448" type="line"/>
      <point x="614.371" y="1448" type="line" smooth="yes"/>
      <point x="1027.01" y="1448"/>
      <point x="1208.01" y="1316"/>
      <point x="1208.01" y="1003" type="curve" smooth="yes"/>
      <point x="1208.01" y="675"/>
      <point x="1033.01" y="534"/>
      <point x="636.94" y="534" type="curve" smooth="yes"/>
      <point x="443.746" y="534" type="line"/>
      <point x="443.746" y="0" type="line"/>
    </contour>
    <contour>
      <point x="443.746" y="737" type="line"/>
      <point x="654.093" y="737" type="line" smooth="yes"/>
      <point x="861.731" y="737"/>
      <point x="952.009" y="815"/>
      <point x="952.009" y="1001" type="curve" smooth="yes"/>
      <point x="952.009" y="1178"/>
      <point x="855.412" y="1248"/>
      <point x="636.037" y="1248" type="curve" smooth="yes"/>
      <point x="443.746" y="1248" type="line"/>
    </contour>
  </outline>
</glyph>
<glyph name="Q" format="1">
  <advance width="1629"/>
  <unicode hex="0051"/>
  <outline>
    <contour>
      <point x="1232.87" y="-425" type="line"/>
      <point x="1129.01" y="-309"/>
      <point x="1030.61" y="-180"/>
      <point x="962" y="-18" type="curve"/>
      <point x="1173.25" y="55" type="line"/>
      <point x="1230.12" y="-74"/>
      <point x="1317.14" y="-177"/>
      <point x="1414.14" y="-268" type="curve"/>
    </contour>
    <component base="O"/>
  </outline>
</glyph>
<glyph name="R" format="1">
  <advance width="1332"/>
  <unicode hex="0052"/>
  <outline>
    <contour>
      <point x="194" y="0" type="line"/>
      <point x="194" y="1448" type="line"/>
      <point x="635.389" y="1448" type="line" smooth="yes"/>
      <point x="1008.81" y="1448"/>
      <point x="1184.81" y="1335"/>
      <point x="1184.81" y="1069" type="curve" smooth="yes"/>
      <point x="1184.81" y="878"/>
      <point x="1109.81" y="718"/>
      <point x="889.069" y="658" type="curve"/>
      <point x="943.438" y="716" type="line"/>
      <point x="1251.76" y="0" type="line"/>
      <point x="984.763" y="0" type="line"/>
      <point x="717.541" y="704" type="line"/>
      <point x="796.985" y="638" type="line"/>
      <point x="444" y="638" type="line"/>
      <point x="444" y="0" type="line"/>
    </contour>
    <contour>
      <point x="444" y="821" type="line"/>
      <point x="642.611" y="821" type="line" smooth="yes"/>
      <point x="845.735" y="821"/>
      <point x="933.305" y="887"/>
      <point x="933.305" y="1054" type="curve" smooth="yes"/>
      <point x="933.305" y="1214"/>
      <point x="848.444" y="1248"/>
      <point x="651.638" y="1248" type="curve" smooth="yes"/>
      <point x="444" y="1248" type="line"/>
    </contour>
  </outline>
</glyph>
<glyph name="S" format="1">
  <advance width="1265"/>
  <unicode hex="0053"/>
  <outline>
    <contour>
      <point x="679.046" y="-22" type="curve" smooth="yes"/>
      <point x="505.146" y="-22"/>
      <point x="299" y="33"/>
      <point x="160" y="121" type="curve"/>
      <point x="219" y="331" type="line"/>
      <point x="395" y="233"/>
      <point x="545.566" y="196"/>
      <point x="669.646" y="196" type="curve" smooth="yes"/>
      <point x="837.906" y="196"/>
      <point x="917.18" y="279"/>
      <point x="917.18" y="385" type="curve" smooth="yes"/>
      <point x="917.18" y="486"/>
      <point x="891.18" y="548"/>
      <point x="553.086" y="653" type="curve"/>
      <point x="228" y="749"/>
      <point x="152" y="886"/>
      <point x="152" y="1059" type="curve" smooth="yes"/>
      <point x="152" y="1276"/>
      <point x="289" y="1470"/>
      <point x="651.88" y="1470" type="curve" smooth="yes"/>
      <point x="804.16" y="1470"/>
      <point x="969.652" y="1426"/>
      <point x="1101.65" y="1345" type="curve"/>
      <point x="1031.65" y="1151" type="line"/>
      <point x="905.68" y="1218"/>
      <point x="781.6" y="1252"/>
      <point x="668.8" y="1252" type="curve" smooth="yes"/>
      <point x="469.52" y="1252"/>
      <point x="415" y="1181"/>
      <point x="415" y="1084" type="curve" smooth="yes"/>
      <point x="415" y="984"/>
      <point x="436.62" y="948"/>
      <point x="694.18" y="859" type="curve" smooth="yes"/>
      <point x="1048.65" y="740"/>
      <point x="1159.18" y="642"/>
      <point x="1153.18" y="391" type="curve" smooth="yes"/>
      <point x="1148.18" y="164"/>
      <point x="1003.18" y="-22"/>
    </contour>
  </outline>
</glyph>
<glyph name="T" format="1">
  <advance width="1201"/>
  <unicode hex="0054"/>
  <outline>
    <contour>
      <point x="476.267" y="0" type="line"/>
      <point x="476.267" y="1248" type="line"/>
      <point x="60" y="1248" type="line"/>
      <point x="60" y="1448" type="line"/>
      <point x="1141.31" y="1448" type="line"/>
      <point x="1141.31" y="1248" type="line"/>
      <point x="725.186" y="1248" type="line"/>
      <point x="725.186" y="0" type="line"/>
    </contour>
  </outline>
</glyph>
<glyph name="U" format="1">
  <advance width="1542"/>
  <unicode hex="0055"/>
  <outline>
    <contour>
      <point x="780.14" y="-22" type="curve" smooth="yes"/>
      <point x="419" y="-22"/>
      <point x="172" y="208"/>
      <point x="172" y="547" type="curve" smooth="yes"/>
      <point x="172" y="1448" type="line"/>
      <point x="422" y="1448" type="line"/>
      <point x="422" y="552" type="line" smooth="yes"/>
      <point x="422" y="338"/>
      <point x="564.88" y="196"/>
      <point x="779.2" y="196" type="curve" smooth="yes"/>
      <point x="982.24" y="196"/>
      <point x="1120.15" y="335"/>
      <point x="1120.15" y="545" type="curve" smooth="yes"/>
      <point x="1120.15" y="1448" type="line"/>
      <point x="1370.15" y="1448" type="line"/>
      <point x="1370.15" y="558" type="line" smooth="yes"/>
      <point x="1370.15" y="213"/>
      <point x="1133.15" y="-22"/>
    </contour>
  </outline>
</glyph>
<glyph name="V" format="1">
  <advance width="1340"/>
  <unicode hex="0056"/>
  <outline>
    <contour>
      <point x="542.266" y="0" type="line"/>
      <point x="3" y="1448" type="line"/>
      <point x="276.246" y="1448" type="line"/>
      <point x="567.266" y="630" type="line"/>
      <point x="682.266" y="323" type="line"/>
      <point x="789.266" y="629" type="line"/>
      <point x="1055.51" y="1448" type="line"/>
      <point x="1337.21" y="1448" type="line"/>
      <point x="820.266" y="0" type="line"/>
    </contour>
  </outline>
</glyph>
<glyph name="W" format="1">
  <advance width="2173"/>
  <unicode hex="0057"/>
  <outline>
    <contour>
      <point x="498" y="0" type="line"/>
      <point x="46" y="1448" type="line"/>
      <point x="301" y="1448" type="line"/>
      <point x="550" y="614" type="line"/>
      <point x="617" y="385" type="line"/>
      <point x="703" y="614" type="line"/>
      <point x="1009.46" y="1448" type="line"/>
      <point x="1177.72" y="1448" type="line"/>
      <point x="1482.96" y="610" type="line"/>
      <point x="1563.96" y="386" type="line"/>
      <point x="1635.96" y="614" type="line"/>
      <point x="1878.96" y="1448" type="line"/>
      <point x="2127.96" y="1448" type="line"/>
      <point x="1676.96" y="0" type="line"/>
      <point x="1455.96" y="0" type="line"/>
      <point x="1088.42" y="1051" type="line"/>
      <point x="719" y="0" type="line"/>
    </contour>
  </outline>
</glyph>
<glyph name="X" format="1">
  <advance width="1342"/>
  <unicode hex="0058"/>
  <outline>
    <contour>
      <point x="1061.3" y="0" type="line"/>
      <point x="671.2" y="561" type="line"/>
      <point x="267" y="0" type="line"/>
      <point x="-7" y="0" type="line"/>
      <point x="542.42" y="748" type="line"/>
      <point x="42" y="1448" type="line"/>
      <point x="322.46" y="1448" type="line"/>
      <point x="695.64" y="905" type="line"/>
      <point x="1076.3" y="1448" type="line"/>
      <point x="1349.3" y="1448" type="line"/>
      <point x="824.42" y="717" type="line"/>
      <point x="1332.3" y="0" type="line"/>
    </contour>
  </outline>
</glyph>
<glyph name="Y" format="1">
  <advance width="1245"/>
  <unicode hex="0059"/>
  <outline>
    <contour>
      <point x="495.686" y="0" type="line"/>
      <point x="495.686" y="580" type="line"/>
      <point x="10" y="1448" type="line"/>
      <point x="278.546" y="1448" type="line"/>
      <point x="616.006" y="788" type="line"/>
      <point x="976.966" y="1448" type="line"/>
      <point x="1235.17" y="1448" type="line"/>
      <point x="745.686" y="582" type="line"/>
      <point x="745.686" y="0" type="line"/>
    </contour>
  </outline>
</glyph>
<glyph name="Z" format="1">
  <advance width="1255"/>
  <unicode hex="005A"/>
  <outline>
    <contour>
      <point x="100" y="0" type="line"/>
      <point x="100" y="198" type="line"/>
      <point x="860.166" y="1248" type="line"/>
      <point x="131" y="1248" type="line"/>
      <point x="131" y="1448" type="line"/>
      <point x="1154.09" y="1448" type="line"/>
      <point x="1154.09" y="1268" type="line"/>
      <point x="396.746" y="200" type="line"/>
      <point x="1146.09" y="200" type="line"/>
      <point x="1146.09" y="0" type="line"/>
    </contour>
  </outline>
</glyph>
<glyph name="backslash" format="1">
  <advance width="1219"/>
  <unicode hex="005C"/>
  <outline>
    <contour>
      <point x="782.244" y="0" type="line"/>
      <point x="203" y="1448" type="line"/>
      <point x="440" y="1448" type="line"/>
      <point x="1017.24" y="0" type="line"/>
    </contour>
  </outline>
</glyph>
<glyph name="bracketright" format="1">
  <advance width="1105"/>
  <unicode hex="005D"/>
  <outline>
    <contour>
      <point x="166" y="-232" type="line"/>
      <point x="166" y="-103" type="line"/>
      <point x="359" y="-103" type="line"/>
      <point x="359" y="1340" type="line"/>
      <point x="167" y="1340" type="line"/>
      <point x="167" y="1470" type="line"/>
      <point x="617" y="1470" type="line"/>
      <point x="617" y="-232" type="line"/>
    </contour>
  </outline>
</glyph>
<glyph name="asciicircum" format="1">
  <advance width="1199"/>
  <unicode hex="005E"/>
  <outline>
    <contour>
      <point x="95" y="570" type="line"/>
      <point x="551.324" y="1448" type="line"/>
      <point x="642.504" y="1448" type="line"/>
      <point x="1105.15" y="570" type="line"/>
      <point x="901.147" y="570" type="line"/>
      <point x="594.657" y="1176" type="line"/>
      <point x="301" y="570" type="line"/>
    </contour>
  </outline>
</glyph>
<glyph name="underscore" format="1">
  <advance width="947"/>
  <unicode hex="005F"/>
  <outline>
    <contour>
      <point x="-10" y="-481" type="line"/>
      <point x="-10" y="-353" type="line"/>
      <point x="957.611" y="-353" type="line"/>
      <point x="957.611" y="-481" type="line"/>
    </contour>
  </outline>
</glyph>
<glyph name="a" format="1">
  <advance width="1265"/>
  <unicode hex="0061"/>
  <outline>
    <contour>
      <point x="524.48" y="-22" type="curve" smooth="yes"/>
      <point x="656.08" y="-22"/>
      <point x="791.54" y="55"/>
      <point x="845.54" y="160" type="curve"/>
      <point x="872.54" y="64"/>
      <point x="991.54" y="-8"/>
      <point x="1138.54" y="-8" type="curve"/>
      <point x="1217.54" y="198" type="line"/>
      <point x="1123.54" y="198"/>
      <point x="1049.54" y="255"/>
      <point x="1049.54" y="333" type="curve" smooth="yes"/>
      <point x="1049.54" y="906" type="line"/>
      <point x="953.54" y="963"/>
      <point x="788.54" y="1016"/>
      <point x="657.02" y="1016" type="curve" smooth="yes"/>
      <point x="336" y="1016"/>
      <point x="96" y="771"/>
      <point x="96" y="425" type="curve" smooth="yes"/>
      <point x="96" y="164"/>
      <point x="273" y="-22"/>
    </contour>
    <contour>
      <point x="542.34" y="174" type="curve" smooth="yes"/>
      <point x="426.72" y="174"/>
      <point x="344" y="282"/>
      <point x="344" y="434" type="curve" smooth="yes"/>
      <point x="344" y="659"/>
      <point x="469.02" y="820"/>
      <point x="644.8" y="820" type="curve" smooth="yes"/>
      <point x="699.32" y="820"/>
      <point x="766.54" y="806"/>
      <point x="807.54" y="784" type="curve"/>
      <point x="807.54" y="419" type="line" smooth="yes"/>
      <point x="807.54" y="276"/>
      <point x="696.5" y="174"/>
    </contour>
  </outline>
</glyph>
<glyph name="b" format="1">
  <advance width="1290"/>
  <unicode hex="0062"/>
  <outline>
    <contour>
      <point x="680.946" y="-22" type="curve" smooth="yes"/>
      <point x="983.585" y="-22"/>
      <point x="1194.59" y="198"/>
      <point x="1194.59" y="528" type="curve" smooth="yes"/>
      <point x="1194.59" y="821"/>
      <point x="1015.59" y="1016"/>
      <point x="754.266" y="1016" type="curve" smooth="yes"/>
      <point x="613.266" y="1016"/>
      <point x="473.206" y="947"/>
      <point x="410" y="844" type="curve"/>
      <point x="410" y="1542" type="line"/>
      <point x="168" y="1542" type="line"/>
      <point x="168" y="69" type="line"/>
      <point x="169" y="69"/>
      <point x="381" y="-22"/>
    </contour>
    <contour>
      <point x="664.966" y="174" type="curve" smooth="yes"/>
      <point x="515.506" y="174"/>
      <point x="410" y="206"/>
      <point x="410" y="206" type="curve"/>
      <point x="410" y="607" type="line"/>
      <point x="479.786" y="734"/>
      <point x="601.046" y="820"/>
      <point x="708.206" y="820" type="curve" smooth="yes"/>
      <point x="849.206" y="820"/>
      <point x="946.585" y="699"/>
      <point x="946.585" y="524" type="curve" smooth="yes"/>
      <point x="946.585" y="314"/>
      <point x="832.286" y="174"/>
    </contour>
  </outline>
</glyph>
<glyph name="c" format="1">
  <advance width="1025"/>
  <unicode hex="0063"/>
  <outline>
    <contour>
      <point x="588.608" y="-22" type="curve" smooth="yes"/>
      <point x="279" y="-22"/>
      <point x="96" y="239"/>
      <point x="96" y="499" type="curve" smooth="yes"/>
      <point x="96" y="796"/>
      <point x="315.006" y="1016"/>
      <point x="589.44" y="1016" type="curve" smooth="yes"/>
      <point x="685.951" y="1016"/>
      <point x="820.871" y="985"/>
      <point x="926.871" y="906" type="curve"/>
      <point x="855.871" y="726" type="line"/>
      <point x="756.871" y="788"/>
      <point x="671.807" y="815"/>
      <point x="604.415" y="815" type="curve" smooth="yes"/>
      <point x="443.008" y="815"/>
      <point x="344" y="672"/>
      <point x="344" y="500" type="curve" smooth="yes"/>
      <point x="344" y="329"/>
      <point x="433.856" y="174"/>
      <point x="603.583" y="174" type="curve" smooth="yes"/>
      <point x="705.919" y="174"/>
      <point x="808.871" y="229"/>
      <point x="878.871" y="290" type="curve"/>
      <point x="956.875" y="104" type="line"/>
      <point x="844.871" y="17"/>
      <point x="699.263" y="-22"/>
    </contour>
  </outline>
</glyph>
<glyph name="d" format="1">
  <advance width="1244"/>
  <unicode hex="0064"/>
  <outline>
    <contour>
      <point x="344" y="446" type="curve" smooth="yes"/>
      <point x="344" y="726"/>
      <point x="518.84" y="820"/>
      <point x="678.64" y="820" type="curve" smooth="yes"/>
      <point x="729.4" y="820"/>
      <point x="779.568" y="811"/>
      <point x="824.568" y="798" type="curve"/>
      <point x="824.568" y="518" type="line" smooth="yes"/>
      <point x="824.568" y="289"/>
      <point x="687.1" y="174"/>
      <point x="560.2" y="174" type="curve" smooth="yes"/>
      <point x="449.28" y="174"/>
      <point x="344" y="264"/>
    </contour>
    <contour>
      <point x="840.568" y="145" type="curve"/>
      <point x="850.568" y="101"/>
      <point x="878.568" y="39"/>
      <point x="912.568" y="-14" type="curve"/>
      <point x="1144.57" y="29" type="line"/>
      <point x="1097.57" y="96"/>
      <point x="1068.57" y="241"/>
      <point x="1068.57" y="389" type="curve" smooth="yes"/>
      <point x="1068.57" y="1542" type="line"/>
      <point x="824.568" y="1542" type="line"/>
      <point x="824.568" y="990" type="line"/>
      <point x="765.12" y="1007"/>
      <point x="705.9" y="1016"/>
      <point x="646.68" y="1016" type="curve" smooth="yes"/>
      <point x="381.6" y="1016"/>
      <point x="96" y="831"/>
      <point x="96" y="440" type="curve" smooth="yes"/>
      <point x="96" y="115"/>
      <point x="320" y="-22"/>
      <point x="521.66" y="-22" type="curve" smooth="yes"/>
      <point x="654.2" y="-22"/>
      <point x="769.82" y="36"/>
    </contour>
  </outline>
</glyph>
<glyph name="e" format="1">
  <advance width="1094"/>
  <unicode hex="0065"/>
  <outline>
    <contour>
      <point x="336" y="473" type="curve"/>
      <point x="336" y="488" type="line" smooth="yes"/>
      <point x="336" y="670"/>
      <point x="450.68" y="835"/>
      <point x="609.54" y="835" type="curve" smooth="yes"/>
      <point x="690.38" y="835"/>
      <point x="739.942" y="787"/>
      <point x="739.942" y="722" type="curve" smooth="yes"/>
      <point x="739.942" y="608"/>
      <point x="674.4" y="557"/>
    </contour>
    <contour>
      <point x="597.32" y="-22" type="curve" smooth="yes"/>
      <point x="728.942" y="-22"/>
      <point x="872.942" y="20"/>
      <point x="996.942" y="107" type="curve"/>
      <point x="908.942" y="275" type="line"/>
      <point x="800.942" y="204"/>
      <point x="696.02" y="173"/>
      <point x="609.54" y="173" type="curve" smooth="yes"/>
      <point x="498.62" y="173"/>
      <point x="426.24" y="225"/>
      <point x="375.48" y="309" type="curve"/>
      <point x="835.942" y="405"/>
      <point x="967.942" y="530"/>
      <point x="967.942" y="714" type="curve" smooth="yes"/>
      <point x="967.942" y="861"/>
      <point x="829.942" y="1016"/>
      <point x="599.2" y="1016" type="curve" smooth="yes"/>
      <point x="306" y="1016"/>
      <point x="96" y="750"/>
      <point x="96" y="488" type="curve" smooth="yes"/>
      <point x="96" y="147"/>
      <point x="330" y="-22"/>
    </contour>
  </outline>
</glyph>
<glyph name="f" format="1">
  <advance width="757"/>
  <unicode hex="0066"/>
  <outline>
    <contour>
      <point x="89" y="-410" type="line"/>
      <point x="358" y="-410"/>
      <point x="489.31" y="-273"/>
      <point x="489.31" y="-11" type="curve" smooth="yes"/>
      <point x="489.31" y="844" type="line"/>
      <point x="698.689" y="844" type="line"/>
      <point x="698.689" y="996" type="line"/>
      <point x="489.31" y="996" type="line"/>
      <point x="489.31" y="1152" type="line" smooth="yes"/>
      <point x="489.31" y="1320"/>
      <point x="549.689" y="1353"/>
      <point x="768.689" y="1353" type="curve"/>
      <point x="768.689" y="1542" type="line"/>
      <point x="717.689" y="1542" type="line" smooth="yes"/>
      <point x="445.074" y="1542"/>
      <point x="247" y="1477"/>
      <point x="247" y="1187" type="curve" smooth="yes"/>
      <point x="247" y="996" type="line"/>
      <point x="51" y="996" type="line"/>
      <point x="51" y="844" type="line"/>
      <point x="247" y="844" type="line"/>
      <point x="247" y="-19" type="line" smooth="yes"/>
      <point x="247" y="-155"/>
      <point x="198" y="-213"/>
      <point x="68" y="-213" type="curve"/>
    </contour>
  </outline>
</glyph>
<glyph name="g" format="1">
  <advance width="1195"/>
  <unicode hex="0067"/>
  <outline>
    <contour>
      <point x="543.28" y="-543" type="curve" smooth="yes"/>
      <point x="826.54" y="-543"/>
      <point x="1049.54" y="-363"/>
      <point x="1049.54" y="-7" type="curve" smooth="yes"/>
      <point x="1049.54" y="906" type="line"/>
      <point x="953.54" y="963"/>
      <point x="788.54" y="1016"/>
      <point x="657.02" y="1016" type="curve" smooth="yes"/>
      <point x="336" y="1016"/>
      <point x="96" y="770"/>
      <point x="96" y="424" type="curve" smooth="yes"/>
      <point x="96" y="163"/>
      <point x="273" y="-22"/>
      <point x="524.48" y="-22" type="curve" smooth="yes"/>
      <point x="624.12" y="-22"/>
      <point x="730.34" y="23"/>
      <point x="797.54" y="90" type="curve"/>
      <point x="797.54" y="-25" type="line" smooth="yes"/>
      <point x="797.54" y="-266"/>
      <point x="665.48" y="-348"/>
      <point x="519.78" y="-348" type="curve" smooth="yes"/>
      <point x="409.8" y="-348"/>
      <point x="285" y="-301"/>
      <point x="191" y="-241" type="curve"/>
      <point x="159" y="-450" type="line"/>
      <point x="297" y="-512"/>
      <point x="427.66" y="-543"/>
    </contour>
    <contour>
      <point x="542.34" y="174" type="curve" smooth="yes"/>
      <point x="426.72" y="174"/>
      <point x="344" y="282"/>
      <point x="344" y="434" type="curve" smooth="yes"/>
      <point x="344" y="659"/>
      <point x="469.02" y="820"/>
      <point x="644.8" y="820" type="curve" smooth="yes"/>
      <point x="699.32" y="820"/>
      <point x="766.54" y="809"/>
      <point x="807.54" y="787" type="curve"/>
      <point x="807.54" y="419" type="line" smooth="yes"/>
      <point x="807.54" y="276"/>
      <point x="696.5" y="174"/>
    </contour>
  </outline>
</glyph>
<glyph name="h" format="1">
  <advance width="1278"/>
  <unicode hex="0068"/>
  <outline>
    <contour>
      <point x="1206.76" y="-16" type="line"/>
      <point x="1240.76" y="177" type="line"/>
      <point x="1218.76" y="177" type="line" smooth="yes"/>
      <point x="1111.76" y="177"/>
      <point x="1082.76" y="224"/>
      <point x="1082.76" y="352" type="curve" smooth="yes"/>
      <point x="1082.76" y="572" type="line" smooth="yes"/>
      <point x="1082.76" y="839"/>
      <point x="923.76" y="1016"/>
      <point x="691.3" y="1016" type="curve" smooth="yes"/>
      <point x="596.36" y="1016"/>
      <point x="494.84" y="977"/>
      <point x="414" y="904" type="curve"/>
      <point x="414" y="1542" type="line"/>
      <point x="172" y="1542" type="line"/>
      <point x="172" y="0" type="line"/>
      <point x="414" y="0" type="line"/>
      <point x="414" y="568" type="line" smooth="yes"/>
      <point x="414" y="686"/>
      <point x="477.92" y="804"/>
      <point x="646.18" y="804" type="curve" smooth="yes"/>
      <point x="779.66" y="804"/>
      <point x="840.76" y="702"/>
      <point x="840.76" y="549" type="curve" smooth="yes"/>
      <point x="840.76" y="298" type="line" smooth="yes"/>
      <point x="840.76" y="88"/>
      <point x="926.76" y="-16"/>
      <point x="1161.76" y="-16" type="curve" smooth="yes"/>
    </contour>
  </outline>
</glyph>
<glyph name="k" format="1">
  <advance width="1190"/>
  <unicode hex="006B"/>
  <outline>
    <contour>
      <point x="1187.55" y="192" type="line"/>
      <point x="1074.55" y="162"/>
      <point x="1058.55" y="152"/>
      <point x="952.551" y="287" type="curve" smooth="yes"/>
      <point x="776.126" y="524" type="line"/>
      <point x="1065.55" y="926" type="line"/>
      <point x="840.046" y="987" type="line"/>
      <point x="414" y="389" type="line"/>
      <point x="414" y="1542" type="line"/>
      <point x="172" y="1542" type="line"/>
      <point x="172" y="100" type="line" smooth="yes"/>
      <point x="172" y="-29"/>
      <point x="318" y="-70"/>
      <point x="399" y="33" type="curve"/>
      <point x="635.126" y="340" type="line"/>
      <point x="794.926" y="120" type="line" smooth="yes"/>
      <point x="914.306" y="-45"/>
      <point x="1032.55" y="-45"/>
      <point x="1150.55" y="0" type="curve"/>
    </contour>
  </outline>
</glyph>
<glyph name="l" format="1">
  <advance width="751"/>
  <unicode hex="006C"/>
  <outline>
    <contour>
      <point x="738" y="218" type="line"/>
      <point x="691" y="203"/>
      <point x="615" y="191"/>
      <point x="570" y="191" type="curve" smooth="yes"/>
      <point x="474" y="191"/>
      <point x="414" y="241"/>
      <point x="414" y="353" type="curve" smooth="yes"/>
      <point x="414" y="1542" type="line"/>
      <point x="172" y="1542" type="line"/>
      <point x="172" y="301" type="line" smooth="yes"/>
      <point x="172" y="83"/>
      <point x="316" y="-11"/>
      <point x="516" y="-11" type="curve" smooth="yes"/>
      <point x="593" y="-11"/>
      <point x="676" y="4"/>
      <point x="763" y="28" type="curve"/>
    </contour>
  </outline>
</glyph>
<glyph name="m" format="1">
  <advance width="1922"/>
  <unicode hex="006D"/>
  <outline>
    <contour>
      <point x="1850.72" y="-17" type="line"/>
      <point x="1884.72" y="177" type="line"/>
      <point x="1863.72" y="177" type="line" smooth="yes"/>
      <point x="1749.72" y="177"/>
      <point x="1726.72" y="237"/>
      <point x="1726.72" y="357" type="curve" smooth="yes"/>
      <point x="1726.72" y="572" type="line" smooth="yes"/>
      <point x="1726.72" y="839"/>
      <point x="1583.72" y="1016"/>
      <point x="1345.16" y="1016" type="curve" smooth="yes"/>
      <point x="1249.28" y="1016"/>
      <point x="1101.7" y="972"/>
      <point x="1019.35" y="826" type="curve"/>
      <point x="971.348" y="928"/>
      <point x="873.348" y="1016"/>
      <point x="722.46" y="1016" type="curve" smooth="yes"/>
      <point x="593.68" y="1016"/>
      <point x="452.68" y="940"/>
      <point x="391" y="824" type="curve"/>
      <point x="378" y="873"/>
      <point x="329" y="957"/>
      <point x="291" y="985" type="curve"/>
      <point x="64" y="896" type="line"/>
      <point x="159" y="817"/>
      <point x="190" y="701"/>
      <point x="190" y="600" type="curve" smooth="yes"/>
      <point x="190" y="0" type="line"/>
      <point x="432" y="0" type="line"/>
      <point x="432" y="534" type="line" smooth="yes"/>
      <point x="432" y="690"/>
      <point x="519.42" y="804"/>
      <point x="648.2" y="804" type="curve" smooth="yes"/>
      <point x="761" y="804"/>
      <point x="846.348" y="722"/>
      <point x="846.348" y="549" type="curve" smooth="yes"/>
      <point x="843.72" y="0" type="line"/>
      <point x="1085.72" y="0" type="line"/>
      <point x="1085.72" y="557" type="line" smooth="yes"/>
      <point x="1085.72" y="705"/>
      <point x="1180.66" y="804"/>
      <point x="1288.76" y="804" type="curve" smooth="yes"/>
      <point x="1421.72" y="804"/>
      <point x="1484.72" y="702"/>
      <point x="1484.72" y="549" type="curve" smooth="yes"/>
      <point x="1484.72" y="318" type="line" smooth="yes"/>
      <point x="1484.72" y="96"/>
      <point x="1552.72" y="-17"/>
      <point x="1835.72" y="-17" type="curve" smooth="yes"/>
    </contour>
  </outline>
</glyph>
<glyph name="n" format="1">
  <advance width="1258"/>
  <unicode hex="006E"/>
  <outline>
    <contour>
      <point x="1221.67" y="177" type="line"/>
      <point x="1182.67" y="177" type="line" smooth="yes"/>
      <point x="1095.67" y="177"/>
      <point x="1063.67" y="236"/>
      <point x="1063.67" y="345" type="curve" smooth="yes"/>
      <point x="1063.67" y="572" type="line" smooth="yes"/>
      <point x="1063.67" y="839"/>
      <point x="924.723" y="1016"/>
      <point x="695.902" y="1016" type="curve" smooth="yes"/>
      <point x="581.25" y="1016"/>
      <point x="457.569" y="941"/>
      <point x="394" y="823" type="curve"/>
      <point x="382" y="869"/>
      <point x="338" y="948"/>
      <point x="290" y="985" type="curve"/>
      <point x="64" y="896" type="line"/>
      <point x="151" y="819"/>
      <point x="193" y="723"/>
      <point x="193" y="602" type="curve" smooth="yes"/>
      <point x="193" y="0" type="line"/>
      <point x="435" y="0" type="line"/>
      <point x="435" y="542" type="line" smooth="yes"/>
      <point x="435" y="698"/>
      <point x="537.014" y="804"/>
      <point x="642.638" y="804" type="curve" smooth="yes"/>
      <point x="750.972" y="804"/>
      <point x="827" y="702"/>
      <point x="827" y="549" type="curve" smooth="yes"/>
      <point x="827" y="328" type="line" smooth="yes"/>
      <point x="827" y="81"/>
      <point x="908.063" y="-17"/>
      <point x="1143.67" y="-17" type="curve" smooth="yes"/>
      <point x="1187.67" y="-17" type="line"/>
    </contour>
  </outline>
</glyph>
<glyph name="o" format="1">
  <advance width="1214"/>
  <unicode hex="006F"/>
  <outline>
    <contour>
      <point x="607.2" y="174" type="curve" smooth="yes"/>
      <point x="766.06" y="174"/>
      <point x="870.922" y="303"/>
      <point x="870.922" y="496" type="curve" smooth="yes"/>
      <point x="870.922" y="689"/>
      <point x="765.12" y="820"/>
      <point x="605.32" y="820" type="curve" smooth="yes"/>
      <point x="446.46" y="820"/>
      <point x="344" y="689"/>
      <point x="344" y="496" type="curve" smooth="yes"/>
      <point x="344" y="303"/>
      <point x="447.4" y="174"/>
    </contour>
    <contour>
      <point x="605.32" y="-22" type="curve" smooth="yes"/>
      <point x="314" y="-22"/>
      <point x="96" y="185"/>
      <point x="96" y="496" type="curve" smooth="yes"/>
      <point x="96" y="808"/>
      <point x="313" y="1016"/>
      <point x="604.38" y="1016" type="curve" smooth="yes"/>
      <point x="899.922" y="1016"/>
      <point x="1118.92" y="810"/>
      <point x="1118.92" y="497" type="curve" smooth="yes"/>
      <point x="1118.92" y="186"/>
      <point x="901.922" y="-22"/>
    </contour>
  </outline>
</glyph>
<glyph name="p" format="1">
  <advance width="1307"/>
  <unicode hex="0070"/>
  <outline>
    <contour>
      <point x="182" y="-496" type="line"/>
      <point x="424" y="-496" type="line"/>
      <point x="424" y="5" type="line"/>
      <point x="487.79" y="-13.1241"/>
      <point x="554.009" y="-21.9788"/>
      <point x="619.827" y="-21.9788" type="curve" smooth="yes"/>
      <point x="928.051" y="-21.9788"/>
      <point x="1211.54" y="178"/>
      <point x="1211.54" y="524" type="curve" smooth="yes"/>
      <point x="1211.54" y="886"/>
      <point x="989.319" y="1016.86"/>
      <point x="768.934" y="1016.86" type="curve" smooth="yes"/>
      <point x="590.806" y="1016.86"/>
      <point x="449.44" y="936"/>
      <point x="383" y="824" type="curve"/>
      <point x="360" y="897"/>
      <point x="325" y="942"/>
      <point x="279" y="985" type="curve"/>
      <point x="57" y="896" type="line"/>
      <point x="94" y="860"/>
      <point x="182" y="780"/>
      <point x="182" y="610" type="curve" smooth="yes"/>
    </contour>
    <contour>
      <point x="424" y="197" type="curve"/>
      <point x="424" y="470" type="line" smooth="yes"/>
      <point x="424" y="708.804"/>
      <point x="577.563" y="819.827"/>
      <point x="720.839" y="819.827" type="curve" smooth="yes"/>
      <point x="846.123" y="819.827"/>
      <point x="963.54" y="732.174"/>
      <point x="963.54" y="522" type="curve" smooth="yes"/>
      <point x="963.54" y="286.37"/>
      <point x="779.563" y="173.769"/>
      <point x="580.899" y="173.769" type="curve" smooth="yes"/>
      <point x="528.587" y="173.769"/>
      <point x="475.257" y="181.576"/>
    </contour>
  </outline>
</glyph>
<glyph name="q" format="1">
  <advance width="1342"/>
  <unicode hex="0071"/>
  <outline>
    <contour>
      <point x="1113.1" y="-629" type="curve" smooth="yes"/>
      <point x="1476.1" y="-439" type="line"/>
      <point x="1383.1" y="-250" type="line"/>
      <point x="1117.1" y="-384" type="line"/>
      <point x="1117.1" y="610" type="line"/>
      <point x="1117.1" y="996" type="line"/>
      <point x="910.1" y="996" type="line"/>
      <point x="905.1" y="903" type="line"/>
      <point x="905.1" y="903"/>
      <point x="811.18" y="1016"/>
      <point x="590.28" y="1016" type="curve" smooth="yes"/>
      <point x="307" y="1016"/>
      <point x="96" y="795"/>
      <point x="96" y="485" type="curve" smooth="yes"/>
      <point x="96" y="171"/>
      <point x="302" y="-22"/>
      <point x="566.78" y="-22" type="curve" smooth="yes"/>
      <point x="688.04" y="-22"/>
      <point x="801.78" y="19"/>
      <point x="875.1" y="115" type="curve"/>
      <point x="875.1" y="-496" type="line" smooth="yes"/>
      <point x="875.1" y="-574"/>
      <point x="946.1" y="-717"/>
    </contour>
    <contour>
      <point x="591.22" y="175" type="curve" smooth="yes"/>
      <point x="434.24" y="175"/>
      <point x="344" y="299"/>
      <point x="344" y="491" type="curve" smooth="yes"/>
      <point x="344" y="685"/>
      <point x="458.68" y="820"/>
      <point x="623.18" y="820" type="curve" smooth="yes"/>
      <point x="730.34" y="820"/>
      <point x="834.68" y="776"/>
      <point x="875.1" y="712" type="curve"/>
      <point x="875.1" y="531" type="line" smooth="yes"/>
      <point x="875.1" y="277"/>
      <point x="756.66" y="175"/>
    </contour>
  </outline>
</glyph>
<glyph name="r" format="1">
  <advance width="879"/>
  <unicode hex="0072"/>
  <outline>
    <contour>
      <point x="195" y="0" type="line"/>
      <point x="195" y="611" type="line" smooth="yes"/>
      <point x="195" y="760"/>
      <point x="115" y="857"/>
      <point x="66" y="896" type="curve"/>
      <point x="292" y="985" type="line"/>
      <point x="331" y="947"/>
      <point x="367" y="911"/>
      <point x="396" y="823" type="curve"/>
      <point x="456.74" y="952"/>
      <point x="580.166" y="1015"/>
      <point x="688.166" y="1015" type="curve" smooth="yes"/>
      <point x="768.166" y="1015"/>
      <point x="786.166" y="1002"/>
      <point x="821.166" y="993" type="curve"/>
      <point x="803.166" y="774" type="line"/>
      <point x="759.166" y="785"/>
      <point x="722.166" y="790"/>
      <point x="687.166" y="790" type="curve" smooth="yes"/>
      <point x="492.46" y="790"/>
      <point x="437" y="607"/>
      <point x="437" y="525" type="curve" smooth="yes"/>
      <point x="437" y="0" type="line"/>
    </contour>
  </outline>
</glyph>
<glyph name="s" format="1">
  <advance width="933"/>
  <unicode hex="0073"/>
  <outline>
    <contour>
      <point x="488.186" y="-22" type="curve" smooth="yes"/>
      <point x="328" y="-22"/>
      <point x="192" y="34"/>
      <point x="131" y="67" type="curve"/>
      <point x="183" y="242" type="line"/>
      <point x="218" y="224"/>
      <point x="346" y="168"/>
      <point x="488.186" y="168" type="curve" smooth="yes"/>
      <point x="590.646" y="168"/>
      <point x="624.185" y="218"/>
      <point x="624.185" y="275" type="curve" smooth="yes"/>
      <point x="624.185" y="352"/>
      <point x="574.666" y="363"/>
      <point x="408.34" y="421" type="curve"/>
      <point x="188" y="493"/>
      <point x="120" y="574"/>
      <point x="120" y="718" type="curve" smooth="yes"/>
      <point x="120" y="846"/>
      <point x="191" y="1016"/>
      <point x="465.68" y="1016" type="curve" smooth="yes"/>
      <point x="654.206" y="1016"/>
      <point x="771.206" y="954"/>
      <point x="798.206" y="939" type="curve"/>
      <point x="756.206" y="778" type="line"/>
      <point x="714.206" y="798"/>
      <point x="600.206" y="832"/>
      <point x="501.4" y="832" type="curve" smooth="yes"/>
      <point x="402.7" y="832"/>
      <point x="351" y="799"/>
      <point x="351" y="737" type="curve" smooth="yes"/>
      <point x="351" y="679"/>
      <point x="396.12" y="648"/>
      <point x="531.48" y="605" type="curve"/>
      <point x="759.206" y="534"/>
      <point x="844.206" y="469"/>
      <point x="845.185" y="304" type="curve" smooth="yes"/>
      <point x="845.185" y="107"/>
      <point x="728.185" y="-22"/>
    </contour>
  </outline>
</glyph>
<glyph name="t" format="1">
  <advance width="863"/>
  <unicode hex="0074"/>
  <outline>
    <contour>
      <point x="556.484" y="-16" type="curve" smooth="yes"/>
      <point x="633.409" y="-16"/>
      <point x="716.409" y="-1"/>
      <point x="803.409" y="23" type="curve"/>
      <point x="778.409" y="213" type="line"/>
      <point x="732.409" y="198"/>
      <point x="656.409" y="186"/>
      <point x="610.409" y="186" type="curve" smooth="yes"/>
      <point x="517.004" y="186"/>
      <point x="460.604" y="236"/>
      <point x="460.604" y="348" type="curve" smooth="yes"/>
      <point x="456.784" y="820" type="line"/>
      <point x="735.409" y="820" type="line"/>
      <point x="735.409" y="996" type="line"/>
      <point x="456.784" y="996" type="line"/>
      <point x="456.784" y="1338" type="line"/>
      <point x="219" y="1309" type="line"/>
      <point x="219" y="996" type="line"/>
      <point x="32" y="996" type="line"/>
      <point x="32" y="820" type="line"/>
      <point x="219" y="820" type="line"/>
      <point x="219" y="296" type="line" smooth="yes"/>
      <point x="219" y="78"/>
      <point x="365" y="-16"/>
    </contour>
  </outline>
</glyph>
<glyph name="u" format="1">
  <advance width="1273"/>
  <unicode hex="0075"/>
  <outline>
    <contour>
      <point x="530.38" y="-22" type="curve" smooth="yes"/>
      <point x="685.48" y="-22"/>
      <point x="806.402" y="47"/>
      <point x="865.402" y="174" type="curve"/>
      <point x="888.402" y="78"/>
      <point x="1008.4" y="-4"/>
      <point x="1170.4" y="-4" type="curve"/>
      <point x="1205.4" y="191" type="line"/>
      <point x="1126.4" y="191"/>
      <point x="1066.4" y="207"/>
      <point x="1066.4" y="323" type="curve" smooth="yes"/>
      <point x="1066.4" y="996" type="line"/>
      <point x="824.402" y="996" type="line"/>
      <point x="824.402" y="450" type="line" smooth="yes"/>
      <point x="824.402" y="268"/>
      <point x="727.78" y="170"/>
      <point x="572.68" y="170" type="curve" smooth="yes"/>
      <point x="459.88" y="170"/>
      <point x="408" y="255"/>
      <point x="411" y="381" type="curve"/>
      <point x="411" y="577" type="line"/>
      <point x="418.52" y="884"/>
      <point x="374" y="996"/>
      <point x="374" y="996" type="curve"/>
      <point x="126" y="969" type="line"/>
      <point x="126" y="969"/>
      <point x="168" y="844"/>
      <point x="163" y="564" type="curve"/>
      <point x="163" y="354" type="line"/>
      <point x="159" y="129"/>
      <point x="302" y="-22"/>
    </contour>
  </outline>
</glyph>
<glyph name="v" format="1">
  <advance width="1075"/>
  <unicode hex="0076"/>
  <outline>
    <contour>
      <point x="450.586" y="0" type="line"/>
      <point x="26" y="996" type="line"/>
      <point x="279.506" y="996" type="line"/>
      <point x="490.066" y="484" type="line"/>
      <point x="548.586" y="325" type="line"/>
      <point x="594.406" y="484" type="line"/>
      <point x="800.266" y="996" type="line"/>
      <point x="1049.07" y="996" type="line"/>
      <point x="652.586" y="0" type="line"/>
    </contour>
  </outline>
</glyph>
<glyph name="w" format="1">
  <advance width="1640"/>
  <unicode hex="0077"/>
  <outline>
    <contour>
      <point x="412" y="0" type="line"/>
      <point x="615" y="0" type="line"/>
      <point x="823.68" y="582" type="line"/>
      <point x="1041.76" y="0" type="line"/>
      <point x="1244.76" y="0" type="line"/>
      <point x="1624.76" y="996" type="line"/>
      <point x="1376.76" y="996" type="line"/>
      <point x="1195.76" y="484" type="line"/>
      <point x="1141.76" y="325" type="line"/>
      <point x="1084.76" y="484" type="line"/>
      <point x="906.4" y="965" type="line"/>
      <point x="727.8" y="965" type="line"/>
      <point x="566" y="484" type="line"/>
      <point x="511" y="325" type="line"/>
      <point x="455" y="484" type="line"/>
      <point x="270" y="996" type="line"/>
      <point x="16" y="996" type="line"/>
    </contour>
  </outline>
</glyph>
<glyph name="x" format="1">
  <advance width="1109"/>
  <unicode hex="0078"/>
  <outline>
    <contour>
      <point x="18" y="0" type="line"/>
      <point x="417.48" y="519" type="line"/>
      <point x="63" y="996" type="line"/>
      <point x="350.74" y="996" type="line"/>
      <point x="579.16" y="681" type="line"/>
      <point x="795.78" y="996" type="line"/>
      <point x="1074.78" y="996" type="line"/>
      <point x="707.94" y="504" type="line"/>
      <point x="1091.78" y="0" type="line"/>
      <point x="788.78" y="0" type="line"/>
      <point x="541.56" y="345" type="line"/>
      <point x="284" y="0" type="line"/>
    </contour>
  </outline>
</glyph>
<glyph name="y" format="1">
  <advance width="1244"/>
  <unicode hex="0079"/>
  <outline>
    <contour>
      <point x="545.3" y="-542" type="curve" smooth="yes"/>
      <point x="822.808" y="-542"/>
      <point x="1073.81" y="-401"/>
      <point x="1074.81" y="-6" type="curve"/>
      <point x="1074.81" y="996" type="line"/>
      <point x="832.808" y="996" type="line"/>
      <point x="832.808" y="473" type="line" smooth="yes"/>
      <point x="832.808" y="270"/>
      <point x="758.68" y="170"/>
      <point x="594.18" y="170" type="curve" smooth="yes"/>
      <point x="475.74" y="170"/>
      <point x="406" y="247"/>
      <point x="409" y="381" type="curve"/>
      <point x="409" y="577" type="line"/>
      <point x="414.64" y="884"/>
      <point x="375" y="996"/>
      <point x="375" y="996" type="curve"/>
      <point x="130" y="969" type="line"/>
      <point x="130" y="969"/>
      <point x="167" y="844"/>
      <point x="167" y="564" type="curve" smooth="yes"/>
      <point x="167" y="355" type="line" smooth="yes"/>
      <point x="167" y="130"/>
      <point x="314" y="-22"/>
      <point x="548.12" y="-22" type="curve" smooth="yes"/>
      <point x="665.62" y="-22"/>
      <point x="769.96" y="19"/>
      <point x="838.808" y="119" type="curve"/>
      <point x="835.808" y="-44" type="line"/>
      <point x="835.808" y="-283"/>
      <point x="653.4" y="-335"/>
      <point x="525.56" y="-335" type="curve" smooth="yes"/>
      <point x="436.26" y="-335"/>
      <point x="314" y="-303"/>
      <point x="227" y="-259" type="curve"/>
      <point x="181" y="-459" type="line"/>
      <point x="297" y="-513"/>
      <point x="426.86" y="-542"/>
    </contour>
  </outline>
</glyph>
<glyph name="z" format="1">
  <advance width="1014"/>
  <unicode hex="007A"/>
  <outline>
    <contour>
      <point x="128" y="0" type="line"/>
      <point x="128" y="155" type="line"/>
      <point x="615.566" y="825" type="line"/>
      <point x="134" y="825" type="line"/>
      <point x="134" y="996" type="line"/>
      <point x="906.291" y="996" type="line"/>
      <point x="906.291" y="843" type="line"/>
      <point x="425.686" y="185" type="line"/>
      <point x="928.291" y="185" type="line"/>
      <point x="928.291" y="0" type="line"/>
    </contour>
  </outline>
</glyph>
<glyph name="bar" format="1">
  <advance width="881"/>
  <unicode hex="007C"/>
  <outline>
    <contour>
      <point x="348" y="-409" type="line"/>
      <point x="348" y="1526" type="line"/>
      <point x="533" y="1526" type="line"/>
      <point x="533" y="-409" type="line"/>
    </contour>
  </outline>
</glyph>
<glyph name="braceright" format="1">
  <advance width="963"/>
  <unicode hex="007D"/>
  <outline>
    <contour>
      <point x="180" y="-326" type="line"/>
      <point x="398" y="-317"/>
      <point x="558" y="-237"/>
      <point x="559" y="-8" type="curve" smooth="yes"/>
      <point x="561" y="335" type="line" smooth="yes"/>
      <point x="562" y="455"/>
      <point x="624" y="524"/>
      <point x="743" y="536" type="curve"/>
      <point x="745" y="678" type="line"/>
      <point x="604" y="691"/>
      <point x="559" y="799"/>
      <point x="559" y="954" type="curve" smooth="yes"/>
      <point x="559" y="1190" type="line" smooth="yes"/>
      <point x="559" y="1440"/>
      <point x="432" y="1552"/>
      <point x="180" y="1552" type="curve"/>
      <point x="180" y="1404" type="line"/>
      <point x="312" y="1400"/>
      <point x="365" y="1343"/>
      <point x="365" y="1207" type="curve" smooth="yes"/>
      <point x="365" y="928" type="line" smooth="yes"/>
      <point x="365" y="772"/>
      <point x="430" y="659"/>
      <point x="530" y="607" type="curve"/>
      <point x="422" y="556"/>
      <point x="369" y="443"/>
      <point x="369" y="290" type="curve" smooth="yes"/>
      <point x="369" y="103" type="line" smooth="yes"/>
      <point x="369" y="-107"/>
      <point x="340" y="-178"/>
      <point x="180" y="-178" type="curve"/>
    </contour>
  </outline>
</glyph>
<glyph name="asciitilde" format="1">
  <advance width="1678"/>
  <unicode hex="007E"/>
  <outline>
    <contour>
      <point x="374" y="678" type="line"/>
      <point x="397.5" y="784"/>
      <point x="461.42" y="896"/>
      <point x="583.62" y="896" type="curve" smooth="yes"/>
      <point x="606.18" y="896"/>
      <point x="632.5" y="891"/>
      <point x="660.7" y="882" type="curve" smooth="yes"/>
      <point x="755.64" y="850"/>
      <point x="844.94" y="797"/>
      <point x="932.36" y="757" type="curve" smooth="yes"/>
      <point x="978.42" y="735"/>
      <point x="1035.76" y="708"/>
      <point x="1093.1" y="708" type="curve" smooth="yes"/>
      <point x="1137.28" y="708"/>
      <point x="1176.76" y="715"/>
      <point x="1214.67" y="731" type="curve" smooth="yes"/>
      <point x="1334.67" y="782"/>
      <point x="1406.67" y="890"/>
      <point x="1439.67" y="1029" type="curve"/>
      <point x="1292.67" y="1075" type="line"/>
      <point x="1270.67" y="979"/>
      <point x="1205.67" y="866"/>
      <point x="1094.98" y="866" type="curve" smooth="yes"/>
      <point x="1077.12" y="866"/>
      <point x="1056.44" y="871"/>
      <point x="1032" y="880" type="curve" smooth="yes"/>
      <point x="942.7" y="915"/>
      <point x="854.34" y="967"/>
      <point x="765.04" y="1005" type="curve"/>
      <point x="710.52" y="1027"/>
      <point x="647.54" y="1054"/>
      <point x="580.8" y="1054" type="curve" smooth="yes"/>
      <point x="533.8" y="1054"/>
      <point x="492.44" y="1046"/>
      <point x="454.84" y="1028" type="curve" smooth="yes"/>
      <point x="346" y="979"/>
      <point x="267" y="875"/>
      <point x="239" y="742" type="curve"/>
    </contour>
  </outline>
</glyph>
<glyph name="sterling" format="1">
  <advance width="2065"/>
  <unicode hex="00A3"/>
  <outline>
    <contour>
      <point x="202" y="0" type="line"/>
      <point x="1307.55" y="0" type="line"/>
      <point x="1307.55" y="166" type="line"/>
      <point x="501" y="166" type="line"/>
      <point x="520" y="181"/>
      <point x="537" y="200"/>
      <point x="550" y="228" type="curve" smooth="yes"/>
      <point x="614" y="359"/>
      <point x="616" y="558"/>
      <point x="616" y="752" type="curve" smooth="yes"/>
      <point x="616" y="810" type="line"/>
      <point x="980.72" y="810" type="line"/>
      <point x="980.72" y="977" type="line"/>
      <point x="614" y="977" type="line"/>
      <point x="611" y="1112" type="line"/>
      <point x="611" y="1357"/>
      <point x="682.74" y="1535"/>
      <point x="912.1" y="1535" type="curve" smooth="yes"/>
      <point x="1035.24" y="1535"/>
      <point x="1141.55" y="1503"/>
      <point x="1223.55" y="1453" type="curve"/>
      <point x="1285.55" y="1594" type="line"/>
      <point x="1194.55" y="1665"/>
      <point x="1067.55" y="1700"/>
      <point x="908.34" y="1700" type="curve" smooth="yes"/>
      <point x="512" y="1700"/>
      <point x="412" y="1421"/>
      <point x="412" y="1010" type="curve" smooth="yes"/>
      <point x="412" y="999"/>
      <point x="413" y="988"/>
      <point x="415" y="977" type="curve"/>
      <point x="200" y="977" type="line"/>
      <point x="200" y="810" type="line"/>
      <point x="415" y="810" type="line"/>
      <point x="415" y="517" type="line" smooth="yes"/>
      <point x="415" y="319"/>
      <point x="322" y="234"/>
      <point x="200" y="163" type="curve"/>
    </contour>
  </outline>
</glyph>
<glyph name="currency" format="1">
  <advance width="1213"/>
  <unicode hex="00A4"/>
  <outline>
    <contour>
      <point x="1085.64" y="361" type="line"/>
      <point x="890.4" y="550" type="line"/>
      <point x="814.26" y="479"/>
      <point x="713.68" y="436"/>
      <point x="603.7" y="436" type="curve" smooth="yes"/>
      <point x="501.24" y="436"/>
      <point x="405.36" y="475"/>
      <point x="330.16" y="540" type="curve"/>
      <point x="145" y="343" type="line"/>
      <point x="103" y="387" type="line"/>
      <point x="288.8" y="581" type="line"/>
      <point x="213" y="662"/>
      <point x="165" y="772"/>
      <point x="165" y="891" type="curve" smooth="yes"/>
      <point x="165" y="1000"/>
      <point x="208" y="1101"/>
      <point x="275.64" y="1180" type="curve"/>
      <point x="85" y="1365" type="line"/>
      <point x="130" y="1410" type="line"/>
      <point x="317.94" y="1226" type="line"/>
      <point x="397.84" y="1302"/>
      <point x="504.06" y="1348"/>
      <point x="614.98" y="1345" type="curve" smooth="yes"/>
      <point x="716.5" y="1342"/>
      <point x="809.56" y="1301"/>
      <point x="881.94" y="1236" type="curve"/>
      <point x="1063.64" y="1429" type="line"/>
      <point x="1111.64" y="1384" type="line"/>
      <point x="925.18" y="1191" type="line"/>
      <point x="999.64" y="1108"/>
      <point x="1044.64" y="998"/>
      <point x="1041.64" y="879" type="curve" smooth="yes"/>
      <point x="1038.64" y="769"/>
      <point x="998.64" y="670"/>
      <point x="931.76" y="593" type="curve"/>
      <point x="1128.64" y="403" type="line"/>
    </contour>
    <contour>
      <point x="600.88" y="526" type="curve" smooth="yes"/>
      <point x="787.94" y="526"/>
      <point x="928.94" y="680"/>
      <point x="933.64" y="879" type="curve" smooth="yes"/>
      <point x="937.64" y="1077"/>
      <point x="796.4" y="1243"/>
      <point x="610.28" y="1247" type="curve" smooth="yes"/>
      <point x="423.22" y="1252"/>
      <point x="270" y="1086"/>
      <point x="270" y="888" type="curve" smooth="yes"/>
      <point x="270" y="688"/>
      <point x="414.76" y="526"/>
    </contour>
  </outline>
</glyph>
<glyph name="yen" format="1">
  <advance width="1258"/>
  <unicode hex="00A5"/>
  <outline>
    <component base="Y"/>
    <contour>
      <point x="1125.07" y="283" type="line"/>
      <point x="1125.07" y="422" type="line"/>
      <point x="712.706" y="422" type="line"/>
      <point x="712.706" y="608" type="line"/>
      <point x="1121.07" y="608" type="line"/>
      <point x="1121.07" y="750" type="line"/>
      <point x="102" y="750" type="line"/>
      <point x="102" y="608" type="line"/>
      <point x="523.766" y="608" type="line"/>
      <point x="523.766" y="422" type="line"/>
      <point x="109" y="422" type="line"/>
      <point x="109" y="283" type="line"/>
    </contour>
  </outline>
</glyph>
<glyph name="section" format="1">
  <advance width="1887"/>
  <unicode hex="00A7"/>
  <outline>
    <contour>
      <point x="660.291" y="-84" type="curve" smooth="yes"/>
      <point x="780.361" y="-84"/>
      <point x="886.888" y="-49"/>
      <point x="964.61" y="7" type="curve" smooth="yes"/>
      <point x="1041.61" y="61"/>
      <point x="1109.61" y="143"/>
      <point x="1109.61" y="267" type="curve" smooth="yes"/>
      <point x="1109.61" y="415"/>
      <point x="1017.61" y="485"/>
      <point x="918.485" y="536" type="curve"/>
      <point x="1015.61" y="595"/>
      <point x="1135.61" y="684"/>
      <point x="1135.61" y="837" type="curve" smooth="yes"/>
      <point x="1135.61" y="878"/>
      <point x="1125.61" y="916"/>
      <point x="1106.61" y="949" type="curve" smooth="yes"/>
      <point x="1019.61" y="1096"/>
      <point x="824.597" y="1148"/>
      <point x="686.472" y="1231" type="curve" smooth="yes"/>
      <point x="625.083" y="1269"/>
      <point x="566.403" y="1311"/>
      <point x="566.403" y="1406" type="curve" smooth="yes"/>
      <point x="566.403" y="1532"/>
      <point x="679.25" y="1564"/>
      <point x="793.902" y="1564" type="curve" smooth="yes"/>
      <point x="883.277" y="1564"/>
      <point x="974.61" y="1536"/>
      <point x="1045.61" y="1503" type="curve"/>
      <point x="1042.61" y="1677" type="line"/>
      <point x="954.61" y="1704"/>
      <point x="886.888" y="1725"/>
      <point x="789.388" y="1725" type="curve" smooth="yes"/>
      <point x="576.333" y="1725"/>
      <point x="368" y="1635"/>
      <point x="368" y="1401" type="curve" smooth="yes"/>
      <point x="368" y="1251"/>
      <point x="448" y="1177"/>
      <point x="546.542" y="1117" type="curve"/>
      <point x="445" y="1065"/>
      <point x="326" y="980"/>
      <point x="326" y="828" type="curve" smooth="yes"/>
      <point x="326" y="790"/>
      <point x="333" y="755"/>
      <point x="346" y="723" type="curve" smooth="yes"/>
      <point x="391" y="614"/>
      <point x="493" y="552"/>
      <point x="596.194" y="505" type="curve" smooth="yes"/>
      <point x="685.569" y="463" type="line" smooth="yes"/>
      <point x="720.777" y="447"/>
      <point x="752.375" y="431"/>
      <point x="780.361" y="417" type="curve" smooth="yes"/>
      <point x="840.847" y="385"/>
      <point x="907.652" y="350"/>
      <point x="907.652" y="257" type="curve" smooth="yes"/>
      <point x="907.652" y="231"/>
      <point x="903.138" y="208"/>
      <point x="891.402" y="186" type="curve" smooth="yes"/>
      <point x="853.485" y="112"/>
      <point x="763.208" y="77"/>
      <point x="655.778" y="77" type="curve" smooth="yes"/>
      <point x="545.639" y="77"/>
      <point x="452" y="108"/>
      <point x="355" y="151" type="curve"/>
      <point x="358" y="-23" type="line"/>
      <point x="447" y="-59"/>
      <point x="551.958" y="-84"/>
    </contour>
    <contour>
      <point x="775.847" y="614" type="curve"/>
      <point x="739.736" y="630"/>
      <point x="707.236" y="646"/>
      <point x="677.444" y="661" type="curve" smooth="yes"/>
      <point x="609.736" y="695"/>
      <point x="533" y="739"/>
      <point x="533" y="842" type="curve" smooth="yes"/>
      <point x="533" y="948"/>
      <point x="610.639" y="1005"/>
      <point x="674.736" y="1043" type="curve"/>
      <point x="760.5" y="991"/>
      <point x="926.61" y="965"/>
      <point x="926.61" y="821" type="curve" smooth="yes"/>
      <point x="926.61" y="797"/>
      <point x="922.999" y="777"/>
      <point x="913.971" y="756" type="curve" smooth="yes"/>
      <point x="884.18" y="694"/>
      <point x="828.208" y="651"/>
    </contour>
  </outline>
</glyph>
<glyph name="dieresis" format="1">
  <advance width="1295"/>
  <unicode hex="00A8"/>
  <outline>
    <contour>
      <point x="300" y="1187" type="line"/>
      <point x="300" y="1448" type="line"/>
      <point x="561.966" y="1448" type="line"/>
      <point x="561.966" y="1187" type="line"/>
    </contour>
    <contour>
      <point x="733.046" y="1187" type="line"/>
      <point x="733.046" y="1448" type="line"/>
      <point x="995.011" y="1448" type="line"/>
      <point x="995.011" y="1187" type="line"/>
    </contour>
  </outline>
</glyph>
<glyph name="copyright" format="1">
  <advance width="2097"/>
  <unicode hex="00A9"/>
  <outline>
    <contour>
      <point x="1087.76" y="190" type="curve" smooth="yes"/>
      <point x="1220.3" y="190"/>
      <point x="1334.04" y="225"/>
      <point x="1428.98" y="296" type="curve"/>
      <point x="1385.74" y="438" type="line"/>
      <point x="1319" y="380"/>
      <point x="1235.34" y="344"/>
      <point x="1123.48" y="344" type="curve" smooth="yes"/>
      <point x="1057.68" y="344"/>
      <point x="1000.34" y="356"/>
      <point x="950.52" y="377" type="curve" smooth="yes"/>
      <point x="817.04" y="435"/>
      <point x="726.8" y="563"/>
      <point x="726.8" y="759" type="curve" smooth="yes"/>
      <point x="726.8" y="815"/>
      <point x="736.2" y="868"/>
      <point x="753.12" y="917" type="curve" smooth="yes"/>
      <point x="802" y="1059"/>
      <point x="913.86" y="1167"/>
      <point x="1092.46" y="1167" type="curve" smooth="yes"/>
      <point x="1210.9" y="1167"/>
      <point x="1309.6" y="1129"/>
      <point x="1390.44" y="1055" type="curve"/>
      <point x="1424.28" y="1196" type="line"/>
      <point x="1334.98" y="1277"/>
      <point x="1226.88" y="1316"/>
      <point x="1099.98" y="1316" type="curve" smooth="yes"/>
      <point x="1018.2" y="1316"/>
      <point x="944.88" y="1302"/>
      <point x="878.14" y="1274" type="curve" smooth="yes"/>
      <point x="691.8" y="1197"/>
      <point x="546.8" y="1024"/>
      <point x="546.8" y="754" type="curve" smooth="yes"/>
      <point x="546.8" y="676"/>
      <point x="561.8" y="602"/>
      <point x="589.8" y="534" type="curve" smooth="yes"/>
      <point x="667.8" y="341"/>
      <point x="836.78" y="190"/>
    </contour>
    <contour>
      <point x="1058.62" y="-140" type="curve" smooth="yes"/>
      <point x="1333.1" y="-140"/>
      <point x="1538.02" y="-24"/>
      <point x="1683.72" y="123" type="curve" smooth="yes"/>
      <point x="1825.98" y="265"/>
      <point x="1953.98" y="467"/>
      <point x="1953.98" y="749" type="curve" smooth="yes"/>
      <point x="1953.98" y="830"/>
      <point x="1941.98" y="908"/>
      <point x="1919.98" y="983" type="curve" smooth="yes"/>
      <point x="1871.98" y="1142"/>
      <point x="1786.18" y="1272"/>
      <point x="1683.72" y="1375" type="curve" smooth="yes"/>
      <point x="1537.08" y="1522"/>
      <point x="1331.22" y="1640"/>
      <point x="1052.98" y="1640" type="curve" smooth="yes"/>
      <point x="778.5" y="1640"/>
      <point x="564.8" y="1524"/>
      <point x="416.14" y="1377" type="curve"/>
      <point x="274" y="1235"/>
      <point x="144" y="1033"/>
      <point x="144" y="750" type="curve" smooth="yes"/>
      <point x="144" y="669"/>
      <point x="156" y="591"/>
      <point x="178" y="516" type="curve" smooth="yes"/>
      <point x="226" y="358"/>
      <point x="310.86" y="226"/>
      <point x="414.26" y="123" type="curve" smooth="yes"/>
      <point x="562.8" y="-24"/>
      <point x="780.38" y="-140"/>
    </contour>
    <contour>
      <point x="1058.62" y="-2" type="curve" smooth="yes"/>
      <point x="829.26" y="-2"/>
      <point x="639.8" y="90"/>
      <point x="510.14" y="215" type="curve" smooth="yes"/>
      <point x="389.82" y="335"/>
      <point x="293" y="516"/>
      <point x="293" y="752" type="curve" smooth="yes"/>
      <point x="293" y="985"/>
      <point x="389.82" y="1166"/>
      <point x="510.14" y="1286" type="curve" smooth="yes"/>
      <point x="638.8" y="1408"/>
      <point x="825.5" y="1502"/>
      <point x="1053.92" y="1502" type="curve" smooth="yes"/>
      <point x="1282.34" y="1502"/>
      <point x="1466.58" y="1408"/>
      <point x="1589.72" y="1284" type="curve" smooth="yes"/>
      <point x="1709.1" y="1164"/>
      <point x="1804.98" y="983"/>
      <point x="1804.98" y="749" type="curve" smooth="yes"/>
      <point x="1804.98" y="515"/>
      <point x="1708.16" y="335"/>
      <point x="1589.72" y="215" type="curve" smooth="yes"/>
      <point x="1467.52" y="91"/>
      <point x="1287.04" y="-2"/>
    </contour>
  </outline>
</glyph>
<glyph name="ordfeminine" format="1">
  <advance width="1015"/>
  <unicode hex="00AA"/>
  <outline>
    <contour>
      <point x="445.046" y="636" type="curve" smooth="yes"/>
      <point x="555.026" y="636"/>
      <point x="638.686" y="679"/>
      <point x="687.626" y="743" type="curve"/>
      <point x="694.626" y="657" type="line"/>
      <point x="848.626" y="657" type="line"/>
      <point x="842.626" y="728"/>
      <point x="840.626" y="755"/>
      <point x="840.626" y="807" type="curve" smooth="yes"/>
      <point x="842.626" y="1184" type="line"/>
      <point x="842.626" y="1378"/>
      <point x="712.626" y="1468"/>
      <point x="529.646" y="1468" type="curve" smooth="yes"/>
      <point x="383" y="1468"/>
      <point x="266" y="1420"/>
      <point x="206" y="1319" type="curve"/>
      <point x="285" y="1231" type="line"/>
      <point x="337" y="1308"/>
      <point x="414.026" y="1342"/>
      <point x="523.066" y="1342" type="curve" smooth="yes"/>
      <point x="644.326" y="1342"/>
      <point x="686.626" y="1295"/>
      <point x="686.626" y="1166" type="curve" smooth="yes"/>
      <point x="686.626" y="1156" type="line"/>
      <point x="604.846" y="1144"/>
      <point x="518.366" y="1146"/>
      <point x="436.586" y="1134" type="curve"/>
      <point x="298" y="1112"/>
      <point x="153" y="1039"/>
      <point x="153" y="879" type="curve" smooth="yes"/>
      <point x="153" y="842"/>
      <point x="160" y="809"/>
      <point x="175" y="779" type="curve" smooth="yes"/>
      <point x="219" y="690"/>
      <point x="316" y="636"/>
    </contour>
    <contour>
      <point x="467.606" y="757" type="curve" smooth="yes"/>
      <point x="381" y="757"/>
      <point x="313" y="790"/>
      <point x="313" y="881" type="curve" smooth="yes"/>
      <point x="313" y="1044"/>
      <point x="562.546" y="1011"/>
      <point x="686.626" y="1037" type="curve"/>
      <point x="686.626" y="1008" type="line"/>
      <point x="679.106" y="864"/>
      <point x="611.426" y="757"/>
    </contour>
  </outline>
</glyph>
<glyph name="guillemotleft" format="1">
  <advance width="2007"/>
  <unicode hex="00AB"/>
  <outline>
    <contour>
      <point x="744.786" y="301" type="line"/>
      <point x="433" y="735" type="line"/>
      <point x="751.366" y="1174" type="line"/>
      <point x="928.086" y="1174" type="line"/>
      <point x="633" y="735" type="line"/>
      <point x="917.746" y="301" type="line"/>
    </contour>
    <contour>
      <point x="1155.91" y="301" type="line"/>
      <point x="856.646" y="735" type="line"/>
      <point x="1161.91" y="1174" type="line"/>
      <point x="1348.91" y="1174" type="line"/>
      <point x="1043.71" y="735" type="line"/>
      <point x="1340.91" y="301" type="line"/>
    </contour>
  </outline>
</glyph>
<glyph name="logicalnot" format="1">
  <advance width="2522"/>
  <unicode hex="00AC"/>
  <outline>
    <contour>
      <point x="1362.69" y="419" type="line"/>
      <point x="1362.69" y="913" type="line"/>
      <point x="353" y="913" type="line"/>
      <point x="353" y="1077" type="line"/>
      <point x="1538.69" y="1077" type="line"/>
      <point x="1538.69" y="419" type="line"/>
    </contour>
  </outline>
</glyph>
<glyph name="registered" format="1">
  <advance width="2087"/>
  <unicode hex="00AE"/>
  <outline>
    <contour>
      <point x="699.08" y="221" type="line"/>
      <point x="862.64" y="221" type="line"/>
      <point x="862.64" y="680" type="line"/>
      <point x="1013.04" y="680" type="line"/>
      <point x="1080.72" y="634"/>
      <point x="1128.66" y="554"/>
      <point x="1174.72" y="469" type="curve" smooth="yes"/>
      <point x="1311.02" y="221" type="line"/>
      <point x="1496.2" y="221" type="line"/>
      <point x="1460.48" y="285"/>
      <point x="1428.52" y="340"/>
      <point x="1398.44" y="391" type="curve" smooth="yes"/>
      <point x="1331.7" y="505"/>
      <point x="1267.78" y="615"/>
      <point x="1183.18" y="700" type="curve"/>
      <point x="1343.92" y="722"/>
      <point x="1475.52" y="810"/>
      <point x="1475.52" y="998" type="curve" smooth="yes"/>
      <point x="1475.52" y="1095"/>
      <point x="1436.98" y="1170"/>
      <point x="1358.96" y="1222" type="curve" smooth="yes"/>
      <point x="1280.94" y="1274"/>
      <point x="1161.56" y="1299"/>
      <point x="999.88" y="1299" type="curve" smooth="yes"/>
      <point x="699.08" y="1299" type="line"/>
    </contour>
    <contour>
      <point x="1047.82" y="-138" type="curve" smooth="yes"/>
      <point x="1322.3" y="-138"/>
      <point x="1527.22" y="-22"/>
      <point x="1672.92" y="125" type="curve" smooth="yes"/>
      <point x="1815.18" y="267"/>
      <point x="1943.18" y="469"/>
      <point x="1943.18" y="751" type="curve" smooth="yes"/>
      <point x="1943.18" y="832"/>
      <point x="1931.18" y="910"/>
      <point x="1909.18" y="985" type="curve" smooth="yes"/>
      <point x="1861.18" y="1144"/>
      <point x="1775.38" y="1274"/>
      <point x="1672.92" y="1377" type="curve" smooth="yes"/>
      <point x="1526.28" y="1524"/>
      <point x="1320.42" y="1642"/>
      <point x="1042.18" y="1642" type="curve" smooth="yes"/>
      <point x="767.7" y="1642"/>
      <point x="563.72" y="1526"/>
      <point x="416.14" y="1379" type="curve"/>
      <point x="274" y="1237"/>
      <point x="144" y="1035"/>
      <point x="144" y="752" type="curve" smooth="yes"/>
      <point x="144" y="671"/>
      <point x="156" y="593"/>
      <point x="178" y="518" type="curve" smooth="yes"/>
      <point x="226" y="360"/>
      <point x="310.86" y="228"/>
      <point x="414.26" y="125" type="curve" smooth="yes"/>
      <point x="561.84" y="-22"/>
      <point x="769.58" y="-138"/>
    </contour>
    <contour>
      <point x="1047.82" y="0" type="curve" smooth="yes"/>
      <point x="818.46" y="0"/>
      <point x="634.22" y="92"/>
      <point x="510.14" y="217" type="curve" smooth="yes"/>
      <point x="389.82" y="337"/>
      <point x="293" y="518"/>
      <point x="293" y="754" type="curve" smooth="yes"/>
      <point x="293" y="987"/>
      <point x="389.82" y="1167"/>
      <point x="510.14" y="1288" type="curve" smooth="yes"/>
      <point x="633.28" y="1411"/>
      <point x="814.7" y="1504"/>
      <point x="1043.12" y="1504" type="curve" smooth="yes"/>
      <point x="1271.54" y="1504"/>
      <point x="1455.78" y="1410"/>
      <point x="1578.92" y="1286" type="curve" smooth="yes"/>
      <point x="1698.3" y="1166"/>
      <point x="1794.18" y="985"/>
      <point x="1794.18" y="751" type="curve" smooth="yes"/>
      <point x="1794.18" y="510"/>
      <point x="1700.18" y="337"/>
      <point x="1579.86" y="217" type="curve" smooth="yes"/>
      <point x="1456.72" y="93"/>
      <point x="1282.82" y="0"/>
    </contour>
    <contour>
      <point x="859.82" y="819" type="line"/>
      <point x="858.88" y="1158" type="line"/>
      <point x="996.12" y="1158" type="line" smooth="yes"/>
      <point x="1165.32" y="1158"/>
      <point x="1304.44" y="1157"/>
      <point x="1304.44" y="980" type="curve" smooth="yes"/>
      <point x="1304.44" y="821"/>
      <point x="1150.28" y="819"/>
      <point x="998" y="819" type="curve" smooth="yes"/>
    </contour>
  </outline>
</glyph>
<glyph name="macron" format="1">
  <advance width="1271"/>
  <unicode hex="00AF"/>
  <outline>
    <contour>
      <point x="139" y="2084" type="line"/>
      <point x="139" y="2241" type="line"/>
      <point x="800.171" y="2241" type="line"/>
      <point x="800.171" y="2084" type="line"/>
    </contour>
  </outline>
</glyph>
<glyph name="degree" format="1">
  <advance width="1460"/>
  <unicode hex="00B0"/>
  <outline>
    <contour>
      <point x="529.532" y="1643" type="curve" smooth="yes"/>
      <point x="501.546" y="1643"/>
      <point x="473.56" y="1648"/>
      <point x="448.283" y="1658" type="curve" smooth="yes"/>
      <point x="378" y="1687"/>
      <point x="315" y="1751"/>
      <point x="315" y="1853" type="curve" smooth="yes"/>
      <point x="315" y="1882"/>
      <point x="322" y="1911"/>
      <point x="333" y="1937" type="curve"/>
      <point x="367" y="2008"/>
      <point x="438.352" y="2061"/>
      <point x="529.532" y="2061" type="curve" smooth="yes"/>
      <point x="557.518" y="2061"/>
      <point x="582.796" y="2055"/>
      <point x="608.074" y="2045" type="curve" smooth="yes"/>
      <point x="677.967" y="2017"/>
      <point x="744.967" y="1954"/>
      <point x="744.967" y="1853" type="curve" smooth="yes"/>
      <point x="744.967" y="1824"/>
      <point x="738.967" y="1796"/>
      <point x="726.967" y="1770" type="curve" smooth="yes"/>
      <point x="693.967" y="1699"/>
      <point x="622.518" y="1643"/>
    </contour>
    <contour>
      <point x="529.532" y="1506" type="curve" smooth="yes"/>
      <point x="575.574" y="1506"/>
      <point x="617.102" y="1514"/>
      <point x="659.967" y="1533" type="curve"/>
      <point x="779.967" y="1581"/>
      <point x="891.967" y="1687"/>
      <point x="891.967" y="1852" type="curve" smooth="yes"/>
      <point x="891.967" y="1900"/>
      <point x="882.967" y="1944"/>
      <point x="862.967" y="1987" type="curve" smooth="yes"/>
      <point x="807.967" y="2102"/>
      <point x="685.967" y="2197"/>
      <point x="529.532" y="2197" type="curve" smooth="yes"/>
      <point x="484.394" y="2197"/>
      <point x="440.158" y="2188"/>
      <point x="397" y="2171" type="curve" smooth="yes"/>
      <point x="277" y="2123"/>
      <point x="168" y="2015"/>
      <point x="168" y="1852" type="curve" smooth="yes"/>
      <point x="168" y="1804"/>
      <point x="177" y="1760"/>
      <point x="197" y="1718" type="curve" smooth="yes"/>
      <point x="252" y="1602"/>
      <point x="374" y="1506"/>
    </contour>
  </outline>
</glyph>
<glyph name="plusminus" format="1">
  <advance width="2521"/>
  <unicode hex="00B1"/>
  <outline>
    <contour>
      <point x="852.406" y="262" type="line"/>
      <point x="852.406" y="699" type="line"/>
      <point x="346" y="699" type="line"/>
      <point x="331" y="861" type="line"/>
      <point x="850.526" y="861" type="line"/>
      <point x="850.526" y="1299" type="line"/>
      <point x="1014.09" y="1299" type="line"/>
      <point x="1014.09" y="861" type="line"/>
      <point x="1526.73" y="861" type="line"/>
      <point x="1526.73" y="699" type="line"/>
      <point x="1018.79" y="699" type="line"/>
      <point x="1018.79" y="262" type="line"/>
    </contour>
    <contour>
      <point x="346" y="0" type="line"/>
      <point x="346" y="163" type="line"/>
      <point x="1531.73" y="163" type="line"/>
      <point x="1531.73" y="0" type="line"/>
    </contour>
  </outline>
</glyph>
<glyph name="acute" format="1">
  <advance width="1068"/>
  <unicode hex="00B4"/>
  <outline>
    <contour>
      <point x="308" y="2064" type="line"/>
      <point x="574" y="2440" type="line"/>
      <point x="893" y="2440" type="line"/>
      <point x="531" y="2064" type="line"/>
    </contour>
  </outline>
</glyph>
<glyph name="paragraph" format="1">
  <advance width="2080"/>
  <unicode hex="00B6"/>
  <outline>
    <contour>
      <point x="566.685" y="-261" type="line"/>
      <point x="719.254" y="-261" type="line"/>
      <point x="719.254" y="1471" type="line"/>
      <point x="939.532" y="1471" type="line"/>
      <point x="939.532" y="-261" type="line"/>
      <point x="1090.83" y="-261" type="line"/>
      <point x="1090.83" y="1471" type="line"/>
      <point x="1191.83" y="1471" type="line"/>
      <point x="1191.83" y="1617" type="line"/>
      <point x="759.879" y="1617" type="line" smooth="yes"/>
      <point x="480.019" y="1617"/>
      <point x="188" y="1550"/>
      <point x="188" y="1240" type="curve" smooth="yes"/>
      <point x="188" y="1180"/>
      <point x="199" y="1125"/>
      <point x="220" y="1076" type="curve" smooth="yes"/>
      <point x="277" y="943"/>
      <point x="399" y="839"/>
      <point x="566.685" y="836" type="curve"/>
    </contour>
  </outline>
</glyph>
<glyph name="cedilla" format="1">
  <advance width="931"/>
  <unicode hex="00B8"/>
  <outline>
    <contour>
      <point x="297" y="-697" type="curve" smooth="yes"/>
      <point x="440" y="-697"/>
      <point x="580" y="-654"/>
      <point x="580" y="-513" type="curve" smooth="yes"/>
      <point x="580" y="-387"/>
      <point x="467" y="-344"/>
      <point x="345" y="-338" type="curve"/>
      <point x="335" y="-338" type="line"/>
      <point x="355" y="-212" type="line"/>
      <point x="242" y="-212" type="line"/>
      <point x="203" y="-435" type="line"/>
      <point x="241" y="-433" type="line"/>
      <point x="254" y="-431"/>
      <point x="274" y="-430"/>
      <point x="284" y="-430" type="curve" smooth="yes"/>
      <point x="355" y="-430"/>
      <point x="412" y="-446"/>
      <point x="412" y="-516" type="curve" smooth="yes"/>
      <point x="412" y="-581"/>
      <point x="355" y="-600"/>
      <point x="278" y="-600" type="curve" smooth="yes"/>
      <point x="215" y="-600"/>
      <point x="159" y="-586"/>
      <point x="101" y="-572" type="curve"/>
      <point x="91" y="-672" type="line"/>
      <point x="155" y="-685"/>
      <point x="226" y="-697"/>
    </contour>
  </outline>
</glyph>
<glyph name="ordmasculine" format="1">
  <advance width="1429"/>
  <unicode hex="00BA"/>
  <outline>
    <contour>
      <point x="508.246" y="1351" type="curve" smooth="yes"/>
      <point x="573.106" y="1351"/>
      <point x="629.506" y="1362"/>
      <point x="678.731" y="1384" type="curve" smooth="yes"/>
      <point x="819.731" y="1443"/>
      <point x="918.731" y="1570"/>
      <point x="918.731" y="1766" type="curve" smooth="yes"/>
      <point x="918.731" y="1824"/>
      <point x="908.731" y="1879"/>
      <point x="891.731" y="1930" type="curve" smooth="yes"/>
      <point x="837.731" y="2083"/>
      <point x="703.731" y="2184"/>
      <point x="508.246" y="2184" type="curve" smooth="yes"/>
      <point x="444.326" y="2184"/>
      <point x="386.986" y="2172"/>
      <point x="338" y="2151" type="curve" smooth="yes"/>
      <point x="196" y="2092"/>
      <point x="94" y="1966"/>
      <point x="94" y="1770" type="curve" smooth="yes"/>
      <point x="94" y="1509"/>
      <point x="255" y="1351"/>
    </contour>
    <contour>
      <point x="508.246" y="1477" type="curve" smooth="yes"/>
      <point x="346.566" y="1477"/>
      <point x="258" y="1598"/>
      <point x="258" y="1769" type="curve" smooth="yes"/>
      <point x="258" y="1935"/>
      <point x="348.446" y="2058"/>
      <point x="505.426" y="2058" type="curve" smooth="yes"/>
      <point x="665.226" y="2058"/>
      <point x="756.731" y="1935"/>
      <point x="756.731" y="1765" type="curve" smooth="yes"/>
      <point x="756.731" y="1600"/>
      <point x="664.286" y="1477"/>
    </contour>
  </outline>
</glyph>
<glyph name="guillemotright" format="1">
  <advance width="2005"/>
  <unicode hex="00BB"/>
  <outline>
    <contour>
      <point x="924.266" y="1174" type="line"/>
      <point x="1237.93" y="737" type="line"/>
      <point x="918.626" y="301" type="line"/>
      <point x="744.726" y="301" type="line"/>
      <point x="1035.93" y="737" type="line"/>
      <point x="752.246" y="1174" type="line"/>
    </contour>
    <contour>
      <point x="484" y="1174" type="line"/>
      <point x="786.086" y="737" type="line"/>
      <point x="479" y="301" type="line"/>
      <point x="291" y="301" type="line"/>
      <point x="598.086" y="737" type="line"/>
      <point x="298" y="1174" type="line"/>
    </contour>
  </outline>
</glyph>
<glyph name="onequarter" format="1">
  <advance width="4177"/>
  <unicode hex="00BC"/>
  <outline>
    <contour>
      <point x="-593" y="0" type="line"/>
      <point x="-416" y="0" type="line"/>
      <point x="463.266" y="1482" type="line"/>
      <point x="463.266" y="1413" type="line"/>
      <point x="517.786" y="1435"/>
      <point x="581.706" y="1465"/>
      <point x="630.586" y="1492" type="curve"/>
      <point x="630.586" y="1372" type="line" smooth="yes"/>
      <point x="630.586" y="1311"/>
      <point x="631.526" y="1253"/>
      <point x="631.526" y="1183" type="curve" smooth="yes"/>
      <point x="631.526" y="849" type="line"/>
      <point x="497.106" y="849" type="line"/>
      <point x="497.106" y="710" type="line"/>
      <point x="900.366" y="710" type="line"/>
      <point x="900.366" y="845" type="line"/>
      <point x="765.946" y="845" type="line"/>
      <point x="765.946" y="1675" type="line"/>
      <point x="649.386" y="1658" type="line"/>
      <point x="610.846" y="1632"/>
      <point x="572.306" y="1610"/>
      <point x="528.126" y="1590" type="curve"/>
      <point x="584.526" y="1686" type="line"/>
      <point x="420.026" y="1686" type="line"/>
    </contour>
    <contour>
      <point x="1905.23" y="722" type="line"/>
      <point x="2043.99" y="722" type="line"/>
      <point x="2043.99" y="943" type="line"/>
      <point x="2185.99" y="943" type="line"/>
      <point x="2174.99" y="1069" type="line"/>
      <point x="2046.99" y="1069" type="line"/>
      <point x="2046.99" y="1658" type="line"/>
      <point x="1893.01" y="1658" type="line"/>
      <point x="1488.81" y="1050" type="line"/>
      <point x="1488.81" y="943" type="line"/>
      <point x="1905.23" y="943" type="line"/>
    </contour>
    <contour>
      <point x="1642.03" y="1069" type="line"/>
      <point x="1905.23" y="1461" type="line"/>
      <point x="1905.23" y="1069" type="line"/>
    </contour>
  </outline>
</glyph>
<glyph name="onehalf" format="1">
  <advance width="4691"/>
  <unicode hex="00BD"/>
  <outline>
    <contour>
      <point x="512.146" y="710" type="line"/>
      <point x="1113.75" y="710" type="line"/>
      <point x="1113.75" y="848" type="line"/>
      <point x="712.366" y="848" type="line"/>
      <point x="813.886" y="942"/>
      <point x="916.346" y="1032"/>
      <point x="998.126" y="1136" type="curve" smooth="yes"/>
      <point x="1058.29" y="1213"/>
      <point x="1115.63" y="1301"/>
      <point x="1115.63" y="1424" type="curve" smooth="yes"/>
      <point x="1115.63" y="1465"/>
      <point x="1108.11" y="1501"/>
      <point x="1094.01" y="1535" type="curve"/>
      <point x="1050.77" y="1630"/>
      <point x="954.886" y="1691"/>
      <point x="825.166" y="1691" type="curve" smooth="yes"/>
      <point x="671.946" y="1691"/>
      <point x="568.546" y="1609"/>
      <point x="520.606" y="1491" type="curve"/>
      <point x="614.606" y="1399" type="line"/>
      <point x="651.266" y="1482"/>
      <point x="714.246" y="1554"/>
      <point x="819.526" y="1554" type="curve" smooth="yes"/>
      <point x="906.006" y="1554"/>
      <point x="972.746" y="1511"/>
      <point x="972.746" y="1422" type="curve" smooth="yes"/>
      <point x="972.746" y="1389"/>
      <point x="962.406" y="1353"/>
      <point x="938.906" y="1313" type="curve" smooth="yes"/>
      <point x="916.346" y="1273"/>
      <point x="884.386" y="1229"/>
      <point x="843.966" y="1181" type="curve" smooth="yes"/>
      <point x="745.266" y="1067"/>
      <point x="628.706" y="953"/>
      <point x="512.146" y="839" type="curve"/>
    </contour>
    <contour>
      <point x="1811.23" y="710" type="line"/>
      <point x="2228.29" y="710" type="line"/>
      <point x="2228.29" y="845" type="line"/>
      <point x="2084.29" y="845" type="line"/>
      <point x="2084.29" y="1675" type="line"/>
      <point x="1962.57" y="1658" type="line"/>
      <point x="1905.23" y="1621"/>
      <point x="1852.59" y="1590"/>
      <point x="1778.33" y="1565" type="curve"/>
      <point x="1776.45" y="1413" type="line"/>
      <point x="1831.91" y="1435"/>
      <point x="1895.83" y="1465"/>
      <point x="1944.71" y="1492" type="curve"/>
      <point x="1944.71" y="1372" type="line" smooth="yes"/>
      <point x="1944.71" y="1311"/>
      <point x="1945.65" y="1253"/>
      <point x="1945.65" y="1183" type="curve" smooth="yes"/>
      <point x="1945.65" y="849" type="line"/>
      <point x="1811.23" y="849" type="line"/>
    </contour>
    <contour>
      <point x="-593" y="0" type="line"/>
      <point x="-416" y="0" type="line"/>
      <point x="584.526" y="1686" type="line"/>
      <point x="420.026" y="1686" type="line"/>
    </contour>
  </outline>
</glyph>
<glyph name="threequarters" format="1">
  <advance width="4177"/>
  <unicode hex="00BE"/>
  <outline>
    <contour>
      <point x="-593" y="0" type="line"/>
      <point x="-416" y="0" type="line"/>
      <point x="487.706" y="1522" type="line"/>
      <point x="523.426" y="1461" type="line"/>
      <point x="577.006" y="1507"/>
      <point x="644.686" y="1552"/>
      <point x="734.926" y="1552" type="curve" smooth="yes"/>
      <point x="824.226" y="1552"/>
      <point x="890.026" y="1516"/>
      <point x="890.026" y="1421" type="curve" smooth="yes"/>
      <point x="890.026" y="1303"/>
      <point x="784.746" y="1279"/>
      <point x="672.886" y="1279" type="curve" smooth="yes"/>
      <point x="618.366" y="1279" type="line"/>
      <point x="618.366" y="1140" type="line"/>
      <point x="647.506" y="1140" type="line"/>
      <point x="680.406" y="1140" type="line" smooth="yes"/>
      <point x="804.486" y="1140"/>
      <point x="917.286" y="1114"/>
      <point x="917.286" y="983" type="curve" smooth="yes"/>
      <point x="917.286" y="875"/>
      <point x="828.926" y="823"/>
      <point x="725.526" y="823" type="curve" smooth="yes"/>
      <point x="653.146" y="823"/>
      <point x="586.406" y="854"/>
      <point x="524.366" y="914" type="curve"/>
      <point x="458.566" y="802" type="line"/>
      <point x="521.546" y="735"/>
      <point x="611.786" y="688"/>
      <point x="730.226" y="688" type="curve" smooth="yes"/>
      <point x="774.406" y="688"/>
      <point x="817.646" y="695"/>
      <point x="857.126" y="708" type="curve" smooth="yes"/>
      <point x="965.226" y="744"/>
      <point x="1060.17" y="832"/>
      <point x="1060.17" y="980" type="curve" smooth="yes"/>
      <point x="1060.17" y="1100"/>
      <point x="1000.95" y="1173"/>
      <point x="919.166" y="1212" type="curve"/>
      <point x="986.846" y="1251"/>
      <point x="1037.61" y="1320"/>
      <point x="1037.61" y="1424" type="curve" smooth="yes"/>
      <point x="1037.61" y="1468"/>
      <point x="1028.21" y="1506"/>
      <point x="1011.29" y="1539" type="curve" smooth="yes"/>
      <point x="965.226" y="1630"/>
      <point x="868.406" y="1692"/>
      <point x="736.806" y="1692" type="curve" smooth="yes"/>
      <point x="673.826" y="1692"/>
      <point x="613.666" y="1675"/>
      <point x="562.906" y="1649" type="curve"/>
      <point x="584.526" y="1686" type="line"/>
      <point x="420.026" y="1686" type="line"/>
    </contour>
    <contour>
      <point x="1905.23" y="722" type="line"/>
      <point x="2043.99" y="722" type="line"/>
      <point x="2043.99" y="943" type="line"/>
      <point x="2185.99" y="943" type="line"/>
      <point x="2174.99" y="1069" type="line"/>
      <point x="2046.99" y="1069" type="line"/>
      <point x="2046.99" y="1658" type="line"/>
      <point x="1893.01" y="1658" type="line"/>
      <point x="1488.81" y="1050" type="line"/>
      <point x="1488.81" y="943" type="line"/>
      <point x="1905.23" y="943" type="line"/>
    </contour>
    <contour>
      <point x="1642.03" y="1069" type="line"/>
      <point x="1905.23" y="1461" type="line"/>
      <point x="1905.23" y="1069" type="line"/>
    </contour>
  </outline>
</glyph>
<glyph name="questiondown" format="1">
  <advance width="1778"/>
  <unicode hex="00BF"/>
  <outline>
    <contour>
      <point x="802.666" y="-20" type="curve" smooth="yes"/>
      <point x="919.476" y="-20"/>
      <point x="1030.48" y="11"/>
      <point x="1124.48" y="57" type="curve"/>
      <point x="1124.48" y="229" type="line"/>
      <point x="1041.48" y="182"/>
      <point x="940.476" y="147"/>
      <point x="824.333" y="147" type="curve" smooth="yes"/>
      <point x="661.833" y="147"/>
      <point x="521" y="215"/>
      <point x="521" y="395" type="curve" smooth="yes"/>
      <point x="521" y="442"/>
      <point x="530.931" y="485"/>
      <point x="550.792" y="525" type="curve" smooth="yes"/>
      <point x="615.791" y="654"/>
      <point x="732.25" y="741"/>
      <point x="822.527" y="848" type="curve" smooth="yes"/>
      <point x="873.083" y="909"/>
      <point x="933.476" y="986"/>
      <point x="933.476" y="1094" type="curve" smooth="yes"/>
      <point x="933.476" y="1152"/>
      <point x="927.476" y="1227"/>
      <point x="921.476" y="1284" type="curve"/>
      <point x="743.083" y="1284" type="line"/>
      <point x="752.111" y="1225" type="line"/>
      <point x="758.43" y="1195"/>
      <point x="762.041" y="1150"/>
      <point x="762.041" y="1114" type="curve" smooth="yes"/>
      <point x="762.041" y="1077"/>
      <point x="751.208" y="1040"/>
      <point x="730.444" y="1003" type="curve" smooth="yes"/>
      <point x="657.319" y="874"/>
      <point x="538.153" y="774"/>
      <point x="444" y="657" type="curve" smooth="yes"/>
      <point x="386" y="586"/>
      <point x="322" y="502"/>
      <point x="322" y="385" type="curve" smooth="yes"/>
      <point x="322" y="317"/>
      <point x="335" y="259"/>
      <point x="361" y="208" type="curve" smooth="yes"/>
      <point x="438" y="59"/>
      <point x="598.639" y="-20"/>
    </contour>
    <contour>
      <point x="716" y="1483" type="line"/>
      <point x="953.476" y="1483" type="line"/>
      <point x="953.476" y="1729" type="line"/>
      <point x="716" y="1729" type="line"/>
    </contour>
  </outline>
</glyph>
<glyph name="AE" format="1">
  <advance width="3466"/>
  <unicode hex="00C6"/>
  <outline>
    <contour>
      <point x="9" y="0" type="line"/>
      <point x="941.186" y="1710" type="line"/>
      <point x="2103.93" y="1710" type="line"/>
      <point x="2103.93" y="1536" type="line"/>
      <point x="1297.45" y="1536" type="line"/>
      <point x="1338.81" y="962" type="line"/>
      <point x="2054.93" y="962" type="line"/>
      <point x="2054.93" y="789" type="line"/>
      <point x="1359.49" y="789" type="line"/>
      <point x="1404.61" y="174" type="line"/>
      <point x="2130.93" y="174" type="line"/>
      <point x="2130.93" y="0" type="line"/>
      <point x="1236.35" y="0" type="line"/>
      <point x="1202.51" y="467" type="line"/>
      <point x="489.046" y="467" type="line"/>
      <point x="239" y="0" type="line"/>
    </contour>
    <contour>
      <point x="576.466" y="641" type="line"/>
      <point x="1181.83" y="641" type="line"/>
      <point x="1115.09" y="1536" type="line"/>
      <point x="1059.63" y="1536" type="line"/>
    </contour>
  </outline>
</glyph>
<glyph name="multiply" format="1">
  <advance width="2540"/>
  <unicode hex="00D7"/>
  <outline>
    <contour>
      <point x="688" y="271" type="line"/>
      <point x="567" y="392" type="line"/>
      <point x="908.866" y="741" type="line"/>
      <point x="567" y="1090" type="line"/>
      <point x="688" y="1211" type="line"/>
      <point x="1023.55" y="862" type="line"/>
      <point x="1358.09" y="1211" type="line"/>
      <point x="1480.09" y="1089" type="line"/>
      <point x="1137.29" y="741" type="line"/>
      <point x="1480.09" y="393" type="line"/>
      <point x="1358.09" y="271" type="line"/>
      <point x="1023.55" y="619" type="line"/>
    </contour>
  </outline>
</glyph>
<glyph name="Oslash" format="1">
  <advance width="2807"/>
  <unicode hex="00D8"/>
  <outline>
    <contour>
      <point x="654.819" y="-291" type="line"/>
      <point x="733.36" y="-86" type="line"/>
      <point x="811.902" y="-111"/>
      <point x="896.763" y="-123"/>
      <point x="986.138" y="-123" type="curve" smooth="yes"/>
      <point x="1484.47" y="-123"/>
      <point x="1762.35" y="300"/>
      <point x="1762.35" y="760" type="curve" smooth="yes"/>
      <point x="1762.35" y="1166"/>
      <point x="1595.35" y="1426"/>
      <point x="1361.69" y="1553" type="curve"/>
      <point x="1441.14" y="1760" type="line"/>
      <point x="1308.43" y="1811" type="line"/>
      <point x="1230.79" y="1609" type="line"/>
      <point x="1154.05" y="1633"/>
      <point x="1071.9" y="1644"/>
      <point x="986.138" y="1644" type="curve" smooth="yes"/>
      <point x="484.194" y="1644"/>
      <point x="205" y="1220"/>
      <point x="205" y="760" type="curve" smooth="yes"/>
      <point x="205" y="356"/>
      <point x="373" y="96"/>
      <point x="606.069" y="-31" type="curve"/>
      <point x="526.625" y="-239" type="line"/>
    </contour>
    <contour>
      <point x="671.972" y="141" type="line"/>
      <point x="502.25" y="263"/>
      <point x="421" y="492"/>
      <point x="421" y="759" type="curve" smooth="yes"/>
      <point x="421" y="1227"/>
      <point x="691.833" y="1470"/>
      <point x="986.138" y="1470" type="curve" smooth="yes"/>
      <point x="1052.94" y="1470"/>
      <point x="1113.43" y="1460"/>
      <point x="1167.6" y="1442" type="curve"/>
    </contour>
    <contour>
      <point x="986.138" y="47" type="curve" smooth="yes"/>
      <point x="915.721" y="47"/>
      <point x="852.527" y="57"/>
      <point x="795.652" y="77" type="curve"/>
      <point x="1293.98" y="1377" type="line"/>
      <point x="1461" y="1255"/>
      <point x="1541.35" y="1026"/>
      <point x="1541.35" y="759" type="curve" smooth="yes"/>
      <point x="1541.35" y="290"/>
      <point x="1274.12" y="47"/>
    </contour>
  </outline>
</glyph>
<glyph name="Thorn" format="1">
  <advance width="2200"/>
  <unicode hex="00DE"/>
  <outline>
    <contour>
      <point x="358" y="0" type="line"/>
      <point x="560" y="0" type="line"/>
      <point x="560" y="520" type="line"/>
      <point x="807.026" y="520" type="line" smooth="yes"/>
      <point x="991.266" y="520"/>
      <point x="1155.77" y="564"/>
      <point x="1272.51" y="641" type="curve"/>
      <point x="1392.51" y="718"/>
      <point x="1485.51" y="839"/>
      <point x="1485.51" y="1029" type="curve" smooth="yes"/>
      <point x="1485.51" y="1446"/>
      <point x="1140.73" y="1540"/>
      <point x="748.746" y="1540" type="curve" smooth="yes"/>
      <point x="560" y="1540" type="line"/>
      <point x="560" y="1710" type="line"/>
      <point x="358" y="1710" type="line"/>
    </contour>
    <contour>
      <point x="560" y="695" type="line"/>
      <point x="560" y="1367" type="line"/>
      <point x="796.686" y="1367" type="line" smooth="yes"/>
      <point x="1061.77" y="1367"/>
      <point x="1269.51" y="1308"/>
      <point x="1269.51" y="1026" type="curve" smooth="yes"/>
      <point x="1269.51" y="969"/>
      <point x="1259.17" y="918"/>
      <point x="1238.49" y="877" type="curve" smooth="yes"/>
      <point x="1175.51" y="751"/>
      <point x="1032.63" y="695"/>
      <point x="850.266" y="695" type="curve" smooth="yes"/>
    </contour>
  </outline>
</glyph>
<glyph name="germandbls" format="1">
  <advance width="2170"/>
  <unicode hex="00DF"/>
  <outline>
    <contour>
      <point x="1003.19" y="-40" type="curve" smooth="yes"/>
      <point x="1057.71" y="-40"/>
      <point x="1109.41" y="-30"/>
      <point x="1160.17" y="-10" type="curve" smooth="yes"/>
      <point x="1308.51" y="48"/>
      <point x="1436.51" y="179"/>
      <point x="1436.51" y="387" type="curve" smooth="yes"/>
      <point x="1436.51" y="464"/>
      <point x="1422.51" y="532"/>
      <point x="1389.51" y="590" type="curve"/>
      <point x="1297.51" y="763"/>
      <point x="1117.87" y="864"/>
      <point x="926.106" y="924" type="curve" smooth="yes"/>
      <point x="905.426" y="931"/>
      <point x="894.146" y="937"/>
      <point x="894.146" y="944" type="curve" smooth="yes"/>
      <point x="894.146" y="958"/>
      <point x="912.946" y="966"/>
      <point x="923.286" y="970" type="curve" smooth="yes"/>
      <point x="999.426" y="1006"/>
      <point x="1069.93" y="1062"/>
      <point x="1125.39" y="1123" type="curve"/>
      <point x="1183.67" y="1184"/>
      <point x="1246.51" y="1269"/>
      <point x="1246.51" y="1386" type="curve" smooth="yes"/>
      <point x="1246.51" y="1438"/>
      <point x="1236.51" y="1486"/>
      <point x="1214.69" y="1532" type="curve" smooth="yes"/>
      <point x="1148.89" y="1677"/>
      <point x="999.426" y="1761"/>
      <point x="795.446" y="1761" type="curve" smooth="yes"/>
      <point x="719.306" y="1761"/>
      <point x="652.566" y="1749"/>
      <point x="592.406" y="1724" type="curve" smooth="yes"/>
      <point x="415" y="1653"/>
      <point x="306" y="1493"/>
      <point x="306" y="1244" type="curve" smooth="yes"/>
      <point x="309" y="-14" type="line"/>
      <point x="502" y="-14" type="line"/>
      <point x="502" y="105"/>
      <point x="501" y="241"/>
      <point x="501" y="370" type="curve" smooth="yes"/>
      <point x="501" y="515"/>
      <point x="499" y="676"/>
      <point x="499" y="821" type="curve" smooth="yes"/>
      <point x="499" y="949"/>
      <point x="498" y="1087"/>
      <point x="498" y="1206" type="curve" smooth="yes"/>
      <point x="498" y="1429"/>
      <point x="584.886" y="1609"/>
      <point x="794.506" y="1609" type="curve" smooth="yes"/>
      <point x="935.506" y="1609"/>
      <point x="1037.97" y="1535"/>
      <point x="1037.97" y="1385" type="curve" smooth="yes"/>
      <point x="1037.97" y="1345"/>
      <point x="1031.39" y="1307"/>
      <point x="1017.29" y="1273" type="curve" smooth="yes"/>
      <point x="972.166" y="1162"/>
      <point x="880.986" y="1084"/>
      <point x="777.586" y="1034" type="curve"/>
      <point x="759.726" y="874" type="line"/>
      <point x="870.646" y="808"/>
      <point x="986.266" y="739"/>
      <point x="1075.57" y="655" type="curve" smooth="yes"/>
      <point x="1147.95" y="588"/>
      <point x="1217.51" y="500"/>
      <point x="1217.51" y="365" type="curve" smooth="yes"/>
      <point x="1217.51" y="218"/>
      <point x="1134.79" y="114"/>
      <point x="999.426" y="114" type="curve" smooth="yes"/>
      <point x="879.106" y="114"/>
      <point x="787.926" y="189"/>
      <point x="721.186" y="272" type="curve"/>
      <point x="648.806" y="149" type="line"/>
      <point x="727.766" y="41"/>
      <point x="844.326" y="-40"/>
    </contour>
  </outline>
</glyph>
<glyph name="ae" format="1">
  <advance width="3145"/>
  <unicode hex="00E6"/>
  <outline>
    <contour>
      <point x="551.56" y="-49" type="curve" smooth="yes"/>
      <point x="773.4" y="-49"/>
      <point x="922.28" y="68"/>
      <point x="1013.28" y="215" type="curve"/>
      <point x="1090.28" y="67"/>
      <point x="1237.28" y="-46"/>
      <point x="1457.28" y="-46" type="curve" smooth="yes"/>
      <point x="1708.28" y="-46"/>
      <point x="1868.28" y="60"/>
      <point x="1964.28" y="225" type="curve"/>
      <point x="1863.28" y="327" type="line"/>
      <point x="1786.28" y="210"/>
      <point x="1651.28" y="116"/>
      <point x="1469.28" y="116" type="curve" smooth="yes"/>
      <point x="1219.28" y="116"/>
      <point x="1115.28" y="280"/>
      <point x="1115.28" y="527" type="curve" smooth="yes"/>
      <point x="1115.28" y="533"/>
      <point x="1116.28" y="542"/>
      <point x="1116.28" y="546" type="curve"/>
      <point x="2003.28" y="546" type="line"/>
      <point x="2003.28" y="599" type="line" smooth="yes"/>
      <point x="2003.28" y="977"/>
      <point x="1834.28" y="1220"/>
      <point x="1456.28" y="1220" type="curve" smooth="yes"/>
      <point x="1260.28" y="1220"/>
      <point x="1118.28" y="1124"/>
      <point x="1041.28" y="989" type="curve"/>
      <point x="1031.28" y="1029"/>
      <point x="1014.28" y="1063"/>
      <point x="986.28" y="1092" type="curve" smooth="yes"/>
      <point x="914.4" y="1166"/>
      <point x="803.48" y="1220"/>
      <point x="671.88" y="1220" type="curve" smooth="yes"/>
      <point x="454.74" y="1220"/>
      <point x="302" y="1140"/>
      <point x="221" y="989" type="curve"/>
      <point x="327" y="880" type="line"/>
      <point x="394.58" y="998"/>
      <point x="497.04" y="1060"/>
      <point x="661.54" y="1060" type="curve" smooth="yes"/>
      <point x="843.9" y="1060"/>
      <point x="916.28" y="915"/>
      <point x="916.28" y="721" type="curve" smooth="yes"/>
      <point x="916.28" y="706" type="line"/>
      <point x="554.38" y="706"/>
      <point x="143" y="701"/>
      <point x="143" y="315" type="curve" smooth="yes"/>
      <point x="143" y="258"/>
      <point x="153" y="207"/>
      <point x="175" y="162" type="curve"/>
      <point x="236" y="30"/>
      <point x="370.14" y="-49"/>
    </contour>
    <contour>
      <point x="589.16" y="112" type="curve" smooth="yes"/>
      <point x="448.16" y="112"/>
      <point x="341" y="175"/>
      <point x="341" y="324" type="curve" smooth="yes"/>
      <point x="341" y="372"/>
      <point x="353.22" y="410"/>
      <point x="376.72" y="439" type="curve" smooth="yes"/>
      <point x="450.04" y="528"/>
      <point x="601.38" y="539"/>
      <point x="756.48" y="543" type="curve"/>
      <point x="918.28" y="546" type="line"/>
      <point x="918.28" y="291"/>
      <point x="831.68" y="112"/>
    </contour>
    <contour>
      <point x="1118.28" y="707" type="line"/>
      <point x="1121.28" y="753"/>
      <point x="1134.28" y="798"/>
      <point x="1151.28" y="841" type="curve"/>
      <point x="1203.28" y="961"/>
      <point x="1308.28" y="1060"/>
      <point x="1478.28" y="1060" type="curve" smooth="yes"/>
      <point x="1701.28" y="1060"/>
      <point x="1780.28" y="912"/>
      <point x="1800.28" y="707" type="curve"/>
    </contour>
  </outline>
</glyph>
<glyph name="eth" format="1">
  <advance width="2044"/>
  <unicode hex="00F0"/>
  <outline>
    <contour>
      <point x="711.68" y="-40" type="curve" smooth="yes"/>
      <point x="800.98" y="-40"/>
      <point x="879.94" y="-22"/>
      <point x="950.44" y="12" type="curve"/>
      <point x="1181.53" y="129"/>
      <point x="1284.53" y="410"/>
      <point x="1284.53" y="776" type="curve" smooth="yes"/>
      <point x="1284.53" y="933"/>
      <point x="1263.53" y="1068"/>
      <point x="1228.53" y="1191" type="curve"/>
      <point x="1398.53" y="1191" type="line"/>
      <point x="1398.53" y="1352" type="line"/>
      <point x="1167.53" y="1352" type="line"/>
      <point x="1085.8" y="1531"/>
      <point x="966.42" y="1663"/>
      <point x="790.64" y="1736" type="curve"/>
      <point x="704.16" y="1637" type="line"/>
      <point x="825.42" y="1565"/>
      <point x="915.66" y="1479"/>
      <point x="982.4" y="1352" type="curve"/>
      <point x="754.92" y="1352" type="line"/>
      <point x="754.92" y="1191" type="line"/>
      <point x="1043.5" y="1191" type="line"/>
      <point x="1069.82" y="1087"/>
      <point x="1082.04" y="981"/>
      <point x="1082.98" y="847" type="curve"/>
      <point x="1082.98" y="836" type="line"/>
      <point x="1004.02" y="970"/>
      <point x="870.54" y="1040"/>
      <point x="671.26" y="1040" type="curve" smooth="yes"/>
      <point x="594.18" y="1040"/>
      <point x="525.56" y="1027"/>
      <point x="463.52" y="1001" type="curve" smooth="yes"/>
      <point x="286" y="928"/>
      <point x="155" y="764"/>
      <point x="155" y="510" type="curve" smooth="yes"/>
      <point x="155" y="433"/>
      <point x="167" y="359"/>
      <point x="195" y="293" type="curve"/>
      <point x="273" y="95"/>
      <point x="454.12" y="-40"/>
    </contour>
    <contour>
      <point x="703.22" y="126" type="curve" smooth="yes"/>
      <point x="650.58" y="126"/>
      <point x="604.52" y="134"/>
      <point x="562.22" y="153" type="curve" smooth="yes"/>
      <point x="443.78" y="207"/>
      <point x="362" y="329"/>
      <point x="362" y="504" type="curve" smooth="yes"/>
      <point x="362" y="736"/>
      <point x="481.38" y="875"/>
      <point x="701.34" y="875" type="curve" smooth="yes"/>
      <point x="889.34" y="875"/>
      <point x="1018.12" y="766"/>
      <point x="1067" y="616" type="curve"/>
      <point x="1067" y="588" type="line" smooth="yes"/>
      <point x="1067" y="327"/>
      <point x="950.44" y="126"/>
    </contour>
  </outline>
</glyph>
<glyph name="divide" format="1">
  <advance width="2522"/>
  <unicode hex="00F7"/>
  <outline>
    <contour>
      <point x="829.046" y="1037" type="line"/>
      <point x="1067.81" y="1037" type="line"/>
      <point x="1067.81" y="1284" type="line"/>
      <point x="829.046" y="1284" type="line"/>
    </contour>
    <contour>
      <point x="349" y="581" type="line"/>
      <point x="1535.63" y="581" type="line"/>
      <point x="1535.63" y="745" type="line"/>
      <point x="349" y="745" type="line"/>
    </contour>
    <contour>
      <point x="829.046" y="37" type="line"/>
      <point x="1067.81" y="37" type="line"/>
      <point x="1067.81" y="284" type="line"/>
      <point x="829.046" y="284" type="line"/>
    </contour>
  </outline>
</glyph>
<glyph name="oslash" format="1">
  <advance width="2148"/>
  <unicode hex="00F8"/>
  <outline>
    <component base="o"/>
    <contour>
      <point x="460.04" y="-460" type="line"/>
      <point x="1188.8" y="1309" type="line"/>
      <point x="1067.8" y="1346" type="line"/>
      <point x="351" y="-422" type="line"/>
    </contour>
  </outline>
</glyph>
<glyph name="thorn" format="1">
  <advance width="2135"/>
  <unicode hex="00FE"/>
  <outline>
    <contour>
      <point x="279" y="-752" type="line"/>
      <point x="472" y="-752" type="line"/>
      <point x="472" y="-92" type="line"/>
      <point x="566.94" y="-216"/>
      <point x="693.84" y="-278"/>
      <point x="852.7" y="-278" type="curve" smooth="yes"/>
      <point x="940.12" y="-278"/>
      <point x="1015.32" y="-259"/>
      <point x="1080.18" y="-224" type="curve" smooth="yes"/>
      <point x="1265.88" y="-126"/>
      <point x="1384.88" y="83"/>
      <point x="1384.88" y="368" type="curve" smooth="yes"/>
      <point x="1384.88" y="451"/>
      <point x="1372.88" y="529"/>
      <point x="1350.88" y="605" type="curve" smooth="yes"/>
      <point x="1285.88" y="825"/>
      <point x="1121.54" y="983"/>
      <point x="852.7" y="983" type="curve" smooth="yes"/>
      <point x="675.04" y="983"/>
      <point x="556.6" y="902"/>
      <point x="474.82" y="785" type="curve"/>
      <point x="474.82" y="1458" type="line"/>
      <point x="279" y="1458" type="line"/>
    </contour>
    <contour>
      <point x="826.38" y="-123" type="curve" smooth="yes"/>
      <point x="769.04" y="-123"/>
      <point x="717.34" y="-111"/>
      <point x="674.1" y="-89" type="curve" smooth="yes"/>
      <point x="544.38" y="-22"/>
      <point x="472" y="126"/>
      <point x="472" y="329" type="curve" smooth="yes"/>
      <point x="472" y="609"/>
      <point x="569.76" y="826"/>
      <point x="832.96" y="826" type="curve" smooth="yes"/>
      <point x="1082.06" y="826"/>
      <point x="1178.88" y="624"/>
      <point x="1178.88" y="361" type="curve" smooth="yes"/>
      <point x="1178.88" y="97"/>
      <point x="1076.42" y="-123"/>
    </contour>
  </outline>
</glyph>
<glyph name="hbar" format="1">
  <advance width="2194"/>
  <unicode hex="0127"/>
  <outline>
    <contour>
      <point x="1467.76" y="-44" type="curve"/>
      <point x="1497.76" y="110" type="line"/>
      <point x="1375.76" y="134"/>
      <point x="1336.76" y="230"/>
      <point x="1337.76" y="404" type="curve"/>
      <point x="1340.76" y="648" type="line"/>
      <point x="1343.76" y="990"/>
      <point x="1230.76" y="1216"/>
      <point x="895.66" y="1216" type="curve" smooth="yes"/>
      <point x="710.16" y="1216"/>
      <point x="545.86" y="1141"/>
      <point x="460" y="1006" type="curve"/>
      <point x="460" y="1777" type="line"/>
      <point x="267" y="1754" type="line"/>
      <point x="267" y="-15" type="line"/>
      <point x="460" y="-15" type="line"/>
      <point x="460" y="651" type="line" smooth="yes"/>
      <point x="460" y="892"/>
      <point x="663.52" y="1052"/>
      <point x="847.96" y="1052" type="curve" smooth="yes"/>
      <point x="1110.84" y="1052"/>
      <point x="1147.76" y="886"/>
      <point x="1147.76" y="645" type="curve"/>
      <point x="1144.76" y="399" type="line"/>
      <point x="1144.76" y="392" type="line" smooth="yes"/>
      <point x="1144.76" y="106"/>
      <point x="1235.76" y="-41"/>
    </contour>
    <contour>
      <point x="479.08" y="1892" type="line"/>
      <point x="1187.76" y="1892" type="line"/>
      <point x="1187.76" y="2049" type="line"/>
      <point x="479.08" y="2049" type="line"/>
    </contour>
  </outline>
</glyph>
<glyph name="kgreenlandic" format="1">
  <advance width="1869"/>
  <unicode hex="0138"/>
  <outline>
    <contour>
      <point x="314" y="0" type="line"/>
      <point x="314" y="1205" type="line"/>
      <point x="507" y="1205" type="line"/>
      <point x="507" y="654" type="line"/>
      <point x="1021.18" y="1205" type="line"/>
      <point x="1283.06" y="1205" type="line"/>
      <point x="685.6" y="601" type="line"/>
      <point x="896.16" y="396"/>
      <point x="1103.06" y="204"/>
      <point x="1327.06" y="0" type="curve"/>
      <point x="1070.06" y="0" type="line"/>
      <point x="507" y="553" type="line"/>
      <point x="507" y="0" type="line"/>
    </contour>
  </outline>
</glyph>
<glyph name="Lslash" format="1">
  <advance width="1926"/>
  <unicode hex="0141"/>
  <outline>
    <contour>
      <point x="246" y="0" type="line"/>
      <point x="1223.97" y="0" type="line"/>
      <point x="1223.97" y="174" type="line"/>
      <point x="437.486" y="174" type="line"/>
      <point x="437.486" y="836" type="line"/>
      <point x="752.386" y="1045" type="line"/>
      <point x="752.386" y="1206" type="line"/>
      <point x="437.486" y="997" type="line"/>
      <point x="437.486" y="1710" type="line"/>
      <point x="246" y="1710" type="line"/>
      <point x="246" y="871" type="line"/>
      <point x="27" y="735" type="line"/>
      <point x="27" y="574" type="line"/>
      <point x="246" y="710" type="line"/>
    </contour>
  </outline>
</glyph>
<glyph name="OE" format="1">
  <advance width="3592"/>
  <unicode hex="0152"/>
  <outline>
    <contour>
      <point x="1003.5" y="-40" type="curve" smooth="yes"/>
      <point x="1158.6" y="-40"/>
      <point x="1268.58" y="24"/>
      <point x="1357.88" y="110" type="curve"/>
      <point x="1357.88" y="-14" type="line"/>
      <point x="2291.95" y="-14" type="line"/>
      <point x="2291.95" y="160" type="line"/>
      <point x="1547.76" y="160" type="line"/>
      <point x="1547.76" y="776" type="line"/>
      <point x="2212.95" y="776" type="line"/>
      <point x="2212.95" y="949" type="line"/>
      <point x="1547.76" y="949" type="line"/>
      <point x="1547.76" y="1522" type="line"/>
      <point x="2257.95" y="1522" type="line"/>
      <point x="2257.95" y="1696" type="line"/>
      <point x="1357.88" y="1696" type="line"/>
      <point x="1357.88" y="1608" type="line"/>
      <point x="1267.64" y="1676"/>
      <point x="1155.78" y="1728"/>
      <point x="1011.02" y="1728" type="curve" smooth="yes"/>
      <point x="886" y="1728"/>
      <point x="773.2" y="1706"/>
      <point x="674.5" y="1661" type="curve" smooth="yes"/>
      <point x="395" y="1536"/>
      <point x="200" y="1258"/>
      <point x="200" y="843" type="curve" smooth="yes"/>
      <point x="200" y="707"/>
      <point x="219" y="586"/>
      <point x="258" y="477" type="curve" smooth="yes"/>
      <point x="367" y="167"/>
      <point x="613.4" y="-40"/>
    </contour>
    <contour>
      <point x="1000.68" y="133" type="curve" smooth="yes"/>
      <point x="904.8" y="133"/>
      <point x="819.26" y="152"/>
      <point x="746.88" y="188" type="curve" smooth="yes"/>
      <point x="539.14" y="291"/>
      <point x="416" y="518"/>
      <point x="416" y="838" type="curve" smooth="yes"/>
      <point x="416" y="1044"/>
      <point x="476.16" y="1218"/>
      <point x="566.4" y="1338" type="curve" smooth="yes"/>
      <point x="659.46" y="1461"/>
      <point x="800.46" y="1554"/>
      <point x="1003.5" y="1554" type="curve" smooth="yes"/>
      <point x="1160.48" y="1554"/>
      <point x="1270.46" y="1499"/>
      <point x="1357.88" y="1418" type="curve"/>
      <point x="1357.88" y="298" type="line"/>
      <point x="1274.22" y="205"/>
      <point x="1161.42" y="133"/>
    </contour>
  </outline>
</glyph>
<glyph name="oe" format="1">
  <advance width="3384"/>
  <unicode hex="0153"/>
  <outline>
    <contour>
      <point x="745.76" y="-49" type="curve" smooth="yes"/>
      <point x="978.88" y="-49"/>
      <point x="1135.12" y="51"/>
      <point x="1206.12" y="229" type="curve"/>
      <point x="1277.12" y="57"/>
      <point x="1431.12" y="-49"/>
      <point x="1662.12" y="-49" type="curve" smooth="yes"/>
      <point x="1904.12" y="-49"/>
      <point x="2068.12" y="57"/>
      <point x="2161.12" y="225" type="curve"/>
      <point x="2058.12" y="327" type="line"/>
      <point x="1984.12" y="209"/>
      <point x="1855.12" y="112"/>
      <point x="1675.12" y="112" type="curve" smooth="yes"/>
      <point x="1617.12" y="112"/>
      <point x="1566.12" y="122"/>
      <point x="1521.12" y="142" type="curve" smooth="yes"/>
      <point x="1393.12" y="201"/>
      <point x="1318.12" y="332"/>
      <point x="1313.12" y="513" type="curve"/>
      <point x="1313.12" y="536" type="line"/>
      <point x="2158.14" y="538" type="line"/>
      <point x="2158.14" y="600" type="line" smooth="yes"/>
      <point x="2158.14" y="964"/>
      <point x="1991.14" y="1220"/>
      <point x="1647.76" y="1220" type="curve" smooth="yes"/>
      <point x="1425.92" y="1220"/>
      <point x="1292.12" y="1115"/>
      <point x="1212.12" y="948" type="curve"/>
      <point x="1124.12" y="1116"/>
      <point x="989.22" y="1220"/>
      <point x="757.04" y="1220" type="curve" smooth="yes"/>
      <point x="664.92" y="1220"/>
      <point x="582.2" y="1204"/>
      <point x="509.82" y="1170" type="curve" smooth="yes"/>
      <point x="309" y="1079"/>
      <point x="162" y="877"/>
      <point x="162" y="581" type="curve" smooth="yes"/>
      <point x="162" y="494"/>
      <point x="176" y="412"/>
      <point x="203" y="335" type="curve" smooth="yes"/>
      <point x="283" y="112"/>
      <point x="463.76" y="-49"/>
    </contour>
    <contour>
      <point x="757.04" y="112" type="curve" smooth="yes"/>
      <point x="690.3" y="112"/>
      <point x="631.08" y="125"/>
      <point x="582.2" y="150" type="curve" smooth="yes"/>
      <point x="445.9" y="219"/>
      <point x="366" y="368"/>
      <point x="366" y="579" type="curve" smooth="yes"/>
      <point x="366" y="643"/>
      <point x="373.52" y="704"/>
      <point x="390.44" y="762" type="curve" smooth="yes"/>
      <point x="436.5" y="925"/>
      <point x="550.24" y="1060"/>
      <point x="747.64" y="1060" type="curve" smooth="yes"/>
      <point x="1006.14" y="1060"/>
      <point x="1116.12" y="858"/>
      <point x="1116.12" y="584" type="curve" smooth="yes"/>
      <point x="1116.12" y="321"/>
      <point x="1006.14" y="112"/>
    </contour>
    <contour>
      <point x="1313.12" y="698" type="line"/>
      <point x="1316.88" y="745"/>
      <point x="1326.28" y="791"/>
      <point x="1342.26" y="835" type="curve"/>
      <point x="1390.2" y="958"/>
      <point x="1493.6" y="1060"/>
      <point x="1654.34" y="1060" type="curve" smooth="yes"/>
      <point x="1858.32" y="1060"/>
      <point x="1955.14" y="915"/>
      <point x="1955.14" y="698" type="curve"/>
    </contour>
  </outline>
</glyph>
<glyph name="florin" format="1">
  <advance width="2058"/>
  <unicode hex="0192"/>
  <outline>
    <contour>
      <point x="250" y="-585" type="curve" smooth="yes"/>
      <point x="322" y="-585"/>
      <point x="383.446" y="-570"/>
      <point x="427.626" y="-541" type="curve" smooth="yes"/>
      <point x="567.686" y="-451"/>
      <point x="612.806" y="-255"/>
      <point x="650.406" y="-54" type="curve"/>
      <point x="790.466" y="748" type="line"/>
      <point x="1030.67" y="748" type="line"/>
      <point x="1041.67" y="912" type="line"/>
      <point x="815.846" y="912" type="line"/>
      <point x="855.326" y="1143" type="line"/>
      <point x="876.006" y="1257"/>
      <point x="919.246" y="1324"/>
      <point x="1053.67" y="1324" type="curve" smooth="yes"/>
      <point x="1099.67" y="1324"/>
      <point x="1141.67" y="1314"/>
      <point x="1180.67" y="1299" type="curve"/>
      <point x="1189.67" y="1469" type="line"/>
      <point x="1137.67" y="1482"/>
      <point x="1080.67" y="1491"/>
      <point x="1022.67" y="1491" type="curve" smooth="yes"/>
      <point x="772.606" y="1491"/>
      <point x="681.426" y="1318"/>
      <point x="652.286" y="1090" type="curve"/>
      <point x="626.906" y="912" type="line"/>
      <point x="440.786" y="912" type="line"/>
      <point x="429.506" y="748" type="line"/>
      <point x="600.586" y="748" type="line"/>
      <point x="544.186" y="437"/>
      <point x="500.946" y="110"/>
      <point x="431.386" y="-187" type="curve" smooth="yes"/>
      <point x="406.946" y="-294"/>
      <point x="366" y="-422"/>
      <point x="235" y="-422" type="curve" smooth="yes"/>
      <point x="206" y="-422"/>
      <point x="175" y="-417"/>
      <point x="143" y="-404" type="curve"/>
      <point x="129" y="-566" type="line"/>
      <point x="173" y="-579"/>
      <point x="214" y="-585"/>
    </contour>
  </outline>
</glyph>
<glyph name="uni0216" format="1">
  <advance width="2605"/>
  <unicode hex="0216"/>
  <outline>
    <contour>
      <point x="975.846" y="-39" type="curve" smooth="yes"/>
      <point x="1359.53" y="-39"/>
      <point x="1586.41" y="212"/>
      <point x="1588.41" y="634" type="curve"/>
      <point x="1588.41" y="1697" type="line"/>
      <point x="1388.41" y="1697" type="line"/>
      <point x="1388.41" y="620" type="line" smooth="yes"/>
      <point x="1388.41" y="315"/>
      <point x="1241.26" y="132"/>
      <point x="974.041" y="132" type="curve" smooth="yes"/>
      <point x="686.055" y="132"/>
      <point x="538" y="293"/>
      <point x="538" y="628" type="curve" smooth="yes"/>
      <point x="538" y="1697" type="line"/>
      <point x="336" y="1697" type="line"/>
      <point x="336" y="623" type="line" smooth="yes"/>
      <point x="336" y="172"/>
      <point x="568.694" y="-39"/>
    </contour>
    <contour>
      <point x="662.583" y="1922" type="curve"/>
      <point x="753.763" y="1922" type="line"/>
      <point x="770.013" y="2025"/>
      <point x="847.652" y="2073"/>
      <point x="955.985" y="2073" type="curve" smooth="yes"/>
      <point x="1064.32" y="2073"/>
      <point x="1148.28" y="2021"/>
      <point x="1169.04" y="1922" type="curve"/>
      <point x="1260.22" y="1922" type="line"/>
      <point x="1246.68" y="2103"/>
      <point x="1139.25" y="2199"/>
      <point x="964.11" y="2199" type="curve" smooth="yes"/>
      <point x="782.652" y="2199"/>
      <point x="676.125" y="2110"/>
    </contour>
  </outline>
</glyph>
<glyph name="uni0217" format="1">
  <advance width="2077"/>
  <unicode hex="0217"/>
  <outline>
    <contour>
      <point x="672.12" y="-39" type="curve" smooth="yes"/>
      <point x="846.96" y="-39"/>
      <point x="984.2" y="35"/>
      <point x="1071.02" y="180" type="curve"/>
      <point x="1103.02" y="50"/>
      <point x="1230.02" y="-17"/>
      <point x="1344.02" y="-17" type="curve"/>
      <point x="1384.02" y="150" type="line"/>
      <point x="1323.02" y="150"/>
      <point x="1227.02" y="186"/>
      <point x="1227.02" y="323" type="curve" smooth="yes"/>
      <point x="1227.02" y="1192" type="line"/>
      <point x="1034.02" y="1192" type="line"/>
      <point x="1034.02" y="488" type="line" smooth="yes"/>
      <point x="1034.02" y="258"/>
      <point x="881.74" y="124"/>
      <point x="699.38" y="124" type="curve" smooth="yes"/>
      <point x="566.84" y="124"/>
      <point x="433" y="186"/>
      <point x="439" y="416" type="curve" smooth="yes"/>
      <point x="444.64" y="686" type="line"/>
      <point x="454.98" y="1057"/>
      <point x="400" y="1192"/>
      <point x="400" y="1192" type="curve"/>
      <point x="206" y="1161" type="line"/>
      <point x="206" y="1161"/>
      <point x="262" y="1010"/>
      <point x="252" y="671" type="curve" smooth="yes"/>
      <point x="245" y="416" type="line" smooth="yes"/>
      <point x="236" y="81"/>
      <point x="458.74" y="-39"/>
    </contour>
    <contour>
      <point x="442.76" y="1417" type="curve"/>
      <point x="538.64" y="1417" type="line"/>
      <point x="555.56" y="1520"/>
      <point x="636.4" y="1569"/>
      <point x="749.2" y="1569" type="curve" smooth="yes"/>
      <point x="862" y="1569"/>
      <point x="948.48" y="1515"/>
      <point x="970.1" y="1417" type="curve"/>
      <point x="1067.02" y="1417" type="line"/>
      <point x="1052.02" y="1598"/>
      <point x="940.02" y="1694"/>
      <point x="756.72" y="1694" type="curve" smooth="yes"/>
      <point x="568.72" y="1694"/>
      <point x="456.86" y="1604"/>
    </contour>
  </outline>
</glyph>
<glyph name="circumflex" format="1">
  <advance width="1214"/>
  <unicode hex="02C6"/>
  <outline>
    <contour>
      <point x="315.286" y="2442" type="line"/>
      <point x="27" y="2061" type="line"/>
      <point x="245" y="2061" type="line"/>
      <point x="401.766" y="2245" type="line"/>
      <point x="552.411" y="2061" type="line"/>
      <point x="778.411" y="2061" type="line"/>
      <point x="488.246" y="2442" type="line"/>
    </contour>
  </outline>
</glyph>
<glyph name="caron" format="1">
  <advance width="1215"/>
  <unicode hex="02C7"/>
  <outline>
    <contour>
      <point x="329.886" y="2061" type="line"/>
      <point x="51" y="2440" type="line"/>
      <point x="224" y="2440" type="line"/>
      <point x="408.846" y="2187" type="line"/>
      <point x="597.851" y="2440" type="line"/>
      <point x="779.851" y="2440" type="line"/>
      <point x="500.966" y="2061" type="line"/>
    </contour>
  </outline>
</glyph>
<glyph name="breve" format="1">
  <advance width="1096"/>
  <unicode hex="02D8"/>
  <outline>
    <contour>
      <point x="384.766" y="2145" type="curve" smooth="yes"/>
      <point x="190" y="2145"/>
      <point x="72" y="2235"/>
      <point x="57" y="2423" type="curve"/>
      <point x="159" y="2423" type="line"/>
      <point x="176" y="2320"/>
      <point x="262" y="2271"/>
      <point x="377.246" y="2271" type="curve" smooth="yes"/>
      <point x="491.771" y="2271"/>
      <point x="583.771" y="2324"/>
      <point x="606.771" y="2423" type="curve"/>
      <point x="708.771" y="2423" type="line"/>
      <point x="693.771" y="2242"/>
      <point x="574.771" y="2145"/>
    </contour>
  </outline>
</glyph>
<glyph name="dotaccent" format="1">
  <advance width="922"/>
  <unicode hex="02D9"/>
  <outline>
    <contour>
      <point x="324" y="2195" type="line"/>
      <point x="324" y="2386" type="line"/>
      <point x="513" y="2386" type="line"/>
      <point x="513" y="2195" type="line"/>
    </contour>
  </outline>
</glyph>
<glyph name="tilde" format="1">
  <advance width="1151"/>
  <unicode hex="02DC"/>
  <outline>
    <contour>
      <point x="25" y="2119" type="curve"/>
      <point x="148" y="2119" type="line"/>
      <point x="157" y="2185"/>
      <point x="191" y="2219"/>
      <point x="255" y="2219" type="curve" smooth="yes"/>
      <point x="361.226" y="2219"/>
      <point x="428.906" y="2139"/>
      <point x="536.131" y="2139" type="curve" smooth="yes"/>
      <point x="681.131" y="2139"/>
      <point x="750.131" y="2259"/>
      <point x="765.131" y="2392" type="curve"/>
      <point x="638.131" y="2392" type="line"/>
      <point x="630.131" y="2332"/>
      <point x="598.131" y="2286"/>
      <point x="536.131" y="2286" type="curve" smooth="yes"/>
      <point x="514.446" y="2286"/>
      <point x="490.946" y="2290"/>
      <point x="469.326" y="2299" type="curve" smooth="yes"/>
      <point x="405.406" y="2323"/>
      <point x="342.426" y="2366"/>
      <point x="258" y="2366" type="curve" smooth="yes"/>
      <point x="113" y="2366"/>
      <point x="36" y="2255"/>
    </contour>
  </outline>
</glyph>
<glyph name="hungarumlaut" format="1">
  <advance width="1686"/>
  <unicode hex="02DD"/>
  <outline>
    <contour>
      <point x="286" y="2067" type="line"/>
      <point x="539.506" y="2435" type="line"/>
      <point x="734.086" y="2435" type="line"/>
      <point x="424" y="2067" type="line"/>
    </contour>
    <contour>
      <point x="594.966" y="2067" type="line"/>
      <point x="839.811" y="2435" type="line"/>
      <point x="1046.81" y="2435" type="line"/>
      <point x="727.506" y="2067" type="line"/>
    </contour>
  </outline>
</glyph>
<glyph name="dblgravecmb" format="1">
  <advance width="1686"/>
  <unicode hex="030F"/>
  <outline>
    <contour>
      <point x="605.306" y="2067" type="line"/>
      <point x="286" y="2435" type="line"/>
      <point x="492" y="2435" type="line"/>
      <point x="737.846" y="2067" type="line"/>
    </contour>
    <contour>
      <point x="907.811" y="2067" type="line"/>
      <point x="598.726" y="2435" type="line"/>
      <point x="792.366" y="2435" type="line"/>
      <point x="1046.81" y="2067" type="line"/>
    </contour>
  </outline>
</glyph>
<glyph name="Delta" format="1">
  <advance width="2257"/>
  <unicode hex="0394"/>
  <outline>
    <contour>
      <point x="71" y="0" type="line"/>
      <point x="1450.33" y="0" type="line"/>
      <point x="1450.33" y="94" type="line"/>
      <point x="861.246" y="1678" type="line"/>
      <point x="660.086" y="1678" type="line"/>
      <point x="71" y="94" type="line"/>
    </contour>
    <contour>
      <point x="338.606" y="190" type="line"/>
      <point x="720.246" y="1305" type="line"/>
      <point x="755.026" y="1430" type="line"/>
      <point x="792.626" y="1305" type="line"/>
      <point x="1181.79" y="190" type="line"/>
    </contour>
  </outline>
</glyph>
<glyph name="uni03A9" format="1">
  <advance width="2751"/>
  <unicode hex="03A9"/>
  <outline>
    <contour>
      <point x="176" y="0" type="line"/>
      <point x="787.16" y="0" type="line"/>
      <point x="783.4" y="142" type="line"/>
      <point x="726.06" y="182"/>
      <point x="675.3" y="229"/>
      <point x="627.36" y="282" type="curve" smooth="yes"/>
      <point x="502.34" y="424"/>
      <point x="398" y="624"/>
      <point x="398" y="891" type="curve" smooth="yes"/>
      <point x="398" y="986"/>
      <point x="412.1" y="1073"/>
      <point x="439.36" y="1153" type="curve" smooth="yes"/>
      <point x="515.5" y="1371"/>
      <point x="687.52" y="1537"/>
      <point x="962" y="1537" type="curve" smooth="yes"/>
      <point x="1054.12" y="1537"/>
      <point x="1134.96" y="1519"/>
      <point x="1203.58" y="1484" type="curve" smooth="yes"/>
      <point x="1392.52" y="1387"/>
      <point x="1513.78" y="1179"/>
      <point x="1513.78" y="885" type="curve" smooth="yes"/>
      <point x="1513.78" y="807"/>
      <point x="1503.44" y="730"/>
      <point x="1482.76" y="658" type="curve"/>
      <point x="1422.6" y="431"/>
      <point x="1288.18" y="260"/>
      <point x="1122.74" y="142" type="curve"/>
      <point x="1127.44" y="0" type="line"/>
      <point x="1713.78" y="0" type="line"/>
      <point x="1724.78" y="163" type="line"/>
      <point x="1349.28" y="161" type="line"/>
      <point x="1445.16" y="242"/>
      <point x="1536.78" y="347"/>
      <point x="1604.78" y="467" type="curve"/>
      <point x="1669.78" y="585"/>
      <point x="1721.78" y="729"/>
      <point x="1721.78" y="906" type="curve" smooth="yes"/>
      <point x="1721.78" y="1150"/>
      <point x="1634.78" y="1342"/>
      <point x="1510.02" y="1472" type="curve" smooth="yes"/>
      <point x="1389.7" y="1606"/>
      <point x="1207.34" y="1702"/>
      <point x="967.64" y="1702" type="curve" smooth="yes"/>
      <point x="732.64" y="1702"/>
      <point x="545.58" y="1613"/>
      <point x="419.62" y="1487" type="curve" smooth="yes"/>
      <point x="285" y="1359"/>
      <point x="188" y="1167"/>
      <point x="188" y="911" type="curve" smooth="yes"/>
      <point x="188" y="830"/>
      <point x="198" y="752"/>
      <point x="217" y="679" type="curve" smooth="yes"/>
      <point x="273" y="452"/>
      <point x="400.82" y="282"/>
      <point x="554.98" y="161" type="curve"/>
      <point x="163" y="163" type="line"/>
    </contour>
  </outline>
</glyph>
<glyph name="uni03BC" format="1">
  <advance width="2077"/>
  <unicode hex="03BC"/>
  <outline>
    <contour>
      <point x="277" y="-356" type="line"/>
      <point x="470" y="-356" type="line"/>
      <point x="470" y="-83" type="line"/>
      <point x="530.486" y="-123"/>
      <point x="605.416" y="-145"/>
      <point x="702.013" y="-145" type="curve" smooth="yes"/>
      <point x="859.096" y="-145"/>
      <point x="978.263" y="-83"/>
      <point x="1059.51" y="40" type="curve"/>
      <point x="1063.51" y="-119" type="line"/>
      <point x="1262.51" y="-119" type="line"/>
      <point x="1254.51" y="-20"/>
      <point x="1253.51" y="64"/>
      <point x="1253.51" y="170" type="curve" smooth="yes"/>
      <point x="1253.51" y="1086" type="line"/>
      <point x="1059.51" y="1086" type="line"/>
      <point x="1059.51" y="393" type="line" smooth="yes"/>
      <point x="1059.51" y="341"/>
      <point x="1052.29" y="292"/>
      <point x="1038.75" y="245" type="curve" smooth="yes"/>
      <point x="998.124" y="111"/>
      <point x="901.527" y="9"/>
      <point x="741.736" y="9" type="curve" smooth="yes"/>
      <point x="548.542" y="9"/>
      <point x="470" y="132"/>
      <point x="470" y="350" type="curve" smooth="yes"/>
      <point x="470" y="1086" type="line"/>
      <point x="277" y="1086" type="line"/>
    </contour>
  </outline>
</glyph>
<glyph name="pi" format="1">
  <advance width="2213"/>
  <unicode hex="03C0"/>
  <outline>
    <contour>
      <point x="1211.95" y="-14" type="curve" smooth="yes"/>
      <point x="1266.95" y="-14"/>
      <point x="1319.95" y="-6"/>
      <point x="1372.95" y="3" type="curve"/>
      <point x="1360.95" y="37"/>
      <point x="1357.95" y="72"/>
      <point x="1357.95" y="113" type="curve" smooth="yes"/>
      <point x="1357.95" y="125"/>
      <point x="1357.95" y="137"/>
      <point x="1358.95" y="148" type="curve" smooth="yes"/>
      <point x="1360.95" y="183" type="line"/>
      <point x="1326.95" y="173"/>
      <point x="1295.95" y="168"/>
      <point x="1266.95" y="168" type="curve" smooth="yes"/>
      <point x="1168.95" y="168"/>
      <point x="1150.95" y="238"/>
      <point x="1150.95" y="334" type="curve" smooth="yes"/>
      <point x="1140.19" y="1060" type="line"/>
      <point x="1380.19" y="1060" type="line"/>
      <point x="1380.19" y="1217" type="line"/>
      <point x="433.906" y="1217" type="line" smooth="yes"/>
      <point x="276.926" y="1217"/>
      <point x="123" y="1214"/>
      <point x="30" y="1143" type="curve"/>
      <point x="50" y="989" type="line"/>
      <point x="140" y="1037"/>
      <point x="237" y="1057"/>
      <point x="369.046" y="1060" type="curve"/>
      <point x="364.346" y="862"/>
      <point x="353.066" y="661"/>
      <point x="330.506" y="478" type="curve" smooth="yes"/>
      <point x="309.826" y="304"/>
      <point x="282.566" y="119"/>
      <point x="212" y="-4" type="curve"/>
      <point x="401.946" y="-4" type="line"/>
      <point x="416.046" y="20"/>
      <point x="427.326" y="55"/>
      <point x="438.606" y="99" type="curve" smooth="yes"/>
      <point x="510.986" y="389"/>
      <point x="531.666" y="722"/>
      <point x="556.106" y="1060" type="curve"/>
      <point x="965.946" y="1060" type="line"/>
      <point x="965.946" y="322" type="line" smooth="yes"/>
      <point x="965.946" y="117"/>
      <point x="1008.95" y="-14"/>
    </contour>
  </outline>
</glyph>
<glyph name="quoteleft" format="1">
  <advance width="974"/>
  <unicode hex="2018"/>
  <outline>
    <contour>
      <point x="565" y="2319" type="line"/>
      <point x="443" y="1802" type="line"/>
      <point x="229" y="1802" type="line"/>
      <point x="410" y="2319" type="line"/>
    </contour>
  </outline>
</glyph>
<glyph name="quotedblleft" format="1">
  <advance width="1787"/>
  <unicode hex="201C"/>
  <outline>
    <contour>
      <point x="316" y="1802" type="line"/>
      <point x="496" y="2319" type="line"/>
      <point x="646.586" y="2319" type="line"/>
      <point x="529" y="1802" type="line"/>
    </contour>
    <contour>
      <point x="715.206" y="1802" type="line"/>
      <point x="890.731" y="2319" type="line"/>
      <point x="1046.73" y="2319" type="line"/>
      <point x="924.731" y="1802" type="line"/>
    </contour>
  </outline>
</glyph>
<glyph name="quotedblright" format="1">
  <advance width="1789"/>
  <unicode hex="201D"/>
  <outline>
    <contour>
      <point x="366" y="1802" type="line"/>
      <point x="488" y="2319" type="line"/>
      <point x="697.526" y="2319" type="line"/>
      <point x="522" y="1802" type="line"/>
    </contour>
    <contour>
      <point x="740.766" y="1802" type="line"/>
      <point x="859.291" y="2319" type="line"/>
      <point x="1072.29" y="2319" type="line"/>
      <point x="892.291" y="1802" type="line"/>
    </contour>
  </outline>
</glyph>
<glyph name="quotedblbase" format="1">
  <advance width="1787"/>
  <unicode hex="201E"/>
  <outline>
    <contour>
      <point x="314" y="-419" type="line"/>
      <point x="437" y="96" type="line"/>
      <point x="644.586" y="96" type="line"/>
      <point x="471" y="-419" type="line"/>
    </contour>
    <contour>
      <point x="724.486" y="-419" type="line"/>
      <point x="841.011" y="96" type="line"/>
      <point x="1056.01" y="96" type="line"/>
      <point x="875.011" y="-419" type="line"/>
    </contour>
  </outline>
</glyph>
<glyph name="dagger" format="1">
  <advance width="1759"/>
  <unicode hex="2020"/>
  <outline>
    <contour>
      <point x="557.657" y="199" type="line"/>
      <point x="557.657" y="1163" type="line"/>
      <point x="188" y="1163" type="line"/>
      <point x="188" y="1318" type="line"/>
      <point x="557.657" y="1318" type="line"/>
      <point x="557.657" y="1770" type="line"/>
      <point x="714.042" y="1770" type="line"/>
      <point x="714.042" y="1318" type="line"/>
      <point x="1102.66" y="1318" type="line"/>
      <point x="1102.66" y="1163" type="line"/>
      <point x="699.597" y="1163" type="line"/>
      <point x="699.597" y="199" type="line"/>
    </contour>
  </outline>
</glyph>
<glyph name="daggerdbl" format="1">
  <advance width="1779"/>
  <unicode hex="2021"/>
  <outline>
    <contour>
      <point x="544.563" y="199" type="line"/>
      <point x="566.566" y="577" type="line"/>
      <point x="173" y="577" type="line"/>
      <point x="173" y="726" type="line"/>
      <point x="566.566" y="726" type="line"/>
      <point x="566.566" y="1220" type="line"/>
      <point x="180" y="1220" type="line"/>
      <point x="180" y="1376" type="line"/>
      <point x="574.566" y="1376" type="line"/>
      <point x="544.946" y="1770" type="line"/>
      <point x="741.646" y="1770" type="line"/>
      <point x="719.086" y="1376" type="line"/>
      <point x="1113.59" y="1376" type="line"/>
      <point x="1113.59" y="1220" type="line"/>
      <point x="711.566" y="1220" type="line"/>
      <point x="711.566" y="726" type="line"/>
      <point x="1105.59" y="726" type="line"/>
      <point x="1105.59" y="577" type="line"/>
      <point x="711.566" y="577" type="line"/>
      <point x="738.194" y="199" type="line"/>
    </contour>
  </outline>
</glyph>
<glyph name="bullet" format="1">
  <advance width="1708"/>
  <unicode hex="2022"/>
  <outline>
    <contour>
      <point x="657.491" y="678" type="curve" smooth="yes"/>
      <point x="764.921" y="678"/>
      <point x="857.592" y="726"/>
      <point x="922.592" y="787" type="curve"/>
      <point x="986.592" y="845"/>
      <point x="1041.59" y="935"/>
      <point x="1041.59" y="1049" type="curve" smooth="yes"/>
      <point x="1041.59" y="1098"/>
      <point x="1031.59" y="1145"/>
      <point x="1009.59" y="1189" type="curve"/>
      <point x="951.592" y="1312"/>
      <point x="826.592" y="1411"/>
      <point x="662.005" y="1411" type="curve" smooth="yes"/>
      <point x="615.06" y="1411"/>
      <point x="568.116" y="1403"/>
      <point x="524.783" y="1382" type="curve"/>
      <point x="397" y="1330"/>
      <point x="277" y="1215"/>
      <point x="277" y="1041" type="curve" smooth="yes"/>
      <point x="277" y="992"/>
      <point x="287" y="944"/>
      <point x="307" y="901" type="curve" smooth="yes"/>
      <point x="365" y="776"/>
      <point x="491" y="678"/>
    </contour>
  </outline>
</glyph>
<glyph name="ellipsis" format="1">
  <advance width="2791"/>
  <unicode hex="2026"/>
  <outline>
    <contour>
      <point x="280" y="-20" type="line"/>
      <point x="280" y="227" type="line"/>
      <point x="534.446" y="227" type="line"/>
      <point x="534.446" y="-20" type="line"/>
    </contour>
    <contour>
      <point x="890.706" y="-20" type="line"/>
      <point x="890.706" y="227" type="line"/>
      <point x="1130.41" y="227" type="line"/>
      <point x="1130.41" y="-20" type="line"/>
    </contour>
    <contour>
      <point x="1486.67" y="-20" type="line"/>
      <point x="1486.67" y="227" type="line"/>
      <point x="1741.11" y="227" type="line"/>
      <point x="1741.11" y="-20" type="line"/>
    </contour>
  </outline>
</glyph>
<glyph name="perthousand" format="1">
  <advance width="4139"/>
  <unicode hex="2030"/>
  <outline>
    <contour>
      <point x="525" y="853" type="curve" smooth="yes"/>
      <point x="587" y="853"/>
      <point x="643" y="862"/>
      <point x="692" y="884" type="curve"/>
      <point x="830" y="941"/>
      <point x="923" y="1074"/>
      <point x="923" y="1266" type="curve" smooth="yes"/>
      <point x="923" y="1525"/>
      <point x="785" y="1683"/>
      <point x="527" y="1683" type="curve" smooth="yes"/>
      <point x="463" y="1683"/>
      <point x="407" y="1673"/>
      <point x="358" y="1651" type="curve"/>
      <point x="220" y="1594"/>
      <point x="129" y="1464"/>
      <point x="129" y="1270" type="curve" smooth="yes"/>
      <point x="129" y="1015"/>
      <point x="269" y="853"/>
    </contour>
    <contour>
      <point x="1405.5" y="-47" type="curve" smooth="yes"/>
      <point x="1465.66" y="-47"/>
      <point x="1517.36" y="-37"/>
      <point x="1564.36" y="-15" type="curve" smooth="yes"/>
      <point x="1698.7" y="43"/>
      <point x="1789.7" y="172"/>
      <point x="1789.7" y="366" type="curve" smooth="yes"/>
      <point x="1789.7" y="622"/>
      <point x="1653.7" y="784"/>
      <point x="1409.26" y="784" type="curve" smooth="yes"/>
      <point x="1349.1" y="784"/>
      <point x="1294.58" y="774"/>
      <point x="1248.52" y="752" type="curve"/>
      <point x="1113" y="694"/>
      <point x="1023" y="564"/>
      <point x="1023" y="370" type="curve" smooth="yes"/>
      <point x="1023" y="115"/>
      <point x="1164" y="-47"/>
    </contour>
    <contour>
      <point x="2295.28" y="-47" type="curve" smooth="yes"/>
      <point x="2355.44" y="-47"/>
      <point x="2407.14" y="-37"/>
      <point x="2453.2" y="-15" type="curve"/>
      <point x="2587.48" y="42"/>
      <point x="2680.48" y="173"/>
      <point x="2680.48" y="366" type="curve" smooth="yes"/>
      <point x="2680.48" y="624"/>
      <point x="2545.48" y="784"/>
      <point x="2299.98" y="784" type="curve" smooth="yes"/>
      <point x="2239.82" y="784"/>
      <point x="2185.3" y="774"/>
      <point x="2139.24" y="752" type="curve"/>
      <point x="2003.78" y="694"/>
      <point x="1913.78" y="564"/>
      <point x="1913.78" y="370" type="curve" smooth="yes"/>
      <point x="1913.78" y="115"/>
      <point x="2053.78" y="-47"/>
    </contour>
    <contour>
      <point x="331" y="-40" type="line"/>
      <point x="510" y="-40" type="line"/>
      <point x="1582.22" y="1670" type="line"/>
      <point x="1417.72" y="1670" type="line"/>
    </contour>
    <contour>
      <point x="529" y="986" type="curve" smooth="yes"/>
      <point x="369" y="986"/>
      <point x="300" y="1111"/>
      <point x="300" y="1271" type="curve" smooth="yes"/>
      <point x="300" y="1425"/>
      <point x="371" y="1551"/>
      <point x="525" y="1551" type="curve" smooth="yes"/>
      <point x="682" y="1551"/>
      <point x="752" y="1426"/>
      <point x="752" y="1268" type="curve" smooth="yes"/>
      <point x="752" y="1115"/>
      <point x="683" y="986"/>
    </contour>
    <contour>
      <point x="1408.32" y="85" type="curve" smooth="yes"/>
      <point x="1259.8" y="85"/>
      <point x="1194" y="210"/>
      <point x="1194" y="370" type="curve" smooth="yes"/>
      <point x="1194" y="526"/>
      <point x="1260.74" y="650"/>
      <point x="1408.32" y="650" type="curve" smooth="yes"/>
      <point x="1556.84" y="650"/>
      <point x="1621.7" y="528"/>
      <point x="1621.7" y="368" type="curve" smooth="yes"/>
      <point x="1621.7" y="214"/>
      <point x="1553.08" y="85"/>
    </contour>
    <contour>
      <point x="2299.04" y="85" type="curve" smooth="yes"/>
      <point x="2150.52" y="85"/>
      <point x="2083.78" y="210"/>
      <point x="2083.78" y="370" type="curve" smooth="yes"/>
      <point x="2083.78" y="526"/>
      <point x="2150.52" y="650"/>
      <point x="2298.1" y="650" type="curve" smooth="yes"/>
      <point x="2445.68" y="650"/>
      <point x="2511.48" y="525"/>
      <point x="2511.48" y="368" type="curve" smooth="yes"/>
      <point x="2511.48" y="213"/>
      <point x="2445.68" y="85"/>
    </contour>
  </outline>
</glyph>
<glyph name="fraction" format="1">
  <advance width="603"/>
  <unicode hex="2044"/>
  <outline>
    <contour>
      <point x="-593" y="0" type="line"/>
      <point x="424.271" y="1686" type="line"/>
      <point x="599.271" y="1686" type="line"/>
      <point x="-416" y="0" type="line"/>
    </contour>
  </outline>
</glyph>
<glyph name="uni2074" format="1">
  <advance width="1554"/>
  <unicode hex="2074"/>
  <outline>
    <contour>
      <point x="385.727" y="1084" type="line"/>
      <point x="385.727" y="1305" type="line"/>
      <point x="-39" y="1305" type="line"/>
      <point x="-39" y="1411" type="line"/>
      <point x="373.088" y="2019" type="line"/>
      <point x="526.106" y="2019" type="line"/>
      <point x="526.106" y="1430" type="line"/>
      <point x="653.106" y="1430" type="line"/>
      <point x="665.106" y="1305" type="line"/>
      <point x="523.106" y="1305" type="line"/>
      <point x="523.106" y="1084" type="line"/>
    </contour>
    <contour>
      <point x="125" y="1430" type="line"/>
      <point x="385.727" y="1430" type="line"/>
      <point x="385.727" y="1822" type="line"/>
    </contour>
  </outline>
</glyph>
<glyph name="Euro" format="1">
  <advance width="2058"/>
  <unicode hex="20AC"/>
  <outline>
    <contour>
      <point x="897.97" y="-37" type="curve" smooth="yes"/>
      <point x="1052.64" y="-37"/>
      <point x="1175.27" y="5"/>
      <point x="1279.27" y="76" type="curve"/>
      <point x="1280.27" y="285" type="line"/>
      <point x="1176.27" y="204"/>
      <point x="1064.27" y="134"/>
      <point x="915.998" y="134" type="curve" smooth="yes"/>
      <point x="639.876" y="134"/>
      <point x="530.756" y="336"/>
      <point x="503.74" y="593" type="curve"/>
      <point x="1104.27" y="593" type="line"/>
      <point x="1127.27" y="755" type="line"/>
      <point x="487.76" y="755" type="line"/>
      <point x="485.88" y="812" type="line"/>
      <point x="484" y="834"/>
      <point x="483" y="860"/>
      <point x="484" y="882" type="curve"/>
      <point x="484" y="895" type="line" smooth="yes"/>
      <point x="484" y="899"/>
      <point x="485.88" y="905"/>
      <point x="486.82" y="908" type="curve"/>
      <point x="1142.27" y="908" type="line"/>
      <point x="1166.27" y="1070" type="line"/>
      <point x="506.56" y="1070" type="line"/>
      <point x="552.62" y="1299"/>
      <point x="667.3" y="1518"/>
      <point x="926.74" y="1518" type="curve" smooth="yes"/>
      <point x="1080.27" y="1518"/>
      <point x="1192.27" y="1435"/>
      <point x="1263.27" y="1328" type="curve"/>
      <point x="1305.27" y="1550" type="line"/>
      <point x="1214.27" y="1636"/>
      <point x="1097.27" y="1688"/>
      <point x="935.2" y="1688" type="curve" smooth="yes"/>
      <point x="847.78" y="1688"/>
      <point x="767.88" y="1673"/>
      <point x="698.32" y="1643" type="curve" smooth="yes"/>
      <point x="485.88" y="1550"/>
      <point x="349" y="1342"/>
      <point x="300" y="1070" type="curve"/>
      <point x="158" y="1070" type="line"/>
      <point x="132" y="908" type="line"/>
      <point x="278" y="908" type="line"/>
      <point x="277" y="881"/>
      <point x="275" y="858"/>
      <point x="275" y="832" type="curve" smooth="yes"/>
      <point x="275" y="802"/>
      <point x="277" y="777"/>
      <point x="280" y="755" type="curve"/>
      <point x="159" y="755" type="line"/>
      <point x="136" y="593" type="line"/>
      <point x="294" y="593" type="line"/>
      <point x="339" y="233"/>
      <point x="514.625" y="-37"/>
    </contour>
  </outline>
</glyph>
<glyph name="trademark" format="1">
  <advance width="3208"/>
  <unicode hex="2122"/>
  <outline>
    <contour>
      <point x="964.946" y="1208" type="line"/>
      <point x="964.946" y="2107" type="line"/>
      <point x="1174.57" y="2107" type="line"/>
      <point x="1434.95" y="1459" type="line"/>
      <point x="1713.45" y="2107" type="line"/>
      <point x="1923.45" y="2107" type="line"/>
      <point x="1923.45" y="1208" type="line"/>
      <point x="1780.45" y="1208" type="line"/>
      <point x="1780.45" y="1907" type="line"/>
      <point x="1472.55" y="1208" type="line"/>
      <point x="1384.19" y="1208" type="line"/>
      <point x="1098.43" y="1906" type="line"/>
      <point x="1098.43" y="1208" type="line"/>
    </contour>
    <contour>
      <point x="417.866" y="1208" type="line"/>
      <point x="417.866" y="1988" type="line"/>
      <point x="123" y="1988" type="line"/>
      <point x="123" y="2107" type="line"/>
      <point x="840.866" y="2107" type="line"/>
      <point x="840.866" y="1988" type="line"/>
      <point x="554.166" y="1988" type="line"/>
      <point x="554.166" y="1208" type="line"/>
    </contour>
  </outline>
</glyph>
<glyph name="partialdiff" format="1">
  <advance width="2011"/>
  <unicode hex="2202"/>
  <outline>
    <contour>
      <point x="610.08" y="-42" type="curve" smooth="yes"/>
      <point x="681.52" y="-42"/>
      <point x="749.2" y="-29"/>
      <point x="808.42" y="-1" type="curve" smooth="yes"/>
      <point x="934.38" y="57"/>
      <point x="1027.85" y="157"/>
      <point x="1098.85" y="282" type="curve" smooth="yes"/>
      <point x="1202.85" y="464"/>
      <point x="1266.85" y="703"/>
      <point x="1266.85" y="986" type="curve" smooth="yes"/>
      <point x="1266.85" y="1124"/>
      <point x="1253.85" y="1242"/>
      <point x="1226.85" y="1343" type="curve" smooth="yes"/>
      <point x="1159.85" y="1598"/>
      <point x="1007.7" y="1786"/>
      <point x="715.36" y="1786" type="curve" smooth="yes"/>
      <point x="580.94" y="1786"/>
      <point x="458.74" y="1738"/>
      <point x="376.02" y="1679" type="curve"/>
      <point x="387.3" y="1517" type="line"/>
      <point x="464.38" y="1572"/>
      <point x="564.96" y="1629"/>
      <point x="689.98" y="1629" type="curve" smooth="yes"/>
      <point x="749.2" y="1629"/>
      <point x="799.02" y="1616"/>
      <point x="846.02" y="1590" type="curve" smooth="yes"/>
      <point x="995.48" y="1504"/>
      <point x="1065.85" y="1305"/>
      <point x="1065.85" y="1056" type="curve" smooth="yes"/>
      <point x="1065.85" y="1031"/>
      <point x="1064.85" y="991"/>
      <point x="1064.85" y="968" type="curve"/>
      <point x="985.14" y="1075"/>
      <point x="877.98" y="1163"/>
      <point x="713.48" y="1163" type="curve" smooth="yes"/>
      <point x="635.46" y="1163"/>
      <point x="564.96" y="1144"/>
      <point x="497.28" y="1109" type="curve" smooth="yes"/>
      <point x="299" y="1008"/>
      <point x="146" y="786"/>
      <point x="146" y="479" type="curve" smooth="yes"/>
      <point x="146" y="405"/>
      <point x="156" y="337"/>
      <point x="176" y="273" type="curve" smooth="yes"/>
      <point x="236" y="87"/>
      <point x="380.72" y="-42"/>
    </contour>
    <contour>
      <point x="612.9" y="116" type="curve" smooth="yes"/>
      <point x="571.54" y="116"/>
      <point x="533.94" y="125"/>
      <point x="501.98" y="142" type="curve" smooth="yes"/>
      <point x="400.46" y="195"/>
      <point x="345" y="315"/>
      <point x="345" y="476" type="curve" smooth="yes"/>
      <point x="345" y="628"/>
      <point x="392.94" y="759"/>
      <point x="457.8" y="848" type="curve" smooth="yes"/>
      <point x="517.96" y="931"/>
      <point x="611.96" y="1006"/>
      <point x="738.86" y="1006" type="curve" smooth="yes"/>
      <point x="777.4" y="1006"/>
      <point x="812.18" y="1000"/>
      <point x="844.14" y="986" type="curve" smooth="yes"/>
      <point x="940.02" y="945"/>
      <point x="1007.7" y="860"/>
      <point x="1044.85" y="755" type="curve"/>
      <point x="1024.85" y="581"/>
      <point x="971.98" y="419"/>
      <point x="899.6" y="304" type="curve" smooth="yes"/>
      <point x="839.44" y="209"/>
      <point x="748.26" y="116"/>
    </contour>
  </outline>
</glyph>
<glyph name="product" format="1">
  <advance width="2695"/>
  <unicode hex="220F"/>
  <outline>
    <contour>
      <point x="359" y="-580" type="line"/>
      <point x="359" y="1307" type="line"/>
      <point x="212" y="1307" type="line"/>
      <point x="194" y="1477" type="line"/>
      <point x="1708.69" y="1477" type="line"/>
      <point x="1689.69" y="1307" type="line"/>
      <point x="1557.69" y="1307" type="line"/>
      <point x="1557.69" y="-580" type="line"/>
      <point x="1355.55" y="-580" type="line"/>
      <point x="1355.55" y="1307" type="line"/>
      <point x="556.546" y="1307" type="line"/>
      <point x="556.546" y="-580" type="line"/>
    </contour>
  </outline>
</glyph>
<glyph name="summation" format="1">
  <advance width="2173"/>
  <unicode hex="2211"/>
  <outline>
    <contour>
      <point x="101" y="-580" type="line"/>
      <point x="101" y="-474" type="line"/>
      <point x="820.746" y="455" type="line"/>
      <point x="126" y="1367" type="line"/>
      <point x="126" y="1477" type="line"/>
      <point x="1360.59" y="1477" type="line"/>
      <point x="1360.59" y="1311" type="line"/>
      <point x="410.906" y="1311" type="line"/>
      <point x="1043.53" y="465" type="line"/>
      <point x="376.126" y="-406" type="line"/>
      <point x="1413.59" y="-406" type="line"/>
      <point x="1413.59" y="-580" type="line"/>
    </contour>
  </outline>
</glyph>
<glyph name="minus" format="1">
  <advance width="2522"/>
  <unicode hex="2212"/>
  <outline>
    <contour>
      <point x="349" y="874" type="line"/>
      <point x="349" y="1035" type="line"/>
      <point x="1536.57" y="1035" type="line"/>
      <point x="1536.57" y="874" type="line"/>
    </contour>
  </outline>
</glyph>
<glyph name="radical" format="1">
  <advance width="2264"/>
  <unicode hex="221A"/>
  <outline>
    <contour>
      <point x="745.846" y="-269" type="line"/>
      <point x="895.306" y="-269" type="line"/>
      <point x="1424.23" y="1784" type="line"/>
      <point x="1272.23" y="1784" type="line"/>
      <point x="853.946" y="165" type="line"/>
      <point x="810.706" y="-41" type="line"/>
      <point x="745.846" y="162" type="line"/>
      <point x="493.926" y="879" type="line"/>
      <point x="153" y="819" type="line"/>
      <point x="176" y="688" type="line"/>
      <point x="378" y="721" type="line"/>
    </contour>
  </outline>
</glyph>
<glyph name="infinity" format="1">
  <advance width="2947"/>
  <unicode hex="221E"/>
  <outline>
    <contour>
      <point x="580.5" y="415" type="curve" smooth="yes"/>
      <point x="623.74" y="415"/>
      <point x="666.04" y="423"/>
      <point x="706.46" y="437" type="curve" smooth="yes"/>
      <point x="842.76" y="487"/>
      <point x="938.64" y="597"/>
      <point x="1021.36" y="711" type="curve"/>
      <point x="1093.74" y="612"/>
      <point x="1166.12" y="538"/>
      <point x="1235.68" y="489" type="curve" smooth="yes"/>
      <point x="1305.24" y="440"/>
      <point x="1381.38" y="415"/>
      <point x="1463.16" y="415" type="curve" smooth="yes"/>
      <point x="1516.74" y="415"/>
      <point x="1566.56" y="426"/>
      <point x="1615.44" y="446" type="curve" smooth="yes"/>
      <point x="1755.5" y="504"/>
      <point x="1871.5" y="638"/>
      <point x="1871.5" y="838" type="curve" smooth="yes"/>
      <point x="1871.5" y="897"/>
      <point x="1862.5" y="951"/>
      <point x="1842.5" y="1001" type="curve" smooth="yes"/>
      <point x="1784.5" y="1147"/>
      <point x="1655.86" y="1247"/>
      <point x="1465.98" y="1247" type="curve" smooth="yes"/>
      <point x="1418.04" y="1247"/>
      <point x="1374.8" y="1241"/>
      <point x="1335.32" y="1226" type="curve" smooth="yes"/>
      <point x="1197.14" y="1177"/>
      <point x="1105.96" y="1065"/>
      <point x="1023.24" y="951" type="curve"/>
      <point x="991.28" y="996"/>
      <point x="958.38" y="1037"/>
      <point x="924.54" y="1073" type="curve" smooth="yes"/>
      <point x="840.88" y="1163"/>
      <point x="734.66" y="1247"/>
      <point x="574.86" y="1247" type="curve" smooth="yes"/>
      <point x="459.24" y="1247"/>
      <point x="362.42" y="1195"/>
      <point x="296" y="1133" type="curve" smooth="yes"/>
      <point x="228" y="1071"/>
      <point x="169" y="978"/>
      <point x="169" y="857" type="curve" smooth="yes"/>
      <point x="169" y="798"/>
      <point x="179" y="739"/>
      <point x="200" y="686" type="curve" smooth="yes"/>
      <point x="258" y="536"/>
      <point x="386.86" y="415"/>
    </contour>
    <contour>
      <point x="583.32" y="556" type="curve" smooth="yes"/>
      <point x="542.9" y="556"/>
      <point x="509.06" y="564"/>
      <point x="477.1" y="579" type="curve" smooth="yes"/>
      <point x="393.44" y="620"/>
      <point x="322" y="707"/>
      <point x="322" y="833" type="curve" smooth="yes"/>
      <point x="322" y="871"/>
      <point x="328.58" y="907"/>
      <point x="339.86" y="941" type="curve" smooth="yes"/>
      <point x="372.76" y="1038"/>
      <point x="447.96" y="1112"/>
      <point x="572.04" y="1112" type="curve" smooth="yes"/>
      <point x="610.58" y="1112"/>
      <point x="647.24" y="1104"/>
      <point x="681.08" y="1090" type="curve" smooth="yes"/>
      <point x="798.58" y="1041"/>
      <point x="877.54" y="936"/>
      <point x="946.16" y="830" type="curve"/>
      <point x="897.28" y="759"/>
      <point x="840.88" y="688"/>
      <point x="778.84" y="636" type="curve" smooth="yes"/>
      <point x="728.08" y="594"/>
      <point x="666.04" y="556"/>
    </contour>
    <contour>
      <point x="1465.98" y="556" type="curve" smooth="yes"/>
      <point x="1385.14" y="556"/>
      <point x="1331.56" y="585"/>
      <point x="1280.8" y="626" type="curve" smooth="yes"/>
      <point x="1209.36" y="682"/>
      <point x="1155.78" y="752"/>
      <point x="1097.5" y="833" type="curve"/>
      <point x="1142.62" y="904"/>
      <point x="1197.14" y="974"/>
      <point x="1259.18" y="1026" type="curve" smooth="yes"/>
      <point x="1310.88" y="1070"/>
      <point x="1376.68" y="1112"/>
      <point x="1460.34" y="1112" type="curve" smooth="yes"/>
      <point x="1497" y="1112"/>
      <point x="1528.96" y="1105"/>
      <point x="1559.98" y="1092" type="curve" smooth="yes"/>
      <point x="1638.94" y="1057"/>
      <point x="1708.5" y="980"/>
      <point x="1708.5" y="864" type="curve" smooth="yes"/>
      <point x="1708.5" y="685"/>
      <point x="1632.36" y="556"/>
    </contour>
  </outline>
</glyph>
